<?xml version="1.0" encoding="UTF-8" standalone="no"?>
<!-- Created with Inkscape (http://www.inkscape.org/) -->

<svg
   xmlns:dc="http://purl.org/dc/elements/1.1/"
   xmlns:cc="http://creativecommons.org/ns#"
   xmlns:rdf="http://www.w3.org/1999/02/22-rdf-syntax-ns#"
   xmlns:svg="http://www.w3.org/2000/svg"
   xmlns="http://www.w3.org/2000/svg"
   xmlns:xlink="http://www.w3.org/1999/xlink"
   xmlns:sodipodi="http://sodipodi.sourceforge.net/DTD/sodipodi-0.dtd"
   xmlns:inkscape="http://www.inkscape.org/namespaces/inkscape"
   width="600"
   height="600"
   viewBox="0 0 600 600"
   id="svg2"
   version="1.1"
   inkscape:version="0.91 r13725"
   sodipodi:docname="Close-transaction.svg"
   style="enable-background:new"
   enable-background="new">
  <defs
     id="defs4">
    <filter
       style="color-interpolation-filters:sRGB"
       inkscape:label="Drop Shadow"
       id="filter4199">
      <feFlood
         flood-opacity="1"
         flood-color="rgb(0,0,0)"
         result="flood"
         id="feFlood4201" />
      <feComposite
         in="flood"
         in2="SourceGraphic"
         operator="out"
         result="composite1"
         id="feComposite4203" />
      <feGaussianBlur
         in="composite1"
         stdDeviation="2"
         result="blur"
         id="feGaussianBlur4205" />
      <feOffset
         dx="0"
         dy="0"
         result="offset"
         id="feOffset4207" />
      <feComposite
         in="offset"
         in2="SourceGraphic"
         operator="atop"
         result="composite2"
         id="feComposite4209" />
    </filter>
    <linearGradient
       inkscape:collect="always"
       id="linearGradient4155">
      <stop
         style="stop-color:#001e3a;stop-opacity:1"
         offset="0"
         id="stop4157" />
      <stop
         style="stop-color:#12437b;stop-opacity:1"
         offset="1"
         id="stop4159" />
    </linearGradient>
    <linearGradient
       inkscape:collect="always"
       xlink:href="#linearGradient4155"
       id="linearGradient4169"
       gradientUnits="userSpaceOnUse"
       gradientTransform="translate(1.6477278e-5,3.4148255e-5)"
       x1="309.71143"
       y1="1044.3965"
       x2="309.04565"
       y2="571.5188" />
  </defs>
  <sodipodi:namedview
     id="base"
     pagecolor="#ffffff"
     bordercolor="#666666"
     borderopacity="1.0"
     inkscape:pageopacity="0.0"
     inkscape:pageshadow="2"
     inkscape:zoom="0.40327088"
     inkscape:cx="100.47302"
     inkscape:cy="-87.148398"
     inkscape:document-units="px"
     inkscape:current-layer="layer1"
     showgrid="false"
     units="px"
     inkscape:window-width="1600"
     inkscape:window-height="847"
     inkscape:window-x="0"
     inkscape:window-y="24"
     inkscape:window-maximized="1"
     showguides="false"
     inkscape:guide-bbox="true"
     borderlayer="true"
     inkscape:showpageshadow="true">
    <sodipodi:guide
       position="364.60193,97.77961"
       orientation="1,0"
       id="guide4319" />
    <sodipodi:guide
       position="145.84077,88.388348"
       orientation="1,0"
       id="guide4321" />
    <sodipodi:guide
       position="105.5,47.25"
       orientation="0,1"
       id="guide4323" />
  </sodipodi:namedview>
  <metadata
     id="metadata7">
    <rdf:RDF>
      <cc:Work
         rdf:about="">
        <dc:format>image/svg+xml</dc:format>
        <dc:type
           rdf:resource="http://purl.org/dc/dcmitype/StillImage" />
        <dc:title></dc:title>
      </cc:Work>
    </rdf:RDF>
  </metadata>
  <g
     inkscape:label="Layer 1"
     inkscape:groupmode="layer"
     id="layer1"
     transform="translate(0,-452.36216)"
     style="opacity:1;">
    <g
       transform="scale(0.99730031,1.002707)"
       style="font-style:normal;font-variant:normal;font-weight:normal;font-stretch:normal;font-size:55.24333191px;line-height:124.00000095%;font-family:'URW Gothic L';-inkscape-font-specification:'URW Gothic L';letter-spacing:0px;word-spacing:0px;fill:#005daa;fill-opacity:1;stroke:#005daa;stroke-width:2;stroke-linecap:butt;stroke-linejoin:miter;stroke-miterlimit:4;stroke-dasharray:none;stroke-opacity:1"
       id="text4246" />
    <circle
       style="fill:#12437b;fill-opacity:1;fill-rule:evenodd;stroke:#002642;stroke-width:0;stroke-linecap:butt;stroke-linejoin:miter;stroke-miterlimit:4;stroke-dasharray:none;stroke-opacity:1"
       id="path4151"
       cx="300.81918"
       cy="752.73053"
       r="291.06918" />
    <text
       xml:space="preserve"
       style="font-style:normal;font-weight:normal;font-size:28.34645653px;line-height:124.00000095%;font-family:sans-serif;letter-spacing:0px;word-spacing:0px;fill:#000000;fill-opacity:1;stroke:none;stroke-width:1px;stroke-linecap:butt;stroke-linejoin:miter;stroke-opacity:1"
       x="661.04266"
       y="514.05951"
       id="text4212"
       sodipodi:linespacing="124%"><tspan
         sodipodi:role="line"
         id="tspan4214"
         x="661.04266"
         y="514.05951" /></text>
    <path
       inkscape:connector-curvature="0"
       id="path4167"
       d="m 69.958046,929.66557 a 291.06918,291.06918 0 0 0 2.85773,3.9976 291.06918,291.06918 0 0 0 19.20273,21.8578 291.06918,291.06918 0 0 0 21.289034,19.8314 291.06918,291.06918 0 0 0 23.16119,17.607 291.06918,291.06918 0 0 0 24.80536,15.20743 291.06918,291.06918 0 0 0 26.19852,12.6559 291.06918,291.06918 0 0 0 27.32919,9.9779 291.06918,291.06918 0 0 0 28.19041,7.1961 291.06918,291.06918 0 0 0 28.76843,4.3499 291.06918,291.06918 0 0 0 29.05855,1.4531 291.06918,291.06918 0 0 0 20.58898,-0.73 291.06918,291.06918 0 0 0 28.8836,-3.5048 291.06918,291.06918 0 0 0 28.3884,-6.3717 291.06918,291.06918 0 0 0 27.6102,-9.1743 291.06918,291.06918 0 0 0 26.5577,-11.8845 291.06918,291.06918 0 0 0 25.236,-14.47739 291.06918,291.06918 0 0 0 23.6678,-16.92304 291.06918,291.06918 0 0 0 21.8578,-19.2028 291.06918,291.06918 0 0 0 19.8314,-21.289 291.06918,291.06918 0 0 0 17.6069,-23.1612 291.06918,291.06918 0 0 0 15.2075,-24.8053 291.06918,291.06918 0 0 0 12.6559,-26.1986 291.06918,291.06918 0 0 0 9.9779,-27.3292 291.06918,291.06918 0 0 0 7.1961,-28.1904 291.06918,291.06918 0 0 0 4.35,-28.7684 291.06918,291.06918 0 0 0 1.453,-29.0585 291.06918,291.06918 0 0 0 -0.73,-20.58905 291.06918,291.06918 0 0 0 -3.5048,-28.88355 291.06918,291.06918 0 0 0 -6.3717,-28.38845 291.06918,291.06918 0 0 0 -9.1742,-27.61012 291.06918,291.06918 0 0 0 -11.8846,-26.55776 291.06918,291.06918 0 0 0 -14.4775,-25.23598 291.06918,291.06918 0 0 0 -16.6973,-23.35002 550.82079,550.82079 0 0 0 -459.090224,357.54993 z"
       style="opacity:1;fill:url(#linearGradient4169);fill-opacity:1;fill-rule:evenodd;stroke:#101318;stroke-width:0;stroke-linecap:butt;stroke-linejoin:miter;stroke-miterlimit:4;stroke-dasharray:none;stroke-opacity:1;enable-background:new" />
    <path
       style="font-style:normal;font-variant:normal;font-weight:bold;font-stretch:normal;font-size:224.18746948px;line-height:124.00000095%;font-family:sans-serif;-inkscape-font-specification:'sans-serif Bold';letter-spacing:0px;word-spacing:0px;opacity:1;fill:#ffad00;fill-opacity:1;stroke:none;stroke-width:1px;stroke-linecap:butt;stroke-linejoin:miter;stroke-opacity:1;enable-background:new"
       d="m 286.245,556.75336 0,18.76221 -23.26407,0 0,13.3552 23.26407,0 0,19.33398 -23.26407,0 0,13.35513 23.26407,0 0,69.32976 27.09628,0 0,-46.53952 17.87691,0 c 13.37249,0 23.62477,-3.77233 30.75675,-11.31924 3.05418,-3.23616 5.4527,-7.06406 7.20752,-11.471 l 21.47498,0 0,-13.35513 -18.30819,0 c 0.26107,-2.44907 0.39437,-5.01408 0.39437,-7.69845 0,-4.16685 -0.32456,-8.04045 -0.9591,-11.63553 l 18.87292,0 0,-13.3552 -23.37335,0 c -1.47391,-2.71698 -3.23724,-5.17412 -5.30915,-7.35223 -7.13198,-7.60678 -17.38426,-11.40998 -30.75675,-11.40998 l -44.97319,0 z m 27.09628,25.06592 14.99249,0 c 5.25512,0 9.31257,1.61797 12.17469,4.85231 2.86219,3.23441 4.29332,7.84518 4.29332,13.83471 0,5.98961 -1.43113,10.6327 -4.29332,13.92697 -2.86212,3.23435 -6.91957,4.85086 -12.17469,4.85086 l -14.99249,0 0,-37.46485 z"
       id="text4969"
       inkscape:connector-curvature="0" />
    <path
       style="opacity:0.91799999;fill:#ffad00;fill-opacity:1;stroke:#85804b;stroke-width:0;stroke-linecap:round;stroke-linejoin:miter;stroke-miterlimit:4;stroke-dasharray:none;stroke-opacity:1;enable-background:new"
       d="m 353.63818,687.49478 c -7.729,0 -9.71595,0.9152 -48.66525,22.41749 -39.48155,21.7961 -60.4898,35.024 -63.52135,39.99511 -4.07935,6.68925 -3.86117,12.49948 0.72671,19.30741 4.30686,6.39098 9.98273,9.78202 16.43149,9.81791 2.42648,0.0135 18.36147,-7.09249 35.41209,-15.79092 31.74576,-16.19517 38.06155,-18.08328 47.92229,-14.33424 2.14092,0.81397 22.46413,19.72991 45.16173,42.03541 22.69758,22.30551 43.28128,41.4573 45.74215,42.56056 2.46088,1.10322 7.18544,2.03966 10.4991,2.08097 5.72139,0.0714 32.29416,-4.00986 38.50753,-5.9145 2.69639,-0.82655 2.91336,-4.91533 2.91336,-54.88699 0,-60.24719 0.95147,-55.97841 -11.66479,-52.29231 -6.26342,1.83002 -23.65819,5.70456 -38.03605,8.4718 -15.41834,2.96754 -19.29792,1.36318 -40.51861,-16.74686 -28.52193,-24.34101 -32.16511,-26.72084 -40.9104,-26.72084 z m -95.90309,1.12989 c -4.0283,-0.0371 -8.1271,0.45682 -12.17036,1.50383 -11.62355,3.00994 -31.46429,12.29597 -49.63418,23.23035 -11.49087,6.91503 -14.80286,8.11003 -24.13916,8.70915 -9.49649,0.60942 -13.52106,-0.22696 -32.87921,-6.82653 l -22.05819,-7.5191 0,62.79139 0,62.7914 7.90764,2.34271 c 4.34923,1.28867 8.78089,2.60937 9.84719,2.93611 1.06631,0.32675 2.45417,-1.02962 3.08406,-3.01415 2.21924,-6.99227 12.49858,-16.33445 21.80457,-19.81628 20.8092,-7.7857 42.33498,-0.68551 49.8992,16.4591 1.57069,3.56007 4.52292,7.23321 6.5599,8.16127 6.33703,2.88738 15.82074,12.16979 18.16452,17.77922 1.42085,3.40062 4.89447,6.82591 9.49438,9.36271 4.91632,2.71132 8.95429,6.84546 12.53292,12.83205 3.29364,5.50982 8.11565,10.63119 12.81904,13.61404 10.91492,6.92201 16.51076,16.21392 17.36303,28.83271 0.55391,8.201 1.5736,11.20592 5.09023,15.00568 2.41838,2.6131 5.89432,5.37474 7.72557,6.13722 11.45572,4.76965 22.30839,-3.50995 20.35766,-15.53083 -0.65886,-4.06011 -4.24292,-9.13522 -12.70361,-17.98729 -10.9539,-11.46068 -14.57951,-18.15803 -9.8293,-18.15803 1.09228,0 9.59801,7.49146 18.90261,16.6477 19.40292,19.09349 23.65799,20.63565 32.51178,11.78182 7.38145,-7.38143 6.62547,-13.32365 -3.04177,-23.9213 -4.34923,-4.76782 -8.38002,-9.04471 -8.95791,-9.50252 -2.71995,-2.15479 -13.10032,-15.46928 -13.10032,-16.80375 0,-4.71847 7.66879,0.28226 20.8454,13.59452 8.2215,8.3062 17.08916,16.23268 19.70574,17.61501 9.51256,5.02553 21.04534,-2.06846 21.04534,-12.94421 0,-5.58449 -1.57095,-7.96441 -14.15055,-21.43881 -12.68169,-13.58375 -17.30843,-21.642 -12.42724,-21.642 0.9474,0 8.25158,6.2625 16.23151,13.91644 7.97994,7.65387 16.17845,14.78924 18.2198,15.85594 5.14302,2.68736 11.34994,0.73811 16.27051,-5.10974 4.66145,-5.53976 5.27368,-10.67464 1.85499,-15.55192 -4.14886,-5.91901 -71.64128,-72.91244 -77.42316,-76.8509 -9.07009,-6.17829 -12.2772,-5.59272 -40.13817,7.3354 -28.71328,13.3236 -37.87544,14.95371 -49.81627,8.86195 -15.11683,-7.71203 -22.68944,-21.17132 -21.46155,-38.14663 1.28444,-17.7571 6.79307,-23.33733 44.16028,-44.74554 l 20.24222,-11.59811 -4.46916,-3.25799 c -6.85442,-4.9973 -15.37769,-7.65059 -24.23998,-7.73209 z m -78.45063,143.78311 c -1.36163,-0.005 -3.01146,0.10466 -5.12112,0.2796 -7.4941,0.62147 -10.13907,1.72985 -14.70978,6.15996 -5.96205,5.77863 -10.88277,18.15446 -9.69273,24.37981 0.39933,2.08892 2.26506,5.45004 4.14568,7.46866 3.00907,3.2299 4.6068,3.56167 13.31652,2.77191 9.4907,-0.8606 9.86246,-0.7499 9.07332,2.70526 -0.45262,1.98157 -1.34573,5.91523 -1.98505,8.74168 -0.92268,4.07908 -0.33608,6.1003 2.84342,9.79677 4.27441,4.96924 9.19937,5.82219 19.47164,3.37342 5.18181,-1.23525 5.57442,-1.0727 4.39441,1.82084 -0.71265,1.74758 -1.67222,6.25266 -2.133,10.01136 -0.69375,5.65931 -0.16158,7.4758 3.09706,10.56903 3.4991,3.32146 5.1059,3.63058 14.50008,2.78653 9.54463,-0.85751 10.44935,-0.67219 9.37085,1.91675 -0.65659,1.57614 -1.56175,6.3034 -2.01106,10.50562 -0.73035,6.83053 -0.33236,8.02169 3.75546,11.23719 8.83997,6.95349 28.03166,2.78999 35.50317,-7.7028 5.53372,-7.77141 4.95532,-19.21148 -1.28596,-25.45277 -3.96088,-3.96083 -6.28389,-4.8675 -12.48578,-4.8675 l -7.61989,0 0,-8.1954 c 0,-6.9323 -0.79008,-8.98544 -5.12274,-13.31816 -4.12011,-4.12005 -6.51263,-5.12275 -12.2289,-5.12275 l -7.10617,0 0.15934,-7.62638 c 0.13834,-6.61007 -0.56546,-8.2751 -5.27719,-12.48578 -4.07945,-3.64568 -7.09271,-4.85938 -12.06958,-4.85938 l -6.63309,0 0,-7.61826 c 0,-6.27055 -0.89638,-8.5163 -5.06582,-12.68575 -3.50915,-3.50915 -4.99813,-4.57271 -9.08309,-4.58946 z"
       id="path4164"
       inkscape:connector-curvature="0" />
    <path
       style="opacity:0.95999995;fill:#fffff5;fill-opacity:1;stroke:#85804b;stroke-width:0;stroke-linecap:round;stroke-linejoin:miter;stroke-miterlimit:4;stroke-dasharray:none;stroke-opacity:1;enable-background:new"
       d="m 350.96765,694.14 c -7.33823,0 -9.22472,0.86896 -46.20473,21.28403 -37.48535,20.69413 -57.43143,33.25325 -60.30969,37.97296 -3.87311,6.35099 -3.66595,11.86746 0.68997,18.33122 4.08911,6.06785 9.47799,9.28745 15.60068,9.3215 2.30382,0.0127 17.43313,-6.7339 33.62167,-14.99253 30.14068,-15.37634 36.13715,-17.16898 45.49931,-13.60948 2.03269,0.77282 21.32836,18.73235 42.87835,39.9101 21.54999,21.17771 41.09298,39.36122 43.42941,40.4086 2.33646,1.04747 6.82215,1.93656 9.96826,1.97576 5.43212,0.0679 30.66137,-3.80703 36.5606,-5.61539 2.56005,-0.78477 2.76605,-4.6668 2.76605,-52.11193 0,-57.201 0.90336,-53.14804 -11.075,-49.64828 -5.94676,1.73747 -22.46205,5.41608 -36.11296,8.04341 -14.63879,2.81751 -18.32219,1.29428 -38.46995,-15.90011 C 362.72975,696.39953 359.27076,694.14 350.96765,694.14 Z m -91.0542,1.07279 c -3.82464,-0.0352 -7.71619,0.4337 -11.55504,1.42778 -11.03585,2.85776 -29.87343,11.67433 -47.12467,22.05585 -10.90985,6.56541 -14.05437,7.69996 -22.91868,8.26882 -9.01628,0.57857 -12.83738,-0.21553 -31.21681,-6.4814 l -20.94293,-7.13893 0,59.61658 0,59.61668 7.50785,2.22421 c 4.12932,1.22355 8.33693,2.47743 9.34932,2.78769 1.01237,0.3102 2.33012,-0.97758 2.92813,-2.86174 2.10702,-6.63877 11.86665,-15.5086 20.70212,-18.81443 19.75708,-7.39205 40.19453,-0.65079 47.37626,15.62699 1.49129,3.38003 4.29424,6.86748 6.22824,7.74866 6.01663,2.74137 15.02084,11.55441 17.2461,16.88022 1.34904,3.22869 4.64702,6.48086 9.01435,8.88937 4.66775,2.57423 8.50157,6.49934 11.89925,12.18324 3.12711,5.23123 7.70532,10.09371 12.17091,12.92575 10.36306,6.57205 15.67596,15.39407 16.48514,27.37485 0.5259,7.78634 1.49407,10.63939 4.83288,14.24702 2.29611,2.48099 5.59631,5.10297 7.33495,5.82689 10.87652,4.52849 21.18047,-3.33246 19.32838,-14.74556 -0.62555,-3.85485 -4.0284,-8.67337 -12.06132,-17.0779 -10.40004,-10.88124 -13.84238,-17.2399 -9.33234,-17.2399 1.0371,0 9.11273,7.1127 17.94691,15.80599 18.42191,18.12811 22.46184,19.5923 30.86796,11.18613 7.00825,-7.00821 6.29048,-12.64999 -2.88799,-22.71185 -4.12932,-4.52675 -7.9563,-8.5874 -8.50496,-9.02206 -2.58245,-2.04585 -12.43796,-14.68716 -12.43796,-15.95416 0,-4.47989 7.28105,0.26799 19.79143,12.90716 7.80583,7.88624 16.22514,15.41195 18.70942,16.72439 9.03161,4.77143 19.98129,-1.96381 19.98129,-12.2897 0,-5.3021 -1.49154,-7.56175 -13.43511,-20.35487 -12.04049,-12.89697 -16.4333,-20.54777 -11.7989,-20.54777 0.89949,0 7.83436,5.94582 15.41084,13.21277 7.57645,7.26688 15.36044,14.04156 17.29859,15.05433 4.88299,2.55149 10.77607,0.70075 15.44788,-4.8514 4.42573,-5.25968 5.00703,-10.13497 1.76119,-14.76565 -3.93908,-5.61972 -68.01908,-69.22592 -73.50862,-72.9653 -8.61151,-5.86592 -11.65646,-5.30994 -38.10877,6.96452 -27.26152,12.65 -35.96045,14.19772 -47.29755,8.41391 -14.35251,-7.32212 -21.54225,-20.10094 -20.37644,-36.2179 1.21949,-16.85925 6.44961,-22.15742 41.92752,-42.4832 l 19.21878,-11.01169 -4.24323,-3.09327 c -6.50784,-4.74462 -14.60018,-7.26376 -23.01437,-7.34112 z m -74.48412,136.51327 c -1.29285,-0.008 -2.85922,0.0995 -4.86222,0.26553 -7.11523,0.59005 -9.62641,1.64242 -13.96602,5.84854 -5.66061,5.48641 -10.33262,17.23651 -9.20273,23.14707 0.3792,1.98333 2.15057,5.17457 3.9361,7.09111 2.85693,3.0666 4.37391,3.38161 12.6432,2.63178 9.01083,-0.81709 9.36386,-0.71199 8.61457,2.56848 -0.42967,1.88137 -1.27767,5.6161 -1.88461,8.29963 -0.87605,3.87285 -0.31913,5.79194 2.69965,9.30151 4.05827,4.71801 8.73424,5.52782 18.48716,3.20285 4.91976,-1.17281 5.29255,-1.01847 4.17214,1.72876 -0.67658,1.65925 -1.58762,5.9365 -2.02507,9.50518 -0.65871,5.37317 -0.15347,7.09783 2.9404,10.03467 3.3222,3.15351 4.84776,3.44703 13.76697,2.64568 9.06207,-0.81417 9.92104,-0.63825 8.89705,1.81981 -0.62336,1.49644 -1.48278,5.9847 -1.90937,9.97444 -0.69342,6.48521 -0.31556,7.61611 3.56559,10.66904 8.39299,6.60193 26.61436,2.64894 33.70813,-7.31335 5.25394,-7.37846 4.70476,-18.24018 -1.22097,-24.16592 -3.76059,-3.76054 -5.96616,-4.62135 -11.85447,-4.62135 l -7.23465,0 0,-7.78105 c 0,-6.58176 -0.75011,-8.53112 -4.86372,-12.64478 -3.9118,-3.91174 -6.18333,-4.86374 -11.61062,-4.86374 l -6.74685,0 0.15126,-7.24079 c 0.13137,-6.27585 -0.53686,-7.85667 -5.01037,-11.8545 -3.87317,-3.46134 -6.73411,-4.61369 -11.45931,-4.61369 l -6.29773,0 0,-7.23313 c 0,-5.95348 -0.85109,-8.08562 -4.80968,-12.04431 -3.33175,-3.33173 -4.74543,-4.34151 -8.62383,-4.35747 z"
       id="path4164-3"
       inkscape:connector-curvature="0" />
  </g>
</svg>
