<?xml version="1.0" encoding="UTF-8" standalone="no"?>
<!-- Created with Inkscape (http://www.inkscape.org/) -->

<svg
   xmlns:dc="http://purl.org/dc/elements/1.1/"
   xmlns:cc="http://creativecommons.org/ns#"
   xmlns:rdf="http://www.w3.org/1999/02/22-rdf-syntax-ns#"
   xmlns:svg="http://www.w3.org/2000/svg"
   xmlns="http://www.w3.org/2000/svg"
   xmlns:xlink="http://www.w3.org/1999/xlink"
   xmlns:sodipodi="http://sodipodi.sourceforge.net/DTD/sodipodi-0.dtd"
   xmlns:inkscape="http://www.inkscape.org/namespaces/inkscape"
   width="600"
   height="600"
   viewBox="0 0 600 600"
   id="svg2"
   version="1.1"
   inkscape:version="0.91 r13725"
   sodipodi:docname="Collection-icon.svg"
   style="enable-background:new"
   enable-background="new">
  <defs
     id="defs4">
    <filter
       style="color-interpolation-filters:sRGB"
       inkscape:label="Drop Shadow"
       id="filter4199">
      <feFlood
         flood-opacity="1"
         flood-color="rgb(0,0,0)"
         result="flood"
         id="feFlood4201" />
      <feComposite
         in="flood"
         in2="SourceGraphic"
         operator="out"
         result="composite1"
         id="feComposite4203" />
      <feGaussianBlur
         in="composite1"
         stdDeviation="2"
         result="blur"
         id="feGaussianBlur4205" />
      <feOffset
         dx="0"
         dy="0"
         result="offset"
         id="feOffset4207" />
      <feComposite
         in="offset"
         in2="SourceGraphic"
         operator="atop"
         result="composite2"
         id="feComposite4209" />
    </filter>
    <linearGradient
       inkscape:collect="always"
       id="linearGradient4155">
      <stop
         style="stop-color:#001e3a;stop-opacity:1"
         offset="0"
         id="stop4157" />
      <stop
         style="stop-color:#12437b;stop-opacity:1"
         offset="1"
         id="stop4159" />
    </linearGradient>
    <linearGradient
       inkscape:collect="always"
       xlink:href="#linearGradient4155"
       id="linearGradient4169"
       gradientUnits="userSpaceOnUse"
       gradientTransform="translate(1.6477278e-5,3.4148255e-5)"
       x1="309.71143"
       y1="1044.3965"
       x2="309.04565"
       y2="571.5188" />
  </defs>
  <sodipodi:namedview
     id="base"
     pagecolor="#ffffff"
     bordercolor="#666666"
     borderopacity="1.0"
     inkscape:pageopacity="0.0"
     inkscape:pageshadow="2"
     inkscape:zoom="0.80654176"
     inkscape:cx="387.29508"
     inkscape:cy="287.38274"
     inkscape:document-units="px"
     inkscape:current-layer="layer1"
     showgrid="false"
     units="px"
     inkscape:window-width="1600"
     inkscape:window-height="847"
     inkscape:window-x="0"
     inkscape:window-y="24"
     inkscape:window-maximized="1"
     showguides="false"
     inkscape:guide-bbox="true"
     borderlayer="true"
     inkscape:showpageshadow="true">
    <sodipodi:guide
       position="364.60193,97.77961"
       orientation="1,0"
       id="guide4319" />
    <sodipodi:guide
       position="145.84077,88.388348"
       orientation="1,0"
       id="guide4321" />
    <sodipodi:guide
       position="105.5,47.25"
       orientation="0,1"
       id="guide4323" />
  </sodipodi:namedview>
  <metadata
     id="metadata7">
    <rdf:RDF>
      <cc:Work
         rdf:about="">
        <dc:format>image/svg+xml</dc:format>
        <dc:type
           rdf:resource="http://purl.org/dc/dcmitype/StillImage" />
        <dc:title></dc:title>
      </cc:Work>
    </rdf:RDF>
  </metadata>
  <g
     inkscape:label="Layer 1"
     inkscape:groupmode="layer"
     id="layer1"
     transform="translate(0,-452.36216)"
     style="opacity:1;">
    <g
       transform="scale(0.99730031,1.002707)"
       style="font-style:normal;font-variant:normal;font-weight:normal;font-stretch:normal;font-size:55.24333191px;line-height:124.00000095%;font-family:'URW Gothic L';-inkscape-font-specification:'URW Gothic L';letter-spacing:0px;word-spacing:0px;fill:#005daa;fill-opacity:1;stroke:#005daa;stroke-width:2;stroke-linecap:butt;stroke-linejoin:miter;stroke-miterlimit:4;stroke-dasharray:none;stroke-opacity:1"
       id="text4246" />
    <circle
       style="fill:#12437b;fill-opacity:1;fill-rule:evenodd;stroke:#002642;stroke-width:0;stroke-linecap:butt;stroke-linejoin:miter;stroke-miterlimit:4;stroke-dasharray:none;stroke-opacity:1"
       id="path4151"
       cx="300.81918"
       cy="752.73053"
       r="291.06918" />
    <text
       xml:space="preserve"
       style="font-style:normal;font-weight:normal;font-size:28.34645653px;line-height:124.00000095%;font-family:sans-serif;letter-spacing:0px;word-spacing:0px;fill:#000000;fill-opacity:1;stroke:none;stroke-width:1px;stroke-linecap:butt;stroke-linejoin:miter;stroke-opacity:1"
       x="661.04266"
       y="514.05951"
       id="text4212"
       sodipodi:linespacing="124%"><tspan
         sodipodi:role="line"
         id="tspan4214"
         x="661.04266"
         y="514.05951" /></text>
    <path
       inkscape:connector-curvature="0"
       id="path4167"
       d="m 69.958046,929.66557 a 291.06918,291.06918 0 0 0 2.85773,3.9976 291.06918,291.06918 0 0 0 19.20273,21.8578 291.06918,291.06918 0 0 0 21.289034,19.8314 291.06918,291.06918 0 0 0 23.16119,17.607 291.06918,291.06918 0 0 0 24.80536,15.20743 291.06918,291.06918 0 0 0 26.19852,12.6559 291.06918,291.06918 0 0 0 27.32919,9.9779 291.06918,291.06918 0 0 0 28.19041,7.1961 291.06918,291.06918 0 0 0 28.76843,4.3499 291.06918,291.06918 0 0 0 29.05855,1.4531 291.06918,291.06918 0 0 0 20.58898,-0.73 291.06918,291.06918 0 0 0 28.8836,-3.5048 291.06918,291.06918 0 0 0 28.3884,-6.3717 291.06918,291.06918 0 0 0 27.6102,-9.1743 291.06918,291.06918 0 0 0 26.5577,-11.8845 291.06918,291.06918 0 0 0 25.236,-14.47739 291.06918,291.06918 0 0 0 23.6678,-16.92304 291.06918,291.06918 0 0 0 21.8578,-19.2028 291.06918,291.06918 0 0 0 19.8314,-21.289 291.06918,291.06918 0 0 0 17.6069,-23.1612 291.06918,291.06918 0 0 0 15.2075,-24.8053 291.06918,291.06918 0 0 0 12.6559,-26.1986 291.06918,291.06918 0 0 0 9.9779,-27.3292 291.06918,291.06918 0 0 0 7.1961,-28.1904 291.06918,291.06918 0 0 0 4.35,-28.7684 291.06918,291.06918 0 0 0 1.453,-29.0585 291.06918,291.06918 0 0 0 -0.73,-20.58905 291.06918,291.06918 0 0 0 -3.5048,-28.88355 291.06918,291.06918 0 0 0 -6.3717,-28.38845 291.06918,291.06918 0 0 0 -9.1742,-27.61012 291.06918,291.06918 0 0 0 -11.8846,-26.55776 291.06918,291.06918 0 0 0 -14.4775,-25.23598 291.06918,291.06918 0 0 0 -16.6973,-23.35002 550.82079,550.82079 0 0 0 -459.090224,357.54993 z"
       style="opacity:1;fill:url(#linearGradient4169);fill-opacity:1;fill-rule:evenodd;stroke:#101318;stroke-width:0;stroke-linecap:butt;stroke-linejoin:miter;stroke-miterlimit:4;stroke-dasharray:none;stroke-opacity:1;enable-background:new" />
    <rect
       transform="matrix(0.80534352,-0.59280841,0,1,0,0)"
       style="opacity:1;fill:#7b6a65;fill-opacity:1;stroke:#ffffff;stroke-width:0;stroke-linecap:round;stroke-linejoin:miter;stroke-miterlimit:4;stroke-dasharray:none;stroke-opacity:1;enable-background:new"
       id="rect4458"
       width="109.87843"
       height="187.52774"
       x="139.42805"
       y="808.35461" />
    <rect
       y="660.56409"
       x="200.62981"
       height="187.52774"
       width="281.33099"
       id="rect4462"
       style="opacity:1;fill:#68605a;fill-opacity:1;stroke:#ffffff;stroke-width:0;stroke-linecap:round;stroke-linejoin:miter;stroke-miterlimit:4;stroke-dasharray:none;stroke-opacity:1;enable-background:new" />
    <rect
       style="opacity:1;fill:#68605a;fill-opacity:1;stroke:#ffffff;stroke-width:0;stroke-linecap:round;stroke-linejoin:miter;stroke-miterlimit:4;stroke-dasharray:none;stroke-opacity:1;enable-background:new"
       id="rect4464"
       width="269.35721"
       height="170.93237"
       x="207.55406"
       y="666.88025" />
    <rect
       y="585.22125"
       x="238.25041"
       height="231.17368"
       width="174.72878"
       id="rect4468"
       style="opacity:0.98999999;fill:#ff6600;fill-opacity:1;stroke:#ffffff;stroke-width:0;stroke-linecap:round;stroke-linejoin:miter;stroke-miterlimit:4;stroke-dasharray:none;stroke-opacity:1;enable-background:new" />
    <rect
       style="opacity:0.98999999;fill:#ffffff;fill-opacity:1;stroke:#ffffff;stroke-width:0;stroke-linecap:round;stroke-linejoin:miter;stroke-miterlimit:4;stroke-dasharray:none;stroke-opacity:1;enable-background:new"
       id="rect4470"
       width="158.20035"
       height="214.74506"
       x="246.51465"
       y="593.43561" />
    <rect
       style="opacity:0.98999999;fill:#ff6600;fill-opacity:1;stroke:#ffffff;stroke-width:0;stroke-linecap:round;stroke-linejoin:miter;stroke-miterlimit:4;stroke-dasharray:none;stroke-opacity:1;enable-background:new"
       id="rect4446"
       width="174.72878"
       height="231.17368"
       x="216.87941"
       y="597.96655" />
    <rect
       y="606.18079"
       x="225.14351"
       height="214.74506"
       width="158.20035"
       id="rect4448"
       style="opacity:0.98999999;fill:#ffffff;fill-opacity:1;stroke:#ffffff;stroke-width:0;stroke-linecap:round;stroke-linejoin:miter;stroke-miterlimit:4;stroke-dasharray:none;stroke-opacity:1;enable-background:new" />
    <rect
       style="opacity:0.98999999;fill:#ff6600;fill-opacity:1;stroke:#ffffff;stroke-width:0;stroke-linecap:round;stroke-linejoin:miter;stroke-miterlimit:4;stroke-dasharray:none;stroke-opacity:1;enable-background:new"
       id="rect4446-3"
       width="174.72878"
       height="231.17368"
       x="194.08415"
       y="618.13092" />
    <rect
       transform="matrix(0.80534352,-0.59280841,0,1,0,0)"
       y="816.66815"
       x="146.86205"
       height="170.93237"
       width="95.064728"
       id="rect4460"
       style="opacity:1;fill:#7b6a65;fill-opacity:1;stroke:#ffffff;stroke-width:0;stroke-linecap:round;stroke-linejoin:miter;stroke-miterlimit:4;stroke-dasharray:none;stroke-opacity:1;enable-background:new" />
    <rect
       y="626.34515"
       x="202.34825"
       height="214.74506"
       width="158.20035"
       id="rect4448-6"
       style="opacity:0.98999999;fill:#ffffff;fill-opacity:1;stroke:#ffffff;stroke-width:0;stroke-linecap:round;stroke-linejoin:miter;stroke-miterlimit:4;stroke-dasharray:none;stroke-opacity:1;enable-background:new" />
    <rect
       style="opacity:1;fill:#ff6600;fill-opacity:1;stroke:#ffffff;stroke-width:0;stroke-linecap:round;stroke-linejoin:miter;stroke-miterlimit:4;stroke-dasharray:none;stroke-opacity:1;enable-background:new"
       id="rect4450"
       width="281.33099"
       height="187.52774"
       x="112.28745"
       y="725.70111" />
    <rect
       y="733.99872"
       x="118.27444"
       height="170.93237"
       width="269.35721"
       id="rect4452"
       style="opacity:1;fill:#ff6600;fill-opacity:1;stroke:#ffffff;stroke-width:0;stroke-linecap:round;stroke-linejoin:miter;stroke-miterlimit:4;stroke-dasharray:none;stroke-opacity:1;enable-background:new" />
    <rect
       y="1015.332"
       x="488.57523"
       height="187.52774"
       width="109.87843"
       id="rect4454"
       style="opacity:1;fill:#ffac6a;fill-opacity:1;stroke:#ffffff;stroke-width:0;stroke-linecap:round;stroke-linejoin:miter;stroke-miterlimit:4;stroke-dasharray:none;stroke-opacity:1;enable-background:new"
       transform="matrix(0.80534352,-0.59280841,0,1,0,0)" />
    <rect
       style="opacity:1;fill:#ffac6a;fill-opacity:1;stroke:#ffffff;stroke-width:0;stroke-linecap:round;stroke-linejoin:miter;stroke-miterlimit:4;stroke-dasharray:none;stroke-opacity:1;enable-background:new"
       id="rect4456"
       width="102.86234"
       height="171.97505"
       x="489.96289"
       y="1024.5583"
       transform="matrix(0.80455009,-0.5938848,0,1,0,0)" />
    <rect
       style="opacity:1;fill:#1b3333;fill-opacity:1;stroke:#ffffff;stroke-width:0;stroke-linecap:round;stroke-linejoin:miter;stroke-miterlimit:4;stroke-dasharray:none;stroke-opacity:1;enable-background:new"
       id="rect4466"
       width="73.604568"
       height="11.452466"
       x="174.56679"
       y="732.97858" />
  </g>
</svg>
