<?xml version="1.0" encoding="UTF-8" standalone="no"?>
<!-- Created with Inkscape (http://www.inkscape.org/) -->

<svg
   xmlns:dc="http://purl.org/dc/elements/1.1/"
   xmlns:cc="http://creativecommons.org/ns#"
   xmlns:rdf="http://www.w3.org/1999/02/22-rdf-syntax-ns#"
   xmlns:svg="http://www.w3.org/2000/svg"
   xmlns="http://www.w3.org/2000/svg"
   xmlns:xlink="http://www.w3.org/1999/xlink"
   xmlns:sodipodi="http://sodipodi.sourceforge.net/DTD/sodipodi-0.dtd"
   xmlns:inkscape="http://www.inkscape.org/namespaces/inkscape"
   width="600"
   height="600"
   viewBox="0 0 600 600"
   id="svg2"
   version="1.1"
   inkscape:version="0.91 r13725"
   sodipodi:docname="Bank-Account-List-icon.svg"
   style="enable-background:new"
   enable-background="new">
  <defs
     id="defs4">
    <filter
       style="color-interpolation-filters:sRGB"
       inkscape:label="Drop Shadow"
       id="filter4199">
      <feFlood
         flood-opacity="1"
         flood-color="rgb(0,0,0)"
         result="flood"
         id="feFlood4201" />
      <feComposite
         in="flood"
         in2="SourceGraphic"
         operator="out"
         result="composite1"
         id="feComposite4203" />
      <feGaussianBlur
         in="composite1"
         stdDeviation="2"
         result="blur"
         id="feGaussianBlur4205" />
      <feOffset
         dx="0"
         dy="0"
         result="offset"
         id="feOffset4207" />
      <feComposite
         in="offset"
         in2="SourceGraphic"
         operator="atop"
         result="composite2"
         id="feComposite4209" />
    </filter>
    <linearGradient
       inkscape:collect="always"
       id="linearGradient4155">
      <stop
         style="stop-color:#001e3a;stop-opacity:1"
         offset="0"
         id="stop4157" />
      <stop
         style="stop-color:#12437b;stop-opacity:1"
         offset="1"
         id="stop4159" />
    </linearGradient>
    <linearGradient
       inkscape:collect="always"
       xlink:href="#linearGradient4155"
       id="linearGradient4169"
       gradientUnits="userSpaceOnUse"
       gradientTransform="translate(1.6477278e-5,3.4148255e-5)"
       x1="309.71143"
       y1="1044.3965"
       x2="309.04565"
       y2="571.5188" />
  </defs>
  <sodipodi:namedview
     id="base"
     pagecolor="#ffffff"
     bordercolor="#666666"
     borderopacity="1.0"
     inkscape:pageopacity="0.0"
     inkscape:pageshadow="2"
     inkscape:zoom="1.1406223"
     inkscape:cx="66.492548"
     inkscape:cy="316.23727"
     inkscape:document-units="px"
     inkscape:current-layer="layer1"
     showgrid="false"
     units="px"
     inkscape:window-width="1600"
     inkscape:window-height="847"
     inkscape:window-x="0"
     inkscape:window-y="24"
     inkscape:window-maximized="1"
     showguides="false"
     inkscape:guide-bbox="true"
     borderlayer="true"
     inkscape:showpageshadow="true">
    <sodipodi:guide
       position="364.60193,97.77961"
       orientation="1,0"
       id="guide4319" />
    <sodipodi:guide
       position="145.84077,88.388348"
       orientation="1,0"
       id="guide4321" />
    <sodipodi:guide
       position="105.5,47.25"
       orientation="0,1"
       id="guide4323" />
  </sodipodi:namedview>
  <metadata
     id="metadata7">
    <rdf:RDF>
      <cc:Work
         rdf:about="">
        <dc:format>image/svg+xml</dc:format>
        <dc:type
           rdf:resource="http://purl.org/dc/dcmitype/StillImage" />
        <dc:title></dc:title>
      </cc:Work>
    </rdf:RDF>
  </metadata>
  <g
     inkscape:label="Layer 1"
     inkscape:groupmode="layer"
     id="layer1"
     transform="translate(0,-452.36216)"
     style="opacity:1;">
    <g
       transform="scale(0.99730031,1.002707)"
       style="font-style:normal;font-variant:normal;font-weight:normal;font-stretch:normal;font-size:55.24333191px;line-height:124.00000095%;font-family:'URW Gothic L';-inkscape-font-specification:'URW Gothic L';letter-spacing:0px;word-spacing:0px;fill:#005daa;fill-opacity:1;stroke:#005daa;stroke-width:2;stroke-linecap:butt;stroke-linejoin:miter;stroke-miterlimit:4;stroke-dasharray:none;stroke-opacity:1"
       id="text4246" />
    <circle
       style="fill:#12437b;fill-opacity:1;fill-rule:evenodd;stroke:#002642;stroke-width:0;stroke-linecap:butt;stroke-linejoin:miter;stroke-miterlimit:4;stroke-dasharray:none;stroke-opacity:1"
       id="path4151"
       cx="300.81918"
       cy="752.73053"
       r="291.06918" />
    <text
       xml:space="preserve"
       style="font-style:normal;font-weight:normal;font-size:28.34645653px;line-height:124.00000095%;font-family:sans-serif;letter-spacing:0px;word-spacing:0px;fill:#000000;fill-opacity:1;stroke:none;stroke-width:1px;stroke-linecap:butt;stroke-linejoin:miter;stroke-opacity:1"
       x="661.04266"
       y="514.05951"
       id="text4212"
       sodipodi:linespacing="124%"><tspan
         sodipodi:role="line"
         id="tspan4214"
         x="661.04266"
         y="514.05951" /></text>
    <path
       inkscape:connector-curvature="0"
       id="path4167"
       d="m 69.958046,929.66557 a 291.06918,291.06918 0 0 0 2.85773,3.9976 291.06918,291.06918 0 0 0 19.20273,21.8578 291.06918,291.06918 0 0 0 21.289034,19.8314 291.06918,291.06918 0 0 0 23.16119,17.607 291.06918,291.06918 0 0 0 24.80536,15.20743 291.06918,291.06918 0 0 0 26.19852,12.6559 291.06918,291.06918 0 0 0 27.32919,9.9779 291.06918,291.06918 0 0 0 28.19041,7.1961 291.06918,291.06918 0 0 0 28.76843,4.3499 291.06918,291.06918 0 0 0 29.05855,1.4531 291.06918,291.06918 0 0 0 20.58898,-0.73 291.06918,291.06918 0 0 0 28.8836,-3.5048 291.06918,291.06918 0 0 0 28.3884,-6.3717 291.06918,291.06918 0 0 0 27.6102,-9.1743 291.06918,291.06918 0 0 0 26.5577,-11.8845 291.06918,291.06918 0 0 0 25.236,-14.47739 291.06918,291.06918 0 0 0 23.6678,-16.92304 291.06918,291.06918 0 0 0 21.8578,-19.2028 291.06918,291.06918 0 0 0 19.8314,-21.289 291.06918,291.06918 0 0 0 17.6069,-23.1612 291.06918,291.06918 0 0 0 15.2075,-24.8053 291.06918,291.06918 0 0 0 12.6559,-26.1986 291.06918,291.06918 0 0 0 9.9779,-27.3292 291.06918,291.06918 0 0 0 7.1961,-28.1904 291.06918,291.06918 0 0 0 4.35,-28.7684 291.06918,291.06918 0 0 0 1.453,-29.0585 291.06918,291.06918 0 0 0 -0.73,-20.58905 291.06918,291.06918 0 0 0 -3.5048,-28.88355 291.06918,291.06918 0 0 0 -6.3717,-28.38845 291.06918,291.06918 0 0 0 -9.1742,-27.61012 291.06918,291.06918 0 0 0 -11.8846,-26.55776 291.06918,291.06918 0 0 0 -14.4775,-25.23598 291.06918,291.06918 0 0 0 -16.6973,-23.35002 550.82079,550.82079 0 0 0 -459.090224,357.54993 z"
       style="opacity:1;fill:url(#linearGradient4169);fill-opacity:1;fill-rule:evenodd;stroke:#101318;stroke-width:0;stroke-linecap:butt;stroke-linejoin:miter;stroke-miterlimit:4;stroke-dasharray:none;stroke-opacity:1;enable-background:new" />
    <path
       style="opacity:1;fill:#ffffff;fill-opacity:1;stroke:#ff8f4b;stroke-width:7;stroke-linecap:round;stroke-miterlimit:4;stroke-dasharray:none;stroke-opacity:1;enable-background:new"
       d="m 458.50375,617.68264 0,340.10945 -315.36915,0 0,-410.12312 245.35548,0 70.01367,70.01367 z"
       id="path4963"
       inkscape:connector-curvature="0" />
    <path
       style="opacity:1;fill:#526373;fill-opacity:1;stroke:#00ddea;stroke-width:0;stroke-linecap:butt;stroke-miterlimit:4;stroke-dasharray:none;stroke-opacity:1;enable-background:new"
       d="m 397.31918,620.35626 0,14.99999 -149.31515,0 0,-14.99999 149.31515,0 z"
       id="path4197"
       inkscape:connector-curvature="0" />
    <path
       style="opacity:1;fill:#526373;fill-opacity:1;stroke:#00ddea;stroke-width:0;stroke-linecap:butt;stroke-miterlimit:4;stroke-dasharray:none;stroke-opacity:1;enable-background:new"
       d="m 363.31918,650.35626 0,14.99999 -116,0 0,-14.99999 116,0 z"
       id="path4195"
       inkscape:connector-curvature="0" />
    <path
       style="opacity:1;fill:#526373;fill-opacity:1;stroke:#00ddea;stroke-width:0;stroke-linecap:butt;stroke-miterlimit:4;stroke-dasharray:none;stroke-opacity:1;enable-background:new"
       d="m 245.19531,692.52252 0,15 176.12305,0 0,-15 -176.12305,0 z m 0,22.15821 0,15 136.16602,0 0,-15 -136.16602,0 z"
       id="path4193"
       inkscape:connector-curvature="0" />
    <path
       style="opacity:1;fill:#ff7d53;fill-opacity:1;fill-rule:evenodd;stroke:#ff7200;stroke-width:0;stroke-linecap:butt;stroke-linejoin:miter;stroke-miterlimit:4;stroke-dasharray:none;stroke-opacity:1;enable-background:new"
       d="m 204.27409,686.22942 a 24.872224,24.872224 0 0 0 -24.87195,24.87194 24.872224,24.872224 0 0 0 24.87195,24.87247 24.872224,24.872224 0 0 0 24.87247,-24.87247 24.872224,24.872224 0 0 0 -24.87247,-24.87194 z m 0,2.91296 a 21.959261,21.959261 0 0 1 2.19266,0.10963 21.959261,21.959261 0 0 1 2.1699,0.32784 21.959261,21.959261 0 0 1 2.12699,0.5434 21.959261,21.959261 0 0 1 2.06185,0.75261 21.959261,21.959261 0 0 1 1.97658,0.95439 21.959261,21.959261 0 0 1 1.87171,1.14771 21.959261,21.959261 0 0 1 1.74725,1.32831 21.959261,21.959261 0 0 1 1.60584,1.4962 21.959261,21.959261 0 0 1 1.44906,1.64874 21.959261,21.959261 0 0 1 1.27641,1.78591 21.959261,21.959261 0 0 1 1.0921,1.90349 21.959261,21.959261 0 0 1 0.89666,2.00359 21.959261,21.959261 0 0 1 0.69222,2.08303 21.959261,21.959261 0 0 1 0.48091,2.14183 21.959261,21.959261 0 0 1 0.26428,2.17889 21.959261,21.959261 0 0 1 0.0551,1.55341 21.959261,21.959261 0 0 1 -0.10963,2.19267 21.959261,21.959261 0 0 1 -0.32784,2.17042 21.959261,21.959261 0 0 1 -0.5434,2.12647 21.959261,21.959261 0 0 1 -0.7526,2.06184 21.959261,21.959261 0 0 1 -0.95493,1.97658 21.959261,21.959261 0 0 1 -1.14718,1.87118 21.959261,21.959261 0 0 1 -0.83628,1.10058 17.658582,11.748041 0 0 0 -17.28182,-9.4772 17.658582,11.748041 0 0 0 -17.30354,9.49255 21.959261,21.959261 0 0 1 -1.18001,-1.65033 21.959261,21.959261 0 0 1 -1.0921,-1.90401 21.959261,21.959261 0 0 1 -0.89666,-2.00359 21.959261,21.959261 0 0 1 -0.69223,-2.08304 21.959261,21.959261 0 0 1 -0.4809,-2.14182 21.959261,21.959261 0 0 1 -0.26429,-2.1789 21.959261,21.959261 0 0 1 -0.0551,-1.5534 21.959261,21.959261 0 0 1 0.10963,-2.19214 21.959261,21.959261 0 0 1 0.32784,-2.17042 21.959261,21.959261 0 0 1 0.5434,-2.12646 21.959261,21.959261 0 0 1 0.75261,-2.06185 21.959261,21.959261 0 0 1 0.95492,-1.97658 21.959261,21.959261 0 0 1 1.14718,-1.87172 21.959261,21.959261 0 0 1 1.32831,-1.74724 21.959261,21.959261 0 0 1 1.4962,-1.60584 21.959261,21.959261 0 0 1 1.64927,-1.44907 21.959261,21.959261 0 0 1 1.78538,-1.27641 21.959261,21.959261 0 0 1 1.90402,-1.09262 21.959261,21.959261 0 0 1 2.00359,-0.89614 21.959261,21.959261 0 0 1 2.08303,-0.69222 21.959261,21.959261 0 0 1 2.14183,-0.4809 21.959261,21.959261 0 0 1 2.17889,-0.26429 21.959261,21.959261 0 0 1 1.55288,-0.0551 z m 0.006,8.71983 a 8.49521,7.9814938 0 0 0 -8.49579,7.98151 8.49521,7.9814938 0 0 0 8.49579,7.98153 8.49521,7.9814938 0 0 0 8.49526,-7.98153 8.49521,7.9814938 0 0 0 -8.49526,-7.98151 z"
       id="path4271"
       inkscape:connector-curvature="0" />
    <path
       style="opacity:1;fill:#ff5d32;fill-opacity:1;stroke:#ff5d32;stroke-width:7;stroke-linecap:round;stroke-miterlimit:4;stroke-dasharray:none;stroke-opacity:1;enable-background:new"
       d="m 392.02562,552.61872 61.52839,61.5284 -61.52839,0 0,-61.5284 z"
       id="rect4886"
       inkscape:connector-curvature="0" />
    <path
       inkscape:connector-curvature="0"
       id="path4212"
       d="m 204.27409,750.22942 a 24.872224,24.872224 0 0 0 -24.87195,24.87194 24.872224,24.872224 0 0 0 24.87195,24.87247 24.872224,24.872224 0 0 0 24.87247,-24.87247 24.872224,24.872224 0 0 0 -24.87247,-24.87194 z m 0,2.91296 a 21.959261,21.959261 0 0 1 2.19266,0.10963 21.959261,21.959261 0 0 1 2.1699,0.32784 21.959261,21.959261 0 0 1 2.12699,0.5434 21.959261,21.959261 0 0 1 2.06185,0.75261 21.959261,21.959261 0 0 1 1.97658,0.95439 21.959261,21.959261 0 0 1 1.87171,1.14771 21.959261,21.959261 0 0 1 1.74725,1.32831 21.959261,21.959261 0 0 1 1.60584,1.4962 21.959261,21.959261 0 0 1 1.44906,1.64874 21.959261,21.959261 0 0 1 1.27641,1.78591 21.959261,21.959261 0 0 1 1.0921,1.90349 21.959261,21.959261 0 0 1 0.89666,2.00359 21.959261,21.959261 0 0 1 0.69222,2.08303 21.959261,21.959261 0 0 1 0.48091,2.14183 21.959261,21.959261 0 0 1 0.26428,2.17889 21.959261,21.959261 0 0 1 0.0551,1.55341 21.959261,21.959261 0 0 1 -0.10963,2.19267 21.959261,21.959261 0 0 1 -0.32784,2.17042 21.959261,21.959261 0 0 1 -0.5434,2.12647 21.959261,21.959261 0 0 1 -0.7526,2.06184 21.959261,21.959261 0 0 1 -0.95493,1.97658 21.959261,21.959261 0 0 1 -1.14718,1.87118 21.959261,21.959261 0 0 1 -0.83628,1.10058 17.658582,11.748041 0 0 0 -17.28182,-9.4772 17.658582,11.748041 0 0 0 -17.30354,9.49255 21.959261,21.959261 0 0 1 -1.18001,-1.65033 21.959261,21.959261 0 0 1 -1.0921,-1.90401 21.959261,21.959261 0 0 1 -0.89666,-2.00359 21.959261,21.959261 0 0 1 -0.69223,-2.08304 21.959261,21.959261 0 0 1 -0.4809,-2.14182 21.959261,21.959261 0 0 1 -0.26429,-2.1789 21.959261,21.959261 0 0 1 -0.0551,-1.5534 21.959261,21.959261 0 0 1 0.10963,-2.19214 21.959261,21.959261 0 0 1 0.32784,-2.17042 21.959261,21.959261 0 0 1 0.5434,-2.12646 21.959261,21.959261 0 0 1 0.75261,-2.06185 21.959261,21.959261 0 0 1 0.95492,-1.97658 21.959261,21.959261 0 0 1 1.14718,-1.87172 21.959261,21.959261 0 0 1 1.32831,-1.74724 21.959261,21.959261 0 0 1 1.4962,-1.60584 21.959261,21.959261 0 0 1 1.64927,-1.44907 21.959261,21.959261 0 0 1 1.78538,-1.27641 21.959261,21.959261 0 0 1 1.90402,-1.09262 21.959261,21.959261 0 0 1 2.00359,-0.89614 21.959261,21.959261 0 0 1 2.08303,-0.69222 21.959261,21.959261 0 0 1 2.14183,-0.4809 21.959261,21.959261 0 0 1 2.17889,-0.26429 21.959261,21.959261 0 0 1 1.55288,-0.0551 z m 0.006,8.71983 a 8.49521,7.9814938 0 0 0 -8.49579,7.98151 8.49521,7.9814938 0 0 0 8.49579,7.98153 8.49521,7.9814938 0 0 0 8.49526,-7.98153 8.49521,7.9814938 0 0 0 -8.49526,-7.98151 z"
       style="opacity:1;fill:#ff7d53;fill-opacity:1;fill-rule:evenodd;stroke:#ff7200;stroke-width:0;stroke-linecap:butt;stroke-linejoin:miter;stroke-miterlimit:4;stroke-dasharray:none;stroke-opacity:1;enable-background:new" />
    <path
       style="opacity:1;fill:#526373;fill-opacity:1;stroke:#00ddea;stroke-width:0;stroke-linecap:butt;stroke-miterlimit:4;stroke-dasharray:none;stroke-opacity:1;enable-background:new"
       d="m 245.19531,756.52155 0,15 176.12305,0 0,-15 -176.12305,0 z m 0,22.16016 0,15 89.69727,0 0,-15 -89.69727,0 z"
       id="path4214"
       inkscape:connector-curvature="0" />
    <path
       style="opacity:1;fill:#ff7d53;fill-opacity:1;fill-rule:evenodd;stroke:#ff7200;stroke-width:0;stroke-linecap:butt;stroke-linejoin:miter;stroke-miterlimit:4;stroke-dasharray:none;stroke-opacity:1;enable-background:new"
       d="m 204.27409,814.22942 a 24.872224,24.872224 0 0 0 -24.87195,24.87194 24.872224,24.872224 0 0 0 24.87195,24.87247 24.872224,24.872224 0 0 0 24.87247,-24.87247 24.872224,24.872224 0 0 0 -24.87247,-24.87194 z m 0,2.91296 a 21.959261,21.959261 0 0 1 2.19266,0.10963 21.959261,21.959261 0 0 1 2.1699,0.32784 21.959261,21.959261 0 0 1 2.12699,0.5434 21.959261,21.959261 0 0 1 2.06185,0.75261 21.959261,21.959261 0 0 1 1.97658,0.95439 21.959261,21.959261 0 0 1 1.87171,1.14771 21.959261,21.959261 0 0 1 1.74725,1.32831 21.959261,21.959261 0 0 1 1.60584,1.4962 21.959261,21.959261 0 0 1 1.44906,1.64874 21.959261,21.959261 0 0 1 1.27641,1.78591 21.959261,21.959261 0 0 1 1.0921,1.90349 21.959261,21.959261 0 0 1 0.89666,2.00359 21.959261,21.959261 0 0 1 0.69222,2.08303 21.959261,21.959261 0 0 1 0.48091,2.14183 21.959261,21.959261 0 0 1 0.26428,2.17889 21.959261,21.959261 0 0 1 0.0551,1.55341 21.959261,21.959261 0 0 1 -0.10963,2.19267 21.959261,21.959261 0 0 1 -0.32784,2.17042 21.959261,21.959261 0 0 1 -0.5434,2.12647 21.959261,21.959261 0 0 1 -0.7526,2.06184 21.959261,21.959261 0 0 1 -0.95493,1.97658 21.959261,21.959261 0 0 1 -1.14718,1.87118 21.959261,21.959261 0 0 1 -0.83628,1.10058 17.658582,11.748041 0 0 0 -17.28182,-9.4772 17.658582,11.748041 0 0 0 -17.30354,9.49255 21.959261,21.959261 0 0 1 -1.18001,-1.65033 21.959261,21.959261 0 0 1 -1.0921,-1.90401 21.959261,21.959261 0 0 1 -0.89666,-2.00359 21.959261,21.959261 0 0 1 -0.69223,-2.08304 21.959261,21.959261 0 0 1 -0.4809,-2.14182 21.959261,21.959261 0 0 1 -0.26429,-2.1789 21.959261,21.959261 0 0 1 -0.0551,-1.5534 21.959261,21.959261 0 0 1 0.10963,-2.19214 21.959261,21.959261 0 0 1 0.32784,-2.17042 21.959261,21.959261 0 0 1 0.5434,-2.12646 21.959261,21.959261 0 0 1 0.75261,-2.06185 21.959261,21.959261 0 0 1 0.95492,-1.97658 21.959261,21.959261 0 0 1 1.14718,-1.87172 21.959261,21.959261 0 0 1 1.32831,-1.74724 21.959261,21.959261 0 0 1 1.4962,-1.60584 21.959261,21.959261 0 0 1 1.64927,-1.44907 21.959261,21.959261 0 0 1 1.78538,-1.27641 21.959261,21.959261 0 0 1 1.90402,-1.09262 21.959261,21.959261 0 0 1 2.00359,-0.89614 21.959261,21.959261 0 0 1 2.08303,-0.69222 21.959261,21.959261 0 0 1 2.14183,-0.4809 21.959261,21.959261 0 0 1 2.17889,-0.26429 21.959261,21.959261 0 0 1 1.55288,-0.0551 z m 0.006,8.71983 a 8.49521,7.9814938 0 0 0 -8.49579,7.98151 8.49521,7.9814938 0 0 0 8.49579,7.98153 8.49521,7.9814938 0 0 0 8.49526,-7.98153 8.49521,7.9814938 0 0 0 -8.49526,-7.98151 z"
       id="path4219"
       inkscape:connector-curvature="0" />
    <path
       style="opacity:1;fill:#526373;fill-opacity:1;stroke:#00ddea;stroke-width:0;stroke-linecap:butt;stroke-miterlimit:4;stroke-dasharray:none;stroke-opacity:1;enable-background:new"
       d="m 245.19531,820.52155 0,15 176.12305,0 0,-15 -176.12305,0 z"
       id="path4225" />
    <path
       style="opacity:1;fill:#526373;fill-opacity:1;stroke:#00ddea;stroke-width:0;stroke-linecap:butt;stroke-miterlimit:4;stroke-dasharray:none;stroke-opacity:1;enable-background:new"
       d="m 245.19531,842.68171 0,15 145.80699,0 0,-15 -145.80699,0 z"
       id="path4221"
       inkscape:connector-curvature="0" />
    <path
       inkscape:connector-curvature="0"
       id="path4227"
       d="m 204.27409,878.22942 a 24.872224,24.872224 0 0 0 -24.87195,24.87194 24.872224,24.872224 0 0 0 24.87195,24.87247 24.872224,24.872224 0 0 0 24.87247,-24.87247 24.872224,24.872224 0 0 0 -24.87247,-24.87194 z m 0,2.91296 a 21.959261,21.959261 0 0 1 2.19266,0.10963 21.959261,21.959261 0 0 1 2.1699,0.32784 21.959261,21.959261 0 0 1 2.12699,0.5434 21.959261,21.959261 0 0 1 2.06185,0.75261 21.959261,21.959261 0 0 1 1.97658,0.95439 21.959261,21.959261 0 0 1 1.87171,1.14771 21.959261,21.959261 0 0 1 1.74725,1.32831 21.959261,21.959261 0 0 1 1.60584,1.4962 21.959261,21.959261 0 0 1 1.44906,1.64874 21.959261,21.959261 0 0 1 1.27641,1.78591 21.959261,21.959261 0 0 1 1.0921,1.90349 21.959261,21.959261 0 0 1 0.89666,2.00359 21.959261,21.959261 0 0 1 0.69222,2.08303 21.959261,21.959261 0 0 1 0.48091,2.14183 21.959261,21.959261 0 0 1 0.26428,2.17889 21.959261,21.959261 0 0 1 0.0551,1.55341 21.959261,21.959261 0 0 1 -0.10963,2.19267 21.959261,21.959261 0 0 1 -0.32784,2.17042 21.959261,21.959261 0 0 1 -0.5434,2.12647 21.959261,21.959261 0 0 1 -0.7526,2.06184 21.959261,21.959261 0 0 1 -0.95493,1.97658 21.959261,21.959261 0 0 1 -1.14718,1.87118 21.959261,21.959261 0 0 1 -0.83628,1.10058 17.658582,11.748041 0 0 0 -17.28182,-9.4772 17.658582,11.748041 0 0 0 -17.30354,9.49255 21.959261,21.959261 0 0 1 -1.18001,-1.65033 21.959261,21.959261 0 0 1 -1.0921,-1.90401 21.959261,21.959261 0 0 1 -0.89666,-2.00359 21.959261,21.959261 0 0 1 -0.69223,-2.08304 21.959261,21.959261 0 0 1 -0.4809,-2.14182 21.959261,21.959261 0 0 1 -0.26429,-2.1789 21.959261,21.959261 0 0 1 -0.0551,-1.5534 21.959261,21.959261 0 0 1 0.10963,-2.19214 21.959261,21.959261 0 0 1 0.32784,-2.17042 21.959261,21.959261 0 0 1 0.5434,-2.12646 21.959261,21.959261 0 0 1 0.75261,-2.06185 21.959261,21.959261 0 0 1 0.95492,-1.97658 21.959261,21.959261 0 0 1 1.14718,-1.87172 21.959261,21.959261 0 0 1 1.32831,-1.74724 21.959261,21.959261 0 0 1 1.4962,-1.60584 21.959261,21.959261 0 0 1 1.64927,-1.44907 21.959261,21.959261 0 0 1 1.78538,-1.27641 21.959261,21.959261 0 0 1 1.90402,-1.09262 21.959261,21.959261 0 0 1 2.00359,-0.89614 21.959261,21.959261 0 0 1 2.08303,-0.69222 21.959261,21.959261 0 0 1 2.14183,-0.4809 21.959261,21.959261 0 0 1 2.17889,-0.26429 21.959261,21.959261 0 0 1 1.55288,-0.0551 z m 0.006,8.71983 a 8.49521,7.9814938 0 0 0 -8.49579,7.98151 8.49521,7.9814938 0 0 0 8.49579,7.98153 8.49521,7.9814938 0 0 0 8.49526,-7.98153 8.49521,7.9814938 0 0 0 -8.49526,-7.98151 z"
       style="opacity:1;fill:#ff7d53;fill-opacity:1;fill-rule:evenodd;stroke:#ff7200;stroke-width:0;stroke-linecap:butt;stroke-linejoin:miter;stroke-miterlimit:4;stroke-dasharray:none;stroke-opacity:1;enable-background:new" />
    <path
       id="path4229"
       d="m 245.19531,884.52155 0,15 176.12305,0 0,-15 -176.12305,0 z"
       style="opacity:1;fill:#526373;fill-opacity:1;stroke:#00ddea;stroke-width:0;stroke-linecap:butt;stroke-miterlimit:4;stroke-dasharray:none;stroke-opacity:1;enable-background:new"
       inkscape:connector-curvature="0" />
    <path
       inkscape:connector-curvature="0"
       id="path4231"
       d="m 245.19531,906.68171 0,15 126.51927,0 0,-15 -126.51927,0 z"
       style="opacity:1;fill:#526373;fill-opacity:1;stroke:#00ddea;stroke-width:0;stroke-linecap:butt;stroke-miterlimit:4;stroke-dasharray:none;stroke-opacity:1;enable-background:new" />
    <path
       inkscape:connector-curvature="0"
       style="font-style:normal;font-variant:normal;font-weight:bold;font-stretch:normal;font-size:224.18746948px;line-height:124.00000095%;font-family:sans-serif;-inkscape-font-specification:'sans-serif Bold';letter-spacing:0px;word-spacing:0px;opacity:1;fill:#12437b;fill-opacity:1;stroke:#ffffff;stroke-width:0;stroke-linecap:butt;stroke-linejoin:miter;stroke-miterlimit:4;stroke-dasharray:none;stroke-opacity:1;enable-background:new"
       d="m 240.22705,598.48979 -12.4871,-0.076 c -0.77809,-1.45678 -1.71376,-2.77708 -2.81339,-3.94789 -3.78472,-4.08847 -9.24862,-6.15383 -16.39552,-6.19777 l -24.03799,-0.14773 -0.0652,10.02909 -12.4326,-0.0812 -0.0494,7.13664 12.43455,0.0796 -0.0692,10.33247 -12.43459,-0.0795 -0.0479,7.13858 12.43653,0.0781 -0.24845,37.04743 14.48293,0.0879 0.16626,-24.86835 9.54997,0.0576 c 7.14686,0.0439 12.6446,-1.93695 16.48309,-5.94658 1.64372,-1.71931 2.9363,-3.75964 3.88984,-6.10887 l 11.47748,0.0697 0.0474,-7.13508 -9.78537,-0.0582 c 0.14816,-1.30793 0.2284,-2.67917 0.23783,-4.11364 0.0149,-2.22685 -0.14595,-4.29605 -0.47229,-6.21937 l 10.08712,0.0603 0.0458,-7.13699 z m -26.83802,5.7977 c 0.75892,0.86907 1.32456,1.92179 1.69911,3.1561 0.3746,1.23431 0.55681,2.65104 0.54617,4.25142 -0.0104,1.60044 -0.21211,3.01964 -0.60312,4.25779 -0.39098,1.23819 -0.97218,2.29485 -1.74291,3.17041 -0.77052,0.85949 -1.69863,1.50414 -2.786,1.92935 -1.08741,0.42523 -2.33347,0.62891 -3.73772,0.62031 l -8.01031,-0.049 0.13191,-20.02028 8.01027,0.0489 c 1.40435,0.008 2.64922,0.23415 3.73111,0.67321 1.08193,0.43908 2.00239,1.09276 2.76152,1.96168 z"
       id="path4206-3-6" />
  </g>
</svg>
