<?xml version="1.0" encoding="UTF-8" standalone="no"?>
<!-- Created with Inkscape (http://www.inkscape.org/) -->

<svg
   xmlns:dc="http://purl.org/dc/elements/1.1/"
   xmlns:cc="http://creativecommons.org/ns#"
   xmlns:rdf="http://www.w3.org/1999/02/22-rdf-syntax-ns#"
   xmlns:svg="http://www.w3.org/2000/svg"
   xmlns="http://www.w3.org/2000/svg"
   xmlns:xlink="http://www.w3.org/1999/xlink"
   xmlns:sodipodi="http://sodipodi.sourceforge.net/DTD/sodipodi-0.dtd"
   xmlns:inkscape="http://www.inkscape.org/namespaces/inkscape"
   width="600"
   height="600"
   viewBox="0 0 600 600"
   id="svg2"
   version="1.1"
   inkscape:version="0.91 r13725"
   sodipodi:docname="Loan-payment-icon.svg"
   style="enable-background:new"
   enable-background="new">
  <defs
     id="defs4">
    <filter
       style="color-interpolation-filters:sRGB"
       inkscape:label="Drop Shadow"
       id="filter4199">
      <feFlood
         flood-opacity="1"
         flood-color="rgb(0,0,0)"
         result="flood"
         id="feFlood4201" />
      <feComposite
         in="flood"
         in2="SourceGraphic"
         operator="out"
         result="composite1"
         id="feComposite4203" />
      <feGaussianBlur
         in="composite1"
         stdDeviation="2"
         result="blur"
         id="feGaussianBlur4205" />
      <feOffset
         dx="0"
         dy="0"
         result="offset"
         id="feOffset4207" />
      <feComposite
         in="offset"
         in2="SourceGraphic"
         operator="atop"
         result="composite2"
         id="feComposite4209" />
    </filter>
    <linearGradient
       inkscape:collect="always"
       id="linearGradient4155">
      <stop
         style="stop-color:#001e3a;stop-opacity:1"
         offset="0"
         id="stop4157" />
      <stop
         style="stop-color:#12437b;stop-opacity:1"
         offset="1"
         id="stop4159" />
    </linearGradient>
    <linearGradient
       inkscape:collect="always"
       xlink:href="#linearGradient4155"
       id="linearGradient4169"
       gradientUnits="userSpaceOnUse"
       gradientTransform="translate(1.6477278e-5,3.4148255e-5)"
       x1="309.71143"
       y1="1044.3965"
       x2="309.04565"
       y2="571.5188" />
  </defs>
  <sodipodi:namedview
     id="base"
     pagecolor="#ffffff"
     bordercolor="#666666"
     borderopacity="1.0"
     inkscape:pageopacity="0.0"
     inkscape:pageshadow="2"
     inkscape:zoom="0.80654176"
     inkscape:cx="201.06941"
     inkscape:cy="223.13291"
     inkscape:document-units="px"
     inkscape:current-layer="layer1"
     showgrid="false"
     units="px"
     inkscape:window-width="1600"
     inkscape:window-height="824"
     inkscape:window-x="0"
     inkscape:window-y="24"
     inkscape:window-maximized="1"
     showguides="false"
     inkscape:guide-bbox="true"
     borderlayer="true"
     inkscape:showpageshadow="true">
    <sodipodi:guide
       position="364.60193,97.77961"
       orientation="1,0"
       id="guide4319" />
    <sodipodi:guide
       position="145.84077,88.388348"
       orientation="1,0"
       id="guide4321" />
    <sodipodi:guide
       position="105.5,47.25"
       orientation="0,1"
       id="guide4323" />
  </sodipodi:namedview>
  <metadata
     id="metadata7">
    <rdf:RDF>
      <cc:Work
         rdf:about="">
        <dc:format>image/svg+xml</dc:format>
        <dc:type
           rdf:resource="http://purl.org/dc/dcmitype/StillImage" />
        <dc:title></dc:title>
      </cc:Work>
    </rdf:RDF>
  </metadata>
  <g
     inkscape:label="Layer 1"
     inkscape:groupmode="layer"
     id="layer1"
     transform="translate(0,-452.36216)"
     style="opacity:1;">
    <g
       transform="scale(0.99730031,1.002707)"
       style="font-style:normal;font-variant:normal;font-weight:normal;font-stretch:normal;font-size:55.24333191px;line-height:124.00000095%;font-family:'URW Gothic L';-inkscape-font-specification:'URW Gothic L';letter-spacing:0px;word-spacing:0px;fill:#005daa;fill-opacity:1;stroke:#005daa;stroke-width:2;stroke-linecap:butt;stroke-linejoin:miter;stroke-miterlimit:4;stroke-dasharray:none;stroke-opacity:1"
       id="text4246" />
    <circle
       style="fill:#12437b;fill-opacity:1;fill-rule:evenodd;stroke:#002642;stroke-width:0;stroke-linecap:butt;stroke-linejoin:miter;stroke-miterlimit:4;stroke-dasharray:none;stroke-opacity:1"
       id="path4151"
       cx="300.81918"
       cy="752.73053"
       r="291.06918" />
    <text
       xml:space="preserve"
       style="font-style:normal;font-weight:normal;font-size:28.34645653px;line-height:124.00000095%;font-family:sans-serif;letter-spacing:0px;word-spacing:0px;fill:#000000;fill-opacity:1;stroke:none;stroke-width:1px;stroke-linecap:butt;stroke-linejoin:miter;stroke-opacity:1"
       x="661.04266"
       y="514.05951"
       id="text4212"
       sodipodi:linespacing="124%"><tspan
         sodipodi:role="line"
         id="tspan4214"
         x="661.04266"
         y="514.05951" /></text>
    <path
       inkscape:connector-curvature="0"
       id="path4167"
       d="m 69.958046,929.66557 a 291.06918,291.06918 0 0 0 2.85773,3.9976 291.06918,291.06918 0 0 0 19.20273,21.8578 291.06918,291.06918 0 0 0 21.289034,19.8314 291.06918,291.06918 0 0 0 23.16119,17.607 291.06918,291.06918 0 0 0 24.80536,15.20743 291.06918,291.06918 0 0 0 26.19852,12.6559 291.06918,291.06918 0 0 0 27.32919,9.9779 291.06918,291.06918 0 0 0 28.19041,7.1961 291.06918,291.06918 0 0 0 28.76843,4.3499 291.06918,291.06918 0 0 0 29.05855,1.4531 291.06918,291.06918 0 0 0 20.58898,-0.73 291.06918,291.06918 0 0 0 28.8836,-3.5048 291.06918,291.06918 0 0 0 28.3884,-6.3717 291.06918,291.06918 0 0 0 27.6102,-9.1743 291.06918,291.06918 0 0 0 26.5577,-11.8845 291.06918,291.06918 0 0 0 25.236,-14.47739 291.06918,291.06918 0 0 0 23.6678,-16.92304 291.06918,291.06918 0 0 0 21.8578,-19.2028 291.06918,291.06918 0 0 0 19.8314,-21.289 291.06918,291.06918 0 0 0 17.6069,-23.1612 291.06918,291.06918 0 0 0 15.2075,-24.8053 291.06918,291.06918 0 0 0 12.6559,-26.1986 291.06918,291.06918 0 0 0 9.9779,-27.3292 291.06918,291.06918 0 0 0 7.1961,-28.1904 291.06918,291.06918 0 0 0 4.35,-28.7684 291.06918,291.06918 0 0 0 1.453,-29.0585 291.06918,291.06918 0 0 0 -0.73,-20.58905 291.06918,291.06918 0 0 0 -3.5048,-28.88355 291.06918,291.06918 0 0 0 -6.3717,-28.38845 291.06918,291.06918 0 0 0 -9.1742,-27.61012 291.06918,291.06918 0 0 0 -11.8846,-26.55776 291.06918,291.06918 0 0 0 -14.4775,-25.23598 291.06918,291.06918 0 0 0 -16.6973,-23.35002 550.82079,550.82079 0 0 0 -459.090224,357.54993 z"
       style="opacity:1;fill:url(#linearGradient4169);fill-opacity:1;fill-rule:evenodd;stroke:#101318;stroke-width:0;stroke-linecap:butt;stroke-linejoin:miter;stroke-miterlimit:4;stroke-dasharray:none;stroke-opacity:1;enable-background:new" />
    <path
       inkscape:connector-curvature="0"
       style="font-style:normal;font-variant:normal;font-weight:bold;font-stretch:normal;font-size:224.18746948px;line-height:124.00000095%;font-family:sans-serif;-inkscape-font-specification:'sans-serif Bold';letter-spacing:0px;word-spacing:0px;opacity:1;fill:#ffb278;fill-opacity:1;stroke:#ffffff;stroke-width:0;stroke-linecap:butt;stroke-linejoin:miter;stroke-miterlimit:4;stroke-dasharray:none;stroke-opacity:1;enable-background:new"
       d="m 292.10679,550.1083 c -0.21007,0.0892 -0.29068,0.25951 -0.37192,0.47539 -0.36446,0.96847 -31.92044,94.82317 -44.31061,131.78913 -4.25715,12.70125 -7.54646,23.24861 -7.31053,23.43553 0.23599,0.18701 9.58965,1.6874 20.78901,3.33677 23.39351,3.4452 28.50156,5.14076 33.88651,11.24906 8.78589,9.96601 8.5213,25.2963 -0.60283,34.92167 -2.68665,2.83416 -4.218,3.78009 -9.02352,5.56376 -5.18748,1.92526 -7.89264,2.25094 -26.04949,3.11951 -11.14353,0.5331 -20.31746,1.09473 -20.38471,1.24862 -0.0673,0.15393 4.48953,1.88902 10.1257,3.85419 13.43333,4.68392 52.84283,18.61595 68.61342,24.25716 6.85116,2.45069 12.64622,4.3928 12.87775,4.31465 0.23203,-0.0768 1.60445,-3.70897 3.05163,-8.06874 3.6974,-11.13899 22.31075,-66.6201 34.62793,-103.21302 30.99857,-92.09346 32.68758,-97.2175 32.33756,-98.11011 -0.33351,-0.83711 -27.25462,-10.62569 -62.03618,-22.55149 -4.75351,-1.62993 -16.29057,-5.686 -25.638,-9.01538 -16.32546,-5.81488 -19.66975,-6.98897 -20.58172,-6.6067 z m 4.06347,88.92969 c 1.91655,-0.69222 3.89809,-1.21489 5.9192,-1.57313 2.02109,-0.35822 4.07948,-0.55083 6.15452,-0.58394 2.07504,-0.0331 4.16673,0.094 6.24513,0.37708 2.07839,0.28311 4.14574,0.72078 6.17689,1.31122 2.03117,0.59045 4.02474,1.33478 5.95806,2.22367 1.93334,0.88889 3.80497,1.9229 5.58992,3.10137 1.78491,1.17846 3.48343,2.49891 5.06936,3.95806 1.58592,1.45914 3.06047,3.05844 4.39681,4.78941 1.31319,1.70095 2.49824,3.59928 3.52991,5.61586 1.03168,2.01657 1.90791,4.1511 2.60492,6.31818 0.69702,2.16707 1.21416,4.36748 1.52335,6.5199 0.3092,2.15242 0.4118,4.25667 0.28003,6.22931 -0.18603,2.78554 -0.69396,5.50455 -1.49726,8.11231 -0.80329,2.60776 -1.90227,5.10511 -3.26882,7.44289 -1.36657,2.33778 -3.00282,4.51612 -4.87866,6.49173 -1.87584,1.97561 -3.9896,3.74782 -6.32074,5.26907 -2.46146,1.6062 -5.46249,3.25375 -6.66962,3.6624 -1.94751,0.65911 -3.93725,1.16117 -5.94805,1.50888 -2.01078,0.34771 -4.045,0.54011 -6.0802,0.58681 -2.03519,0.0467 -4.07061,-0.0541 -6.09135,-0.29803 -2.02073,-0.24397 -4.02629,-0.6313 -5.99372,-1.15559 -1.96742,-0.52428 -3.8976,-1.18669 -5.77285,-1.98094 -1.87526,-0.79424 -3.69616,-1.71787 -5.44039,-2.77172 -1.74423,-1.05387 -3.41201,-2.23703 -4.98636,-3.54014 -1.57434,-1.3031 -3.05372,-2.72828 -4.41932,-4.27031 -1.1061,-1.24899 -2.1954,-2.76716 -3.21271,-4.44055 -1.01733,-1.67337 -1.96268,-3.50298 -2.78941,-5.37079 -0.82674,-1.8678 -1.53431,-3.77537 -2.06865,-5.60768 -0.53434,-1.83229 -0.8949,-3.58817 -1.03506,-5.15502 -0.15995,-1.78805 -0.21962,-3.47347 -0.1741,-5.09215 0.0455,-1.61868 0.19612,-3.17034 0.45858,-4.68647 0.26246,-1.51611 0.63548,-2.99796 1.12635,-4.47831 0.49087,-1.48036 1.0988,-2.96068 1.82957,-4.47208 0.7156,-1.48004 1.45749,-2.83006 2.25545,-4.08743 0.79797,-1.25736 1.65126,-2.42053 2.59216,-3.52628 0.94091,-1.10573 1.96845,-2.15283 3.11286,-3.17801 1.14443,-1.02518 2.4065,-2.02808 3.81502,-3.04375 1.23608,-0.89135 2.52792,-1.6875 3.86603,-2.3876 1.33811,-0.70008 2.72345,-1.30547 4.14313,-1.81822 z"
       id="path4214" />
    <path
       inkscape:connector-curvature="0"
       style="font-style:normal;font-variant:normal;font-weight:bold;font-stretch:normal;font-size:224.18746948px;line-height:124.00000095%;font-family:sans-serif;-inkscape-font-specification:'sans-serif Bold';letter-spacing:0px;word-spacing:0px;opacity:1;fill:#fffff5;fill-opacity:1;stroke:#ffffff;stroke-width:0;stroke-linecap:butt;stroke-linejoin:miter;stroke-miterlimit:4;stroke-dasharray:none;stroke-opacity:1;enable-background:new"
       d="m 199.28075,651.01464 c -9.49922,3.55338 -16.88668,9.04165 -33.8361,21.9679 -13.22318,10.0845 -24.20099,17.73216 -26.98116,18.79923 l -4.68622,1.79863 13.41277,34.94603 13.41416,34.94969 12.04432,-8.64369 c 7.31828,-5.25065 13.15207,-8.76918 14.87236,-8.97179 1.55714,-0.18334 7.2964,1.58952 12.75096,3.94071 5.45455,2.35118 11.83964,4.48636 14.18982,4.7462 2.35016,0.25983 17.44092,-0.1682 33.53647,-0.95129 16.09555,-0.78309 31.01943,-2.05953 33.16395,-2.83758 10.63058,-3.85699 12.84001,-16.29061 4.25281,-23.9293 -3.81492,-3.39347 -5.94962,-3.90367 -33.85154,-8.10559 -16.3783,-2.46649 -30.64548,-5.02971 -31.70538,-5.69711 -3.25314,-2.0485 -4.7531,-7.76226 -3.05833,-11.64203 1.33125,-3.04748 2.44377,-3.85008 8.66992,-6.23976 l 7.14419,-2.74204 8.85241,-26.17167 c 4.86921,-14.39436 8.40516,-26.13583 7.85562,-26.09245 -0.54949,0.0435 -11.27694,2.0839 -23.83897,4.53467 -12.21543,2.38312 -19.70264,3.90986 -26.20206,6.34124 z"
       id="path4212" />
    <path
       inkscape:connector-curvature="0"
       style="font-style:normal;font-variant:normal;font-weight:bold;font-stretch:normal;font-size:224.18746948px;line-height:124.00000095%;font-family:sans-serif;-inkscape-font-specification:'sans-serif Bold';letter-spacing:0px;word-spacing:0px;opacity:1;fill:#ffb278;fill-opacity:1;stroke:#ffffff;stroke-width:0;stroke-linecap:butt;stroke-linejoin:miter;stroke-miterlimit:4;stroke-dasharray:none;stroke-opacity:1;enable-background:new"
       d="m 82.019272,703.72199 33.658228,87.69423 38.1881,-14.65711 -33.65823,-87.69423 -38.188098,14.65711 z"
       id="path4210" />
    <path
       inkscape:connector-curvature="0"
       style="font-style:normal;font-variant:normal;font-weight:bold;font-stretch:normal;font-size:224.18746948px;line-height:124.00000095%;font-family:sans-serif;-inkscape-font-specification:'sans-serif Bold';letter-spacing:0px;word-spacing:0px;opacity:1;fill:#fffff5;fill-opacity:1;stroke:#ffffff;stroke-width:0;stroke-linecap:butt;stroke-linejoin:miter;stroke-miterlimit:4;stroke-dasharray:none;stroke-opacity:1;enable-background:new"
       d="m 305.19608,641.81433 -3.06094,9.14552 c -1.25633,0.22044 -2.45045,0.58933 -3.5743,1.11454 -3.91122,1.7935 -6.74188,5.30622 -8.49414,10.54049 l -5.89353,17.60507 7.34431,2.46146 -3.05165,9.10431 5.22543,1.75381 3.05095,-9.10612 7.56595,2.53749 -3.05094,9.10613 5.22724,1.75311 3.05026,-9.10794 27.12797,9.09832 3.5501,-10.60732 -18.21,-6.10695 2.34049,-6.99454 c 1.75227,-5.23426 1.62167,-9.74557 -0.39706,-13.52748 -0.86614,-1.62005 -2.0524,-3.05966 -3.54694,-4.32481 l 2.81334,-8.40614 -5.22473,-1.75199 -2.39769,7.16711 c -0.92418,-0.42352 -1.91118,-0.81239 -2.96161,-1.16455 -1.63061,-0.54685 -3.18785,-0.92679 -4.67785,-1.15018 l 2.47189,-7.38805 -5.22655,-1.75129 z m -2.20423,21.09073 c 0.82043,-0.34778 1.72911,-0.50952 2.72507,-0.48734 0.99596,0.0222 2.0795,0.22939 3.25141,0.62235 1.17195,0.393 2.16495,0.88238 2.97949,1.4673 0.81456,0.58491 1.45015,1.26574 1.90719,2.04204 0.44531,0.77234 0.69505,1.60858 0.74538,2.50889 0.0503,0.90034 -0.1,1.8638 -0.44429,2.89227 l -1.96377,5.86668 -14.66044,-4.91494 1.96376,-5.86666 c 0.34429,-1.02853 0.80941,-1.88781 1.392,-2.57611 0.5826,-0.68832 1.28385,-1.2065 2.1042,-1.55448 z"
       id="path4206" />
    <path
       inkscape:connector-curvature="0"
       style="font-style:normal;font-variant:normal;font-weight:bold;font-stretch:normal;font-size:224.18746948px;line-height:124.00000095%;font-family:sans-serif;-inkscape-font-specification:'sans-serif Bold';letter-spacing:0px;word-spacing:0px;opacity:1;fill:#ffffd4;fill-opacity:1;stroke:#ffffff;stroke-width:0;stroke-linecap:butt;stroke-linejoin:miter;stroke-miterlimit:4;stroke-dasharray:none;stroke-opacity:1;enable-background:new"
       d="m 396.17956,817.91921 c -2.38743,-0.0318 -4.94985,0.0838 -7.21485,0.37891 -8.15797,1.06333 -9.84241,1.39934 -12.02148,2.3789 -1.03413,0.46501 -2.69963,0.84571 -3.69727,0.84571 -0.99763,0 -1.97886,0.26927 -2.18164,0.59765 -0.20289,0.32827 -1.51051,0.59571 -2.90234,0.59571 -1.39183,0 -2.80117,0.27359 -3.13477,0.60742 -0.76645,0.76679 -7.12928,1.7459 -14.84765,2.2832 -3.28189,0.22846 -6.29891,0.62466 -6.70313,0.88086 -0.40418,0.25609 -5.10234,0.73975 -10.44141,1.07813 -20.35639,1.28987 -24.61897,1.83443 -28.04882,3.57813 -0.56986,0.2897 -1.40906,0.5273 -1.86719,0.5273 -0.4581,0 -1.93768,1.107 -3.28906,2.459 l -2.45899,2.457 0,5.1563 0,5.1582 3.21875,3.0566 c 3.82951,3.6396 5.32687,4.0461 14.08594,3.8184 18.36976,-0.4774 44.64805,-0.2042 47.61914,0.4961 5.83943,1.3764 7.51023,4.2656 2.4668,4.2656 -1.66246,0 -3.5367,0.2716 -4.16016,0.6055 -1.12301,0.6013 -7.25872,1.3731 -18.77539,2.3633 -3.28187,0.2821 -7.98194,0.8255 -10.44336,1.205 -5.8198,0.8975 -22.33255,0.584 -23.35938,-0.4433 -0.41023,-0.4106 -1.7527,-0.7481 -2.98046,-0.7481 -1.22774,0 -2.39874,-0.2674 -2.60157,-0.5957 -0.20284,-0.3283 -0.77952,-0.5976 -1.28515,-0.5976 -0.5056,0 -2.32779,-0.8676 -4.04883,-1.9297 -3.31422,-2.0453 -8.08984,-7.9366 -8.08984,-9.9785 0,-0.6362 -0.26947,-1.3224 -0.59766,-1.5254 -0.77818,-0.4812 -0.77818,-9.6672 0,-10.1485 1.16949,-0.7231 0.60967,-2.0878 -0.85742,-2.0878 -0.80108,0 -1.62531,-0.2693 -1.82813,-0.5977 -0.20282,-0.3284 -1.10537,-0.5957 -2.00781,-0.5957 -0.90248,0 -2.16374,-0.3948 -2.80078,-0.877 -0.63706,-0.482 -1.89775,-0.885 -2.80469,-0.8964 -0.90698,-0.011 -2.11762,-0.2736 -2.6875,-0.584 -0.56986,-0.3104 -2.04276,-0.7248 -3.27344,-0.9219 -1.23072,-0.197 -2.23828,-0.6162 -2.23828,-0.9297 0,-0.31347 -0.92149,-0.56834 -2.05078,-0.56834 -1.12929,0 -2.22295,-0.26928 -2.42578,-0.59766 -0.20284,-0.32827 -1.08952,-0.5994 -1.97266,-0.60156 -0.88312,0 -2.3725,-0.40601 -3.3125,-0.89648 -0.94005,-0.49057 -2.47076,-0.88868 -3.39843,-0.88867 -0.92768,0 -1.85187,-0.26939 -2.05469,-0.59766 -0.20284,-0.32838 -1.1073,-0.5957 -2.00977,-0.5957 -0.90245,0 -2.16178,-0.39686 -2.79883,-0.87891 -0.63703,-0.48206 -2.01328,-0.88316 -3.06054,-0.89453 -1.0472,-0.0114 -2.07452,-0.28697 -2.27735,-0.61524 -0.20282,-0.32838 -1.08952,-0.5994 -1.97265,-0.60156 -0.88316,0 -2.37249,-0.40601 -3.3125,-0.89648 -1.24185,-0.64811 -3.68604,-0.89258 -8.94141,-0.89258 -6.57517,0 -7.51072,0.14065 -10.2539,1.5293 -3.46333,1.75317 -6.2461,5.67553 -6.2461,8.79877 0,1.5507 0.63032,2.5182 3.29297,5.0489 1.81218,1.7222 3.69596,3.1328 4.18555,3.1328 0.4896,0 1.35785,0.2559 1.92773,0.5683 0.56987,0.3124 2.10715,1.0098 3.41992,1.5508 1.31272,0.5411 3.79849,1.6279 5.52149,2.416 4.68611,2.1439 9.73395,4.4614 12.08203,5.545 1.14864,0.53 2.18162,1.1658 2.29102,1.4121 0.10946,0.2462 0.55385,0.4472 0.99218,0.4472 0.95757,0 4.69188,1.907 4.97266,2.5391 0.10946,0.2463 0.55775,0.4453 0.99609,0.4453 0.95755,0 4.69187,1.905 4.97266,2.5371 0.10934,0.2462 0.65928,0.4473 1.22265,0.4473 0.56338,0 1.27611,0.2371 1.5879,0.5254 0.31176,0.2882 2.04459,1.3351 3.8496,2.3242 1.80503,0.989 4.75747,2.6298 6.5625,3.6484 1.80503,1.0188 4.49192,2.4603 5.96876,3.2012 1.47685,0.7409 2.82028,1.4827 2.98437,1.6504 0.16408,0.1675 1.30251,0.8323 2.5332,1.4785 1.23068,0.6462 2.24024,1.3811 2.24024,1.6348 0,0.2537 0.39732,0.4648 0.88086,0.4648 0.99594,0 13.63142,7.6509 13.9375,8.4395 0.10946,0.2819 0.5991,0.5137 1.08593,0.5137 0.4868,0 1.76417,0.6733 2.83985,1.4941 1.07569,0.8209 2.13772,1.4922 2.35937,1.4922 0.22171,0 1.53551,0.7329 2.92383,1.6289 2.51501,1.6231 2.55909,1.6273 12.36914,1.4941 5.41506,-0.074 10.51741,-0.3883 11.33789,-0.6992 2.36267,-0.8949 27.54933,-2.113 43.5586,-2.1074 14.05036,0 27.03184,0.9088 29.53906,2.0547 0.6563,0.2998 2.26736,0.667 3.58008,0.8164 3.26832,0.3721 7.63723,1.5387 8.32422,2.2207 0.31178,0.3095 1.18797,0.5605 1.94726,0.5605 0.75928,0 1.84621,0.2468 2.41602,0.5489 0.56991,0.3018 3.45255,1.6867 6.40625,3.0761 2.9537,1.3895 5.46096,2.7545 5.57031,3.0332 0.10912,0.2787 0.44824,0.5078 0.75195,0.5078 0.18198,0 0.74425,0.3051 1.5,0.7754 l -6.69922,9.5762 42.03516,29.4473 46.88477,-66.9981 -42.03516,-29.4511 -10.2832,14.6933 c -0.46023,-0.161 -0.92911,-0.4212 -1.23828,-0.7305 -0.49228,-0.4925 -1.29591,-0.8964 -1.78126,-0.8964 -0.48545,0 -2.18038,-0.6313 -3.76953,-1.4063 -2.93517,-1.4315 -7.65898,-3.6202 -11.66601,-5.4023 -1.21678,-0.5412 -2.37494,-1.2449 -2.57227,-1.5645 -0.19743,-0.3195 -0.85515,-0.582 -1.46484,-0.582 -0.60959,0 -1.19925,-0.201 -1.30859,-0.4473 -0.10913,-0.2462 -1.62496,-1.1791 -3.36915,-2.0762 -4.36144,-2.2428 -6.91741,-3.6819 -7.27148,-4.0878 -0.16413,-0.1882 -0.70303,-0.5344 -1.19531,-0.7696 -2.09633,-1.0015 -9.73501,-6.0006 -11.08399,-7.25388 -0.3594,-0.33394 -2.17512,-1.65521 -4.0332,-2.93554 -1.85819,-1.28043 -3.38086,-2.55431 -3.38086,-2.82813 0,-0.27382 -0.3082,-0.49609 -0.6875,-0.49609 -0.3793,0 -1.56881,-0.67131 -2.64453,-1.49219 -1.07573,-0.82089 -2.45766,-1.49414 -3.07031,-1.49414 -0.61265,0 -1.36791,-0.24042 -1.67969,-0.53516 -0.80009,-0.75644 -4.29241,-1.22299 -8.27148,-1.27539 z"
       id="path4193" />
  </g>
</svg>
