<?xml version="1.0" encoding="UTF-8" standalone="no"?>
<!-- Created with Inkscape (http://www.inkscape.org/) -->

<svg
   xmlns:dc="http://purl.org/dc/elements/1.1/"
   xmlns:cc="http://creativecommons.org/ns#"
   xmlns:rdf="http://www.w3.org/1999/02/22-rdf-syntax-ns#"
   xmlns:svg="http://www.w3.org/2000/svg"
   xmlns="http://www.w3.org/2000/svg"
   xmlns:xlink="http://www.w3.org/1999/xlink"
   xmlns:sodipodi="http://sodipodi.sourceforge.net/DTD/sodipodi-0.dtd"
   xmlns:inkscape="http://www.inkscape.org/namespaces/inkscape"
   width="600"
   height="600"
   viewBox="0 0 600 600"
   id="svg2"
   version="1.1"
   inkscape:version="0.91 r13725"
   sodipodi:docname="Payment-collection-icon.svg"
   style="enable-background:new"
   enable-background="new">
  <defs
     id="defs4">
    <filter
       style="color-interpolation-filters:sRGB"
       inkscape:label="Drop Shadow"
       id="filter4199">
      <feFlood
         flood-opacity="1"
         flood-color="rgb(0,0,0)"
         result="flood"
         id="feFlood4201" />
      <feComposite
         in="flood"
         in2="SourceGraphic"
         operator="out"
         result="composite1"
         id="feComposite4203" />
      <feGaussianBlur
         in="composite1"
         stdDeviation="2"
         result="blur"
         id="feGaussianBlur4205" />
      <feOffset
         dx="0"
         dy="0"
         result="offset"
         id="feOffset4207" />
      <feComposite
         in="offset"
         in2="SourceGraphic"
         operator="atop"
         result="composite2"
         id="feComposite4209" />
    </filter>
    <linearGradient
       inkscape:collect="always"
       id="linearGradient4155">
      <stop
         style="stop-color:#001e3a;stop-opacity:1"
         offset="0"
         id="stop4157" />
      <stop
         style="stop-color:#12437b;stop-opacity:1"
         offset="1"
         id="stop4159" />
    </linearGradient>
    <linearGradient
       inkscape:collect="always"
       xlink:href="#linearGradient4155"
       id="linearGradient4169"
       gradientUnits="userSpaceOnUse"
       gradientTransform="translate(1.6477278e-5,3.4148255e-5)"
       x1="309.71143"
       y1="1044.3965"
       x2="309.04565"
       y2="571.5188" />
  </defs>
  <sodipodi:namedview
     id="base"
     pagecolor="#ffffff"
     bordercolor="#666666"
     borderopacity="1.0"
     inkscape:pageopacity="0.0"
     inkscape:pageshadow="2"
     inkscape:zoom="0.80654176"
     inkscape:cx="271.75712"
     inkscape:cy="293.20083"
     inkscape:document-units="px"
     inkscape:current-layer="layer1"
     showgrid="false"
     units="px"
     inkscape:window-width="1599"
     inkscape:window-height="846"
     inkscape:window-x="1"
     inkscape:window-y="25"
     inkscape:window-maximized="1"
     showguides="false"
     inkscape:guide-bbox="true"
     borderlayer="true"
     inkscape:showpageshadow="true">
    <sodipodi:guide
       position="364.60193,97.77961"
       orientation="1,0"
       id="guide4319" />
    <sodipodi:guide
       position="145.84077,88.388348"
       orientation="1,0"
       id="guide4321" />
    <sodipodi:guide
       position="105.5,47.25"
       orientation="0,1"
       id="guide4323" />
  </sodipodi:namedview>
  <metadata
     id="metadata7">
    <rdf:RDF>
      <cc:Work
         rdf:about="">
        <dc:format>image/svg+xml</dc:format>
        <dc:type
           rdf:resource="http://purl.org/dc/dcmitype/StillImage" />
        <dc:title />
      </cc:Work>
    </rdf:RDF>
  </metadata>
  <g
     inkscape:label="Layer 1"
     inkscape:groupmode="layer"
     id="layer1"
     transform="translate(0,-452.36216)"
     style="opacity:1;">
    <g
       transform="scale(0.99730031,1.002707)"
       style="font-style:normal;font-variant:normal;font-weight:normal;font-stretch:normal;font-size:55.24333191px;line-height:124.00000095%;font-family:'URW Gothic L';-inkscape-font-specification:'URW Gothic L';letter-spacing:0px;word-spacing:0px;fill:#005daa;fill-opacity:1;stroke:#005daa;stroke-width:2;stroke-linecap:butt;stroke-linejoin:miter;stroke-miterlimit:4;stroke-dasharray:none;stroke-opacity:1"
       id="text4246" />
    <circle
       style="fill:#12437b;fill-opacity:1;fill-rule:evenodd;stroke:#002642;stroke-width:0;stroke-linecap:butt;stroke-linejoin:miter;stroke-miterlimit:4;stroke-dasharray:none;stroke-opacity:1"
       id="path4151"
       cx="300.81918"
       cy="752.73053"
       r="291.06918" />
    <text
       xml:space="preserve"
       style="font-style:normal;font-weight:normal;font-size:28.34645653px;line-height:124.00000095%;font-family:sans-serif;letter-spacing:0px;word-spacing:0px;fill:#000000;fill-opacity:1;stroke:none;stroke-width:1px;stroke-linecap:butt;stroke-linejoin:miter;stroke-opacity:1"
       x="661.04266"
       y="514.05951"
       id="text4212"
       sodipodi:linespacing="124%"><tspan
         sodipodi:role="line"
         id="tspan4214"
         x="661.04266"
         y="514.05951" /></text>
    <path
       inkscape:connector-curvature="0"
       id="path4167"
       d="m 69.958046,929.66557 a 291.06918,291.06918 0 0 0 2.85773,3.9976 291.06918,291.06918 0 0 0 19.20273,21.8578 291.06918,291.06918 0 0 0 21.289034,19.8314 291.06918,291.06918 0 0 0 23.16119,17.607 291.06918,291.06918 0 0 0 24.80536,15.20743 291.06918,291.06918 0 0 0 26.19852,12.6559 291.06918,291.06918 0 0 0 27.32919,9.9779 291.06918,291.06918 0 0 0 28.19041,7.1961 291.06918,291.06918 0 0 0 28.76843,4.3499 291.06918,291.06918 0 0 0 29.05855,1.4531 291.06918,291.06918 0 0 0 20.58898,-0.73 291.06918,291.06918 0 0 0 28.8836,-3.5048 291.06918,291.06918 0 0 0 28.3884,-6.3717 291.06918,291.06918 0 0 0 27.6102,-9.1743 291.06918,291.06918 0 0 0 26.5577,-11.8845 291.06918,291.06918 0 0 0 25.236,-14.47739 291.06918,291.06918 0 0 0 23.6678,-16.92304 291.06918,291.06918 0 0 0 21.8578,-19.2028 291.06918,291.06918 0 0 0 19.8314,-21.289 291.06918,291.06918 0 0 0 17.6069,-23.1612 291.06918,291.06918 0 0 0 15.2075,-24.8053 291.06918,291.06918 0 0 0 12.6559,-26.1986 291.06918,291.06918 0 0 0 9.9779,-27.3292 291.06918,291.06918 0 0 0 7.1961,-28.1904 291.06918,291.06918 0 0 0 4.35,-28.7684 291.06918,291.06918 0 0 0 1.453,-29.0585 291.06918,291.06918 0 0 0 -0.73,-20.58905 291.06918,291.06918 0 0 0 -3.5048,-28.88355 291.06918,291.06918 0 0 0 -6.3717,-28.38845 291.06918,291.06918 0 0 0 -9.1742,-27.61012 291.06918,291.06918 0 0 0 -11.8846,-26.55776 291.06918,291.06918 0 0 0 -14.4775,-25.23598 291.06918,291.06918 0 0 0 -16.6973,-23.35002 550.82079,550.82079 0 0 0 -459.090224,357.54993 z"
       style="opacity:1;fill:url(#linearGradient4169);fill-opacity:1;fill-rule:evenodd;stroke:#101318;stroke-width:0;stroke-linecap:butt;stroke-linejoin:miter;stroke-miterlimit:4;stroke-dasharray:none;stroke-opacity:1;enable-background:new" />
    <path
       style="font-style:normal;font-variant:normal;font-weight:bold;font-stretch:normal;font-size:224.18746948px;line-height:124.00000095%;font-family:sans-serif;-inkscape-font-specification:'sans-serif Bold';letter-spacing:0px;word-spacing:0px;opacity:1;fill:#fffff5;fill-opacity:1;stroke:#ffffff;stroke-width:0;stroke-linecap:butt;stroke-linejoin:miter;stroke-miterlimit:4;stroke-dasharray:none;stroke-opacity:1;enable-background:new"
       d="m 363.87464,836.85068 c -2.38743,-0.0318 -4.94985,0.0838 -7.21485,0.37891 -8.15797,1.06333 -9.84241,1.39934 -12.02148,2.3789 -1.03413,0.46501 -2.69963,0.84571 -3.69727,0.84571 -0.99763,0 -1.97886,0.26927 -2.18164,0.59765 -0.20289,0.32827 -1.51051,0.59571 -2.90234,0.59571 -1.39183,0 -2.80117,0.27359 -3.13477,0.60742 -0.76645,0.76679 -7.12928,1.7459 -14.84765,2.2832 -3.28189,0.22846 -6.29891,0.62466 -6.70313,0.88086 -0.40418,0.25609 -5.10234,0.73975 -10.44141,1.07813 -20.35639,1.28987 -24.61897,1.83439 -28.04882,3.57812 -0.56986,0.28974 -1.40906,0.52734 -1.86719,0.52734 -0.4581,0 -1.93768,1.10695 -3.28906,2.45899 l -2.45899,2.45703 0,5.15625 0,5.1582 3.21875,3.05664 c 3.82951,3.63955 5.32687,4.04603 14.08594,3.81836 18.36976,-0.47739 44.64805,-0.20419 47.61914,0.4961 5.83943,1.37637 7.51023,4.26562 2.4668,4.26562 -1.66246,0 -3.5367,0.27163 -4.16016,0.60547 -1.12301,0.60129 -7.25872,1.37315 -18.77539,2.36328 -3.28187,0.28212 -7.98194,0.82555 -10.44336,1.20508 -5.8198,0.89749 -22.33255,0.58395 -23.35938,-0.44336 -0.41023,-0.41056 -1.7527,-0.74805 -2.98046,-0.74805 -1.22774,0 -2.39874,-0.26744 -2.60157,-0.5957 -0.20284,-0.32838 -0.77952,-0.59765 -1.28515,-0.59765 -0.5056,0 -2.32779,-0.86761 -4.04883,-1.92969 -3.31422,-2.04529 -8.08984,-7.93664 -8.08984,-9.97852 0,-0.63618 -0.26947,-1.32238 -0.59766,-1.52539 -0.77818,-0.48114 -0.77818,-9.66718 0,-10.14844 1.16949,-0.72313 0.60967,-2.08789 -0.85742,-2.08789 -0.80108,0 -1.62531,-0.26927 -1.82813,-0.59765 -0.20282,-0.32838 -1.10537,-0.59571 -2.00781,-0.59571 -0.90248,0 -2.16374,-0.39479 -2.80078,-0.87695 -0.63706,-0.48206 -1.89775,-0.885 -2.80469,-0.89648 -0.90698,-0.0114 -2.11762,-0.27358 -2.6875,-0.58399 -0.56986,-0.31042 -2.04276,-0.72477 -3.27344,-0.92187 -1.23072,-0.19698 -2.23828,-0.6162 -2.23828,-0.92969 0,-0.31349 -0.92149,-0.56836 -2.05078,-0.56836 -1.12929,0 -2.22295,-0.26928 -2.42578,-0.59766 -0.20284,-0.32827 -1.08952,-0.5994 -1.97266,-0.60156 -0.88312,0 -2.3725,-0.40601 -3.3125,-0.89648 -0.94005,-0.49057 -2.47076,-0.88868 -3.39843,-0.88867 -0.92768,0 -1.85187,-0.26939 -2.05469,-0.59766 -0.20284,-0.32838 -1.1073,-0.5957 -2.00977,-0.5957 -0.90245,0 -2.16178,-0.39686 -2.79883,-0.87891 -0.63703,-0.48206 -2.01328,-0.88316 -3.06054,-0.89453 -1.0472,-0.0114 -2.07452,-0.28697 -2.27735,-0.61524 -0.20282,-0.32838 -1.08952,-0.5994 -1.97265,-0.60156 -0.88316,0 -2.37249,-0.40601 -3.3125,-0.89648 -1.24185,-0.64811 -3.68604,-0.89258 -8.94141,-0.89258 -6.57517,0 -7.51072,0.14065 -10.2539,1.5293 -3.46333,1.75317 -6.2461,5.67553 -6.2461,8.79882 0,1.55062 0.63032,2.51819 3.29297,5.04883 1.81218,1.72225 3.69596,3.13281 4.18555,3.13281 0.4896,0 1.35785,0.2559 1.92773,0.56836 0.56987,0.31236 2.10715,1.00974 3.41992,1.55078 1.31272,0.54104 3.79849,1.62787 5.52149,2.41602 4.68611,2.14384 9.73395,4.46135 12.08203,5.54492 1.14864,0.53002 2.18162,1.1658 2.29102,1.41211 0.10946,0.2462 0.55385,0.44727 0.99218,0.44727 0.95757,0 4.69188,1.90697 4.97266,2.53906 0.10946,0.24631 0.55775,0.44531 0.99609,0.44531 0.95755,0 4.69187,1.90502 4.97266,2.53711 0.10934,0.2462 0.65928,0.44727 1.22265,0.44727 0.56338,0 1.27611,0.23714 1.5879,0.52539 0.31176,0.28826 2.04459,1.33511 3.8496,2.32422 1.80503,0.989 4.75747,2.62976 6.5625,3.64843 1.80503,1.01878 4.49192,2.46031 5.96876,3.20118 1.47685,0.74087 2.82028,1.48273 2.98437,1.65039 0.16408,0.16754 1.30251,0.83232 2.5332,1.47851 1.23068,0.64618 2.24024,1.38107 2.24024,1.63477 0,0.2537 0.39732,0.46484 0.88086,0.46484 0.99594,0 13.63142,7.65085 13.9375,8.43946 0.10946,0.28188 0.5991,0.51367 1.08593,0.51367 0.4868,0 1.76417,0.67336 2.83985,1.49414 1.07569,0.82089 2.13772,1.49219 2.35937,1.49219 0.22171,0 1.53551,0.73288 2.92383,1.6289 2.51501,1.62314 2.55909,1.62735 12.36914,1.49414 5.41506,-0.0739 10.51741,-0.38834 11.33789,-0.69922 2.36267,-0.89488 27.54933,-2.11299 43.5586,-2.10742 14.05036,0 27.03184,0.90883 29.53906,2.05469 0.6563,0.29985 2.26736,0.66705 3.58008,0.81641 3.26832,0.37213 7.63723,1.53871 8.32422,2.2207 0.31178,0.30951 1.18797,0.56054 1.94726,0.56054 0.75928,0 1.84621,0.24682 2.41602,0.54883 0.56991,0.30189 3.45255,1.68673 6.40625,3.07617 2.9537,1.38945 5.46096,2.75451 5.57031,3.03321 0.10912,0.27871 0.44824,0.50781 0.75195,0.50781 0.18198,0 0.74425,0.30505 1.5,0.77539 l -6.69922,9.57617 42.03516,29.44727 46.88477,-66.99805 -42.03516,-29.45117 -10.2832,14.69336 c -0.46023,-0.16106 -0.92911,-0.42119 -1.23828,-0.73047 -0.49228,-0.49251 -1.29591,-0.89648 -1.78126,-0.89648 -0.48545,0 -2.18038,-0.63128 -3.76953,-1.40625 -2.93517,-1.4315 -7.65898,-3.62019 -11.66601,-5.40235 -1.21678,-0.54116 -2.37494,-1.24482 -2.57227,-1.56445 -0.19743,-0.31951 -0.85515,-0.58203 -1.46484,-0.58203 -0.60959,0 -1.19925,-0.20096 -1.30859,-0.44727 -0.10913,-0.2462 -1.62496,-1.17913 -3.36915,-2.07617 -4.36144,-2.24284 -6.91741,-3.68199 -7.27148,-4.08789 -0.16413,-0.18812 -0.70303,-0.53436 -1.19531,-0.76953 -2.09633,-1.0015 -9.73501,-6.00064 -11.08399,-7.25391 -0.3594,-0.33394 -2.17512,-1.65521 -4.0332,-2.93554 -1.85819,-1.28043 -3.38086,-2.55431 -3.38086,-2.82813 0,-0.27382 -0.3082,-0.49609 -0.6875,-0.49609 -0.3793,0 -1.56881,-0.67131 -2.64453,-1.49219 -1.07573,-0.82089 -2.45766,-1.49414 -3.07031,-1.49414 -0.61265,0 -1.36791,-0.24042 -1.67969,-0.53516 -0.80009,-0.75644 -4.29241,-1.22299 -8.27148,-1.27539 z"
       id="path4193"
       inkscape:connector-curvature="0" />
    <rect
       style="opacity:1;fill:#ff6600;fill-opacity:1;stroke:#ffffe7;stroke-width:0;stroke-linecap:round;stroke-miterlimit:4;stroke-dasharray:none;stroke-opacity:1;enable-background:new"
       id="rect4198"
       width="73.014908"
       height="17.193817"
       x="239.17371"
       y="572.87659"
       ry="8.5969086" />
    <path
       style="opacity:1;fill:#ffb56b;fill-opacity:1;stroke:#00c4ff;stroke-width:0;stroke-linecap:round;stroke-miterlimit:4;stroke-dasharray:none;stroke-opacity:1;enable-background:new"
       d="m 291.56327,532.63004 c -0.33529,0.009 -0.66499,0.043 -0.98761,0.10825 -5.16203,1.04484 -9.44126,6.30306 -14.99417,6.32877 -5.55291,0.0256 -12.64529,-7.1568 -18.32342,-6.16222 -5.67811,0.99457 -10.48254,5.53805 -15.65867,5.49602 -5.17614,-0.042 -15.39387,-5.66257 -15.39387,-5.66257 12.75732,19.69496 20.24703,37.70607 20.24703,37.70607 l 55.67973,0 c 0,0 8.43196,-17.11385 22.16065,-37.70607 0,0 -10.44046,5.66257 -16.06006,5.66257 -5.26836,0 -11.64021,-5.89485 -16.66961,-5.77082 z m -44.01151,60.50125 c 0,0 -13.46024,28.46703 -35.09296,50.78495 -3.99241,4.11885 -8.31215,8.09346 -12.73912,11.9247 a 118.94008,94.481091 0 0 0 -43.41027,72.8973 118.94008,94.481091 0 0 0 118.93899,94.48169 118.94008,94.481091 0 0 0 118.94066,-94.48169 118.94008,94.481091 0 0 0 -40.46073,-70.89041 c -4.62044,-4.2338 -9.2172,-8.77815 -13.53688,-13.60517 -22.25506,-24.8688 -36.95994,-51.11137 -36.95994,-51.11137 l -55.67975,0 z"
       id="path4206"
       inkscape:connector-curvature="0" />
    <path
       style="font-style:normal;font-variant:normal;font-weight:normal;font-stretch:normal;font-size:177.1653595px;line-height:124.00000095%;font-family:'Phetsarath OT';-inkscape-font-specification:'Phetsarath OT';letter-spacing:0px;word-spacing:0px;opacity:1;fill:#072d54;fill-opacity:1;stroke:#ffffe7;stroke-width:0;stroke-linecap:butt;stroke-linejoin:miter;stroke-miterlimit:4;stroke-dasharray:none;stroke-opacity:1;enable-background:new"
       d="m 239.83354,675.81225 0,14.21472 -26.09779,0 0,14.80096 26.09779,0 0,5.07966 -26.09779,0 0,14.80097 26.09779,0 0,61.23572 14.01486,0 0,-46.69457 34.59666,0 c 8.36009,0 15.46585,-2.60658 21.31792,-7.81934 2.20082,-1.9961 4.01042,-4.24037 5.44773,-6.72181 l 24.33906,0 0,-14.80097 -20.30865,0 c 0.0241,-0.58788 0.0383,-1.18383 0.0383,-1.78704 0,-1.12941 -0.0459,-2.2211 -0.11825,-3.29262 l 20.38859,0 0,-14.80096 -24.58389,0 c -5.31877,-9.4737 -15.21258,-14.21472 -29.69186,-14.21472 l -45.44049,0 z m 14.01486,12.3927 29.35878,0 c 1.47531,0 2.92738,0.0981 4.35352,0.29479 l 5.16293,1.18082 c 0.30196,0.1081 0.58718,0.2294 0.8777,0.34641 l -0.0783,0 c 0.68627,0.27453 1.37919,0.54373 2.00188,0.86771 0.43569,0.22668 0.85454,0.46526 1.2591,0.71614 0.4048,0.25119 0.79368,0.51408 1.16748,0.78943 0.74688,0.55018 1.43113,1.14839 2.05352,1.79537 0.6224,0.64699 1.18253,1.34302 1.68046,2.08683 0.24895,0.3719 0.48332,0.75472 0.70116,1.15083 0.21818,0.39649 0.4193,0.80503 0.60622,1.22579 0.37344,0.84061 0.68536,1.72896 0.93433,2.6664 0.28103,1.05821 0.29894,2.32088 0.42136,3.50246 l 0.18653,0 c 0.0854,0.87058 0.13824,1.76604 0.13824,2.70304 0,0.81567 -0.0393,1.60672 -0.11326,2.37662 l -0.0983,0 c -0.064,0.64886 -0.0583,1.34066 -0.17488,1.95693 -0.19363,1.02349 -0.46037,2.00105 -0.79942,2.93454 -1.9e-4,4.9e-4 1.8e-4,6.9e-4 0,10e-4 -0.11287,0.31066 -0.23418,0.61693 -0.36307,0.91768 -0.37497,0.92821 -0.80704,1.79924 -1.29573,2.61144 -0.48869,0.81219 -1.03472,1.56553 -1.63715,2.26169 -0.60242,0.69617 -1.26077,1.33515 -1.9769,1.91528 -0.71614,0.58014 -1.49013,1.10143 -2.31999,1.56554 -0.4329,0.2421 -0.92349,0.42567 -1.38733,0.63621 l 0.13324,0 c -3.10982,1.43183 -6.9202,2.14845 -11.4334,2.14845 l -29.35878,0 0,-2.14845 0,-14.80096 0,-5.07967 0,-14.80096 0,-1.82201 z"
       id="text4226"
       inkscape:connector-curvature="0" />
  </g>
</svg>
