<?xml version="1.0" encoding="UTF-8" standalone="no"?>
<!-- Created with Inkscape (http://www.inkscape.org/) -->

<svg
   xmlns:dc="http://purl.org/dc/elements/1.1/"
   xmlns:cc="http://creativecommons.org/ns#"
   xmlns:rdf="http://www.w3.org/1999/02/22-rdf-syntax-ns#"
   xmlns:svg="http://www.w3.org/2000/svg"
   xmlns="http://www.w3.org/2000/svg"
   xmlns:xlink="http://www.w3.org/1999/xlink"
   xmlns:sodipodi="http://sodipodi.sourceforge.net/DTD/sodipodi-0.dtd"
   xmlns:inkscape="http://www.inkscape.org/namespaces/inkscape"
   width="600"
   height="600"
   viewBox="0 0 600 600"
   id="svg2"
   version="1.1"
   inkscape:version="0.91 r13725"
   sodipodi:docname="Reports-icon.svg"
   style="enable-background:new"
   enable-background="new">
  <defs
     id="defs4">
    <filter
       style="color-interpolation-filters:sRGB"
       inkscape:label="Drop Shadow"
       id="filter4199">
      <feFlood
         flood-opacity="1"
         flood-color="rgb(0,0,0)"
         result="flood"
         id="feFlood4201" />
      <feComposite
         in="flood"
         in2="SourceGraphic"
         operator="out"
         result="composite1"
         id="feComposite4203" />
      <feGaussianBlur
         in="composite1"
         stdDeviation="2"
         result="blur"
         id="feGaussianBlur4205" />
      <feOffset
         dx="0"
         dy="0"
         result="offset"
         id="feOffset4207" />
      <feComposite
         in="offset"
         in2="SourceGraphic"
         operator="atop"
         result="composite2"
         id="feComposite4209" />
    </filter>
    <linearGradient
       inkscape:collect="always"
       id="linearGradient4155">
      <stop
         style="stop-color:#001e3a;stop-opacity:1"
         offset="0"
         id="stop4157" />
      <stop
         style="stop-color:#12437b;stop-opacity:1"
         offset="1"
         id="stop4159" />
    </linearGradient>
    <linearGradient
       inkscape:collect="always"
       xlink:href="#linearGradient4155"
       id="linearGradient4169"
       gradientUnits="userSpaceOnUse"
       gradientTransform="translate(1.6477278e-5,3.4148255e-5)"
       x1="309.71143"
       y1="1044.3965"
       x2="309.04565"
       y2="571.5188" />
  </defs>
  <sodipodi:namedview
     id="base"
     pagecolor="#ffffff"
     bordercolor="#666666"
     borderopacity="1.0"
     inkscape:pageopacity="0.0"
     inkscape:pageshadow="2"
     inkscape:zoom="1.1406223"
     inkscape:cx="204.53098"
     inkscape:cy="323.56989"
     inkscape:document-units="px"
     inkscape:current-layer="layer1"
     showgrid="false"
     units="px"
     inkscape:window-width="1600"
     inkscape:window-height="824"
     inkscape:window-x="0"
     inkscape:window-y="24"
     inkscape:window-maximized="1"
     showguides="false"
     inkscape:guide-bbox="true"
     borderlayer="true"
     inkscape:showpageshadow="true">
    <sodipodi:guide
       position="364.60193,97.77961"
       orientation="1,0"
       id="guide4319" />
    <sodipodi:guide
       position="145.84077,88.388348"
       orientation="1,0"
       id="guide4321" />
    <sodipodi:guide
       position="105.5,47.25"
       orientation="0,1"
       id="guide4323" />
  </sodipodi:namedview>
  <metadata
     id="metadata7">
    <rdf:RDF>
      <cc:Work
         rdf:about="">
        <dc:format>image/svg+xml</dc:format>
        <dc:type
           rdf:resource="http://purl.org/dc/dcmitype/StillImage" />
        <dc:title></dc:title>
      </cc:Work>
    </rdf:RDF>
  </metadata>
  <g
     inkscape:label="Layer 1"
     inkscape:groupmode="layer"
     id="layer1"
     transform="translate(0,-452.36216)"
     style="opacity:1;">
    <g
       transform="scale(0.99730031,1.002707)"
       style="font-style:normal;font-variant:normal;font-weight:normal;font-stretch:normal;font-size:55.24333191px;line-height:124.00000095%;font-family:'URW Gothic L';-inkscape-font-specification:'URW Gothic L';letter-spacing:0px;word-spacing:0px;fill:#005daa;fill-opacity:1;stroke:#005daa;stroke-width:2;stroke-linecap:butt;stroke-linejoin:miter;stroke-miterlimit:4;stroke-dasharray:none;stroke-opacity:1"
       id="text4246" />
    <circle
       style="fill:#12437b;fill-opacity:1;fill-rule:evenodd;stroke:#002642;stroke-width:0;stroke-linecap:butt;stroke-linejoin:miter;stroke-miterlimit:4;stroke-dasharray:none;stroke-opacity:1"
       id="path4151"
       cx="300.81918"
       cy="752.73053"
       r="291.06918" />
    <text
       xml:space="preserve"
       style="font-style:normal;font-weight:normal;font-size:28.34645653px;line-height:124.00000095%;font-family:sans-serif;letter-spacing:0px;word-spacing:0px;fill:#000000;fill-opacity:1;stroke:none;stroke-width:1px;stroke-linecap:butt;stroke-linejoin:miter;stroke-opacity:1"
       x="661.04266"
       y="514.05951"
       id="text4212"
       sodipodi:linespacing="124%"><tspan
         sodipodi:role="line"
         id="tspan4214"
         x="661.04266"
         y="514.05951" /></text>
    <path
       inkscape:connector-curvature="0"
       id="path4167"
       d="m 69.958046,929.66557 a 291.06918,291.06918 0 0 0 2.85773,3.9976 291.06918,291.06918 0 0 0 19.20273,21.8578 291.06918,291.06918 0 0 0 21.289034,19.8314 291.06918,291.06918 0 0 0 23.16119,17.607 291.06918,291.06918 0 0 0 24.80536,15.20743 291.06918,291.06918 0 0 0 26.19852,12.6559 291.06918,291.06918 0 0 0 27.32919,9.9779 291.06918,291.06918 0 0 0 28.19041,7.1961 291.06918,291.06918 0 0 0 28.76843,4.3499 291.06918,291.06918 0 0 0 29.05855,1.4531 291.06918,291.06918 0 0 0 20.58898,-0.73 291.06918,291.06918 0 0 0 28.8836,-3.5048 291.06918,291.06918 0 0 0 28.3884,-6.3717 291.06918,291.06918 0 0 0 27.6102,-9.1743 291.06918,291.06918 0 0 0 26.5577,-11.8845 291.06918,291.06918 0 0 0 25.236,-14.47739 291.06918,291.06918 0 0 0 23.6678,-16.92304 291.06918,291.06918 0 0 0 21.8578,-19.2028 291.06918,291.06918 0 0 0 19.8314,-21.289 291.06918,291.06918 0 0 0 17.6069,-23.1612 291.06918,291.06918 0 0 0 15.2075,-24.8053 291.06918,291.06918 0 0 0 12.6559,-26.1986 291.06918,291.06918 0 0 0 9.9779,-27.3292 291.06918,291.06918 0 0 0 7.1961,-28.1904 291.06918,291.06918 0 0 0 4.35,-28.7684 291.06918,291.06918 0 0 0 1.453,-29.0585 291.06918,291.06918 0 0 0 -0.73,-20.58905 291.06918,291.06918 0 0 0 -3.5048,-28.88355 291.06918,291.06918 0 0 0 -6.3717,-28.38845 291.06918,291.06918 0 0 0 -9.1742,-27.61012 291.06918,291.06918 0 0 0 -11.8846,-26.55776 291.06918,291.06918 0 0 0 -14.4775,-25.23598 291.06918,291.06918 0 0 0 -16.6973,-23.35002 550.82079,550.82079 0 0 0 -459.090224,357.54993 z"
       style="opacity:1;fill:url(#linearGradient4169);fill-opacity:1;fill-rule:evenodd;stroke:#101318;stroke-width:0;stroke-linecap:butt;stroke-linejoin:miter;stroke-miterlimit:4;stroke-dasharray:none;stroke-opacity:1;enable-background:new" />
    <path
       style="opacity:1;fill:#ffffff;fill-opacity:1;stroke:#ff8f4b;stroke-width:7;stroke-linecap:round;stroke-miterlimit:4;stroke-dasharray:none;stroke-opacity:1;enable-background:new"
       d="m 143.13461,617.68264 0,340.10945 315.36915,0 0,-410.12312 -245.35548,0 -70.01367,70.01367 z"
       id="path4963"
       inkscape:connector-curvature="0" />
    <path
       style="opacity:1;fill:#ff5d32;fill-opacity:1;stroke:#ff5d32;stroke-width:7;stroke-linecap:round;stroke-miterlimit:4;stroke-dasharray:none;stroke-opacity:1;enable-background:new"
       d="m 209.61274,552.61872 -61.52839,61.5284 61.52839,0 0,-61.5284 z"
       id="rect4886"
       inkscape:connector-curvature="0" />
    <path
       style="opacity:1;fill:#ffa04b;fill-opacity:1;stroke:#67ffff;stroke-width:0;stroke-linecap:round;stroke-miterlimit:4;stroke-dasharray:none;stroke-opacity:1;enable-background:new"
       d="m 421.07493,575.35625 -14.0453,6.13495 4.62095,3.40781 -38.48904,52.28261 -19.37299,-9.75426 a 0.71187292,0.67628601 32.020919 0 0 -0.8646,0.1765 l -37.18504,47.78976 37.88433,-46.47385 19.30222,11.21688 a 1.3260081,1.3885155 34.011097 0 0 1.75157,-0.38204 l 40.26294,-52.43007 4.42583,3.26259 1.70913,-15.23088 z m -15.66579,40.22198 0,97.2298 15.91005,0 0,-97.2298 -15.91005,0 z m -22.11503,22.4963 0,74.7335 15.91007,0 0,-74.7335 -15.91007,0 z m -22.11501,22.11502 0,52.61848 15.91005,0 0,-52.61848 -15.91005,0 z m -22.11501,15.25173 0,37.36675 15.91005,0 0,-37.36675 -15.91005,0 z m -22.11502,11.82009 0,25.54666 15.91006,0 0,-25.54666 -15.91006,0 z"
       id="rect4174"
       inkscape:connector-curvature="0" />
    <path
       style="opacity:1;fill:#526373;fill-opacity:1;stroke:#00ddea;stroke-width:0;stroke-linecap:butt;stroke-miterlimit:4;stroke-dasharray:none;stroke-opacity:1;enable-background:new"
       d="m 180.31918,627.35625 0,22 116,0 0,-22 -116,0 z m 0,32 0,22 116,0 0,-22 -116,0 z m 0,32 0,22 116,0 0,-22 -116,0 z m 0,38 0,22 241.00001,0 0,-22 -241.00001,0 z m 0,32 0,22 241.00001,0 0,-22 -241.00001,0 z m 125,36 0,22 116.00001,0 0,-22 -116.00001,0 z m 0,31.99998 0,22 116.00001,0 0,-22 -116.00001,0 z m 0,32 0,22 116.00001,0 0,-22 -116.00001,0 z"
       id="path4237"
       inkscape:connector-curvature="0" />
    <path
       inkscape:connector-curvature="0"
       style="opacity:1;fill:#ffbc87;fill-opacity:1;fill-rule:evenodd;stroke:#000000;stroke-width:0;stroke-linecap:butt;stroke-linejoin:miter;stroke-miterlimit:4;stroke-dasharray:none;stroke-opacity:1;enable-background:new"
       d="m 233.64784,798.35624 a 52.5,52.5 0 0 0 -52.5,52.49999 52.5,52.5 0 0 0 52.5,52.5 52.5,52.5 0 0 0 52.5,-52.5 52.5,52.5 0 0 0 -0.01,-0.25 l -52.49023,0 0,-52.24999 z"
       id="path4254" />
    <path
       inkscape:connector-curvature="0"
       style="opacity:1;fill:#ff8c45;fill-opacity:1;fill-rule:evenodd;stroke:#000000;stroke-width:0;stroke-linecap:butt;stroke-linejoin:miter;stroke-miterlimit:4;stroke-dasharray:none;stroke-opacity:1;enable-background:new"
       d="m 286.14784,841.96173 a 52.5,52.5 0 0 0 -0.3789,-2.4258 52.5,52.5 0 0 0 -1.32227,-5.0782 52.5,52.5 0 0 0 -1.82422,-4.9199 52.5,52.5 0 0 0 -2.30468,-4.71482 52.5,52.5 0 0 0 -2.76368,-4.46094 52.5,52.5 0 0 0 -3.19531,-4.16211 52.5,52.5 0 0 0 -3.5957,-3.82226 52.5,52.5 0 0 0 -3.95899,-3.44532 52.5,52.5 0 0 0 -4.2832,-3.0332 52.5,52.5 0 0 0 -4.56445,-2.58789 52.5,52.5 0 0 0 -4.80078,-2.12109 52.5,52.5 0 0 0 -4.98828,-1.63086 52.5,52.5 0 0 0 -5.125,-1.125 52.5,52.5 0 0 0 -0.66602,-0.0781 l 0,43.60549 43.77148,0 z"
       id="path4265" />
  </g>
</svg>
