<?xml version="1.0" encoding="UTF-8" standalone="no"?>
<!-- Created with Inkscape (http://www.inkscape.org/) -->

<svg
   xmlns:dc="http://purl.org/dc/elements/1.1/"
   xmlns:cc="http://creativecommons.org/ns#"
   xmlns:rdf="http://www.w3.org/1999/02/22-rdf-syntax-ns#"
   xmlns:svg="http://www.w3.org/2000/svg"
   xmlns="http://www.w3.org/2000/svg"
   xmlns:sodipodi="http://sodipodi.sourceforge.net/DTD/sodipodi-0.dtd"
   xmlns:inkscape="http://www.inkscape.org/namespaces/inkscape"
   width="837"
   height="384"
   viewBox="0 0 837.00001 384.00001"
   id="svg4325"
   version="1.1"
   inkscape:version="0.91 r13725"
   sodipodi:docname="CIF-logoV3.svg">
  <defs
     id="defs4327">
    <filter
       style="color-interpolation-filters:sRGB"
       inkscape:label="Drop Shadow"
       id="filter4894">
      <feFlood
         flood-opacity="1"
         flood-color="rgb(0,57,136)"
         result="flood"
         id="feFlood4896" />
      <feComposite
         in="flood"
         in2="SourceGraphic"
         operator="out"
         result="composite1"
         id="feComposite4898" />
      <feGaussianBlur
         in="composite1"
         stdDeviation="2"
         result="blur"
         id="feGaussianBlur4900" />
      <feOffset
         dx="0"
         dy="0"
         result="offset"
         id="feOffset4902" />
      <feComposite
         in="offset"
         in2="SourceGraphic"
         operator="atop"
         result="fbSourceGraphic"
         id="feComposite4904" />
      <feColorMatrix
         result="fbSourceGraphicAlpha"
         in="fbSourceGraphic"
         values="0 0 0 -1 0 0 0 0 -1 0 0 0 0 -1 0 0 0 0 1 0"
         id="feColorMatrix4906" />
      <feFlood
         id="feFlood4908"
         flood-opacity="1"
         flood-color="rgb(0,57,136)"
         result="flood"
         in="fbSourceGraphic" />
      <feComposite
         id="feComposite4910"
         in2="fbSourceGraphic"
         in="flood"
         operator="out"
         result="composite1" />
      <feGaussianBlur
         id="feGaussianBlur4912"
         in="composite1"
         stdDeviation="4"
         result="blur" />
      <feOffset
         id="feOffset4914"
         dx="0"
         dy="0"
         result="offset" />
      <feComposite
         id="feComposite4916"
         in2="fbSourceGraphic"
         in="offset"
         operator="atop"
         result="fbSourceGraphic" />
      <feColorMatrix
         result="fbSourceGraphicAlpha"
         in="fbSourceGraphic"
         values="0 0 0 -1 0 0 0 0 -1 0 0 0 0 -1 0 0 0 0 1 0"
         id="feColorMatrix4918" />
      <feFlood
         id="feFlood4920"
         flood-opacity="1"
         flood-color="rgb(0,57,136)"
         result="flood"
         in="fbSourceGraphic" />
      <feComposite
         id="feComposite4922"
         in2="fbSourceGraphic"
         in="flood"
         operator="out"
         result="composite1" />
      <feGaussianBlur
         id="feGaussianBlur4924"
         in="composite1"
         stdDeviation="5.9"
         result="blur" />
      <feOffset
         id="feOffset4926"
         dx="0"
         dy="0"
         result="offset" />
      <feComposite
         id="feComposite4928"
         in2="fbSourceGraphic"
         in="offset"
         operator="atop"
         result="fbSourceGraphic" />
      <feColorMatrix
         result="fbSourceGraphicAlpha"
         in="fbSourceGraphic"
         values="0 0 0 -1 0 0 0 0 -1 0 0 0 0 -1 0 0 0 0 1 0"
         id="feColorMatrix4930" />
      <feFlood
         id="feFlood4932"
         flood-opacity="1"
         flood-color="rgb(0,57,136)"
         result="flood"
         in="fbSourceGraphic" />
      <feComposite
         id="feComposite4934"
         in2="fbSourceGraphic"
         in="flood"
         operator="out"
         result="composite1" />
      <feGaussianBlur
         id="feGaussianBlur4936"
         in="composite1"
         stdDeviation="8"
         result="blur" />
      <feOffset
         id="feOffset4938"
         dx="0"
         dy="0"
         result="offset" />
      <feComposite
         id="feComposite4940"
         in2="fbSourceGraphic"
         in="offset"
         operator="atop"
         result="composite2" />
    </filter>
    <filter
       id="filter4199"
       inkscape:label="Drop Shadow"
       style="color-interpolation-filters:sRGB">
      <feFlood
         id="feFlood4201"
         result="flood"
         flood-color="rgb(0,0,0)"
         flood-opacity="1" />
      <feComposite
         id="feComposite4203"
         result="composite1"
         operator="out"
         in2="SourceGraphic"
         in="flood" />
      <feGaussianBlur
         id="feGaussianBlur4205"
         result="blur"
         stdDeviation="2"
         in="composite1" />
      <feOffset
         id="feOffset4207"
         result="offset"
         dy="0"
         dx="0" />
      <feComposite
         id="feComposite4209"
         result="composite2"
         operator="atop"
         in2="SourceGraphic"
         in="offset" />
    </filter>
  </defs>
  <sodipodi:namedview
     id="base"
     pagecolor="#ffffff"
     bordercolor="#666666"
     borderopacity="1.0"
     inkscape:pageopacity="0.0"
     inkscape:pageshadow="2"
     inkscape:zoom="0.70710678"
     inkscape:cx="533.05106"
     inkscape:cy="221.59146"
     inkscape:document-units="px"
     inkscape:current-layer="layer1"
     showgrid="false"
     units="px"
     inkscape:window-width="1600"
     inkscape:window-height="847"
     inkscape:window-x="0"
     inkscape:window-y="24"
     inkscape:window-maximized="1"
     showguides="false"
     inkscape:guide-bbox="true"
     borderlayer="true" />
  <metadata
     id="metadata4330">
    <rdf:RDF>
      <cc:Work
         rdf:about="">
        <dc:format>image/svg+xml</dc:format>
        <dc:type
           rdf:resource="http://purl.org/dc/dcmitype/StillImage" />
        <dc:title></dc:title>
      </cc:Work>
    </rdf:RDF>
  </metadata>
  <g
     inkscape:label="Layer 1"
     inkscape:groupmode="layer"
     id="layer1"
     transform="translate(0,-668.36216)">
    <text
       xml:space="preserve"
       style="font-style:normal;font-weight:normal;font-size:101.0010376px;line-height:124.00000095%;font-family:sans-serif;letter-spacing:0px;word-spacing:0px;fill:#383131;fill-opacity:1;stroke:#383131;stroke-width:0;stroke-linecap:butt;stroke-linejoin:miter;stroke-miterlimit:4;stroke-dasharray:none;stroke-opacity:1"
       x="353.01495"
       y="822.49493"
       id="text5191"
       sodipodi:linespacing="124%"><tspan
         sodipodi:role="line"
         id="tspan5193"
         x="353.01495"
         y="822.49493"
         style="font-style:normal;font-variant:normal;font-weight:bold;font-stretch:normal;font-size:101.0010376px;font-family:Sawasdee;-inkscape-font-specification:'Sawasdee Bold';fill:#383131;fill-opacity:1;stroke:#383131;stroke-width:0;stroke-miterlimit:4;stroke-dasharray:none;stroke-opacity:1">Customer</tspan></text>
    <text
       sodipodi:linespacing="124%"
       id="text4217"
       y="921.68591"
       x="355.16687"
       style="font-style:normal;font-weight:normal;font-size:95.68518829px;line-height:124.00000095%;font-family:sans-serif;letter-spacing:0px;word-spacing:0px;fill:#383131;fill-opacity:1;stroke:#383131;stroke-width:0;stroke-linecap:butt;stroke-linejoin:miter;stroke-miterlimit:4;stroke-dasharray:none;stroke-opacity:1"
       xml:space="preserve"><tspan
         style="font-style:normal;font-variant:normal;font-weight:bold;font-stretch:normal;font-size:95.68518829px;font-family:Sawasdee;-inkscape-font-specification:'Sawasdee Bold';letter-spacing:-2.46040893px;fill:#383131;fill-opacity:1;stroke:#383131;stroke-width:0;stroke-miterlimit:4;stroke-dasharray:none;stroke-opacity:1"
         y="921.68591"
         x="355.16687"
         id="tspan4219"
         sodipodi:role="line">Information</tspan></text>
    <text
       xml:space="preserve"
       style="font-style:normal;font-weight:normal;font-size:101.0010376px;line-height:124.00000095%;font-family:sans-serif;letter-spacing:0px;word-spacing:0px;fill:#383131;fill-opacity:1;stroke:#383131;stroke-width:0;stroke-linecap:butt;stroke-linejoin:miter;stroke-miterlimit:4;stroke-dasharray:none;stroke-opacity:1"
       x="354.79568"
       y="1029.923"
       id="text4221"
       sodipodi:linespacing="124%"><tspan
         sodipodi:role="line"
         id="tspan4223"
         x="354.79568"
         y="1029.923"
         style="font-style:normal;font-variant:normal;font-weight:bold;font-stretch:normal;font-size:101.0010376px;font-family:Sawasdee;-inkscape-font-specification:'Sawasdee Bold';fill:#383131;fill-opacity:1;stroke:#383131;stroke-width:0;stroke-miterlimit:4;stroke-dasharray:none;stroke-opacity:1">File</tspan></text>
    <rect
       style="opacity:0.8;fill:#383131;fill-opacity:1;stroke:none;stroke-width:8.48600006;stroke-linecap:round;stroke-linejoin:miter;stroke-miterlimit:4;stroke-dasharray:none;stroke-opacity:1"
       id="rect4195"
       width="315.11185"
       height="318.87814"
       x="30.585793"
       y="724.1875"
       ry="27.619354" />
    <path
       style="opacity:0.8;fill:#2d2626;fill-opacity:1;stroke:none;stroke-width:8.48600006;stroke-linecap:round;stroke-linejoin:miter;stroke-miterlimit:4;stroke-dasharray:none;stroke-opacity:1"
       d="M 340.16481,735.27987 33.479911,1027.851 c 4.667967,8.6085 13.676594,14.4998 24.206943,14.4998 l 204.279066,0 55.77208,0 c 15.31161,0 27.6388,-12.3085 27.6388,-27.5963 l 0,-51.97529 0,-211.4371 c 0,-6.01927 -1.96041,-11.5363 -5.21199,-16.06224 z"
       id="path4235"
       inkscape:connector-curvature="0" />
    <path
       inkscape:connector-curvature="0"
       style="opacity:1;fill:#ff7500;fill-opacity:1;fill-rule:evenodd;stroke:#ff7200;stroke-width:0;stroke-linecap:butt;stroke-linejoin:miter;stroke-miterlimit:4;stroke-dasharray:none;stroke-opacity:1;enable-background:new"
       d="m 188.14087,782.71909 a 42.386204,42.386204 0 0 0 -42.38641,42.38473 42.386204,42.386204 0 0 0 42.38641,42.38808 42.386204,42.386204 0 0 0 42.38641,-42.38808 42.386204,42.386204 0 0 0 -42.38641,-42.38473 z m 0,91.6679 a 88.106157,62.388681 0 0 0 -88.10552,62.38938 88.106157,62.388681 0 0 0 0.20955,3.35115 88.106157,42.386204 0 0 0 -0.20955,2.0201 88.106157,42.386204 0 0 0 88.10552,42.38643 88.106157,42.386204 0 0 0 88.10722,-42.38643 88.106157,42.386204 0 0 0 -0.19616,-2.63035 88.106157,62.388681 0 0 0 0.19616,-2.7409 88.106157,62.388681 0 0 0 -88.10722,-62.38938 z"
       id="path4164" />
    <path
       style="opacity:1;fill:#2f2828;fill-opacity:0.96078431;fill-rule:evenodd;stroke:#fff1db;stroke-width:0;stroke-linecap:butt;stroke-linejoin:miter;stroke-miterlimit:4;stroke-dasharray:none;stroke-opacity:1"
       d="m 80.689811,740.49736 0,29.27098 5.238629,0 0,-29.27098 -5.238629,0 z"
       id="path4275"
       inkscape:connector-curvature="0" />
    <path
       style="opacity:1;fill:#2f2828;fill-opacity:0.96078431;fill-rule:evenodd;stroke:#fff1db;stroke-width:0;stroke-linecap:butt;stroke-linejoin:miter;stroke-miterlimit:4;stroke-dasharray:none;stroke-opacity:1"
       d="m 96.395678,740.49736 0,29.27141 5.238622,0 0,-12.41847 7.3532,0 0,-5.23905 -7.3532,0 0,-6.37037 12.61005,0 0,-5.23862 -12.61005,0 0,-0.005 -5.238622,0 z"
       id="path4273"
       inkscape:connector-curvature="0" />
    <path
       style="opacity:1;fill:#2f2828;fill-opacity:0.96078431;fill-rule:evenodd;stroke:#fff1db;stroke-width:0;stroke-linecap:butt;stroke-linejoin:miter;stroke-miterlimit:4;stroke-dasharray:none;stroke-opacity:1"
       d="m 60.290382,740.55693 a 14.575142,14.575133 0 0 0 -14.575251,14.57525 14.575142,14.575133 0 0 0 14.575251,14.57525 14.575142,14.575133 0 0 0 13.415509,-8.91699 l -5.689368,0 a 9.5868578,9.586852 0 0 1 -0.393843,0.51786 9.5868578,9.586852 0 0 1 -0.652994,0.70144 9.5868578,9.586852 0 0 1 -0.720117,0.63254 9.5868578,9.586852 0 0 1 -0.779237,0.55699 9.5868578,9.586852 0 0 1 -0.831244,0.47741 9.5868578,9.586852 0 0 1 -0.87481,0.39116 9.5868578,9.586852 0 0 1 -0.909035,0.30228 9.5868578,9.586852 0 0 1 -0.935263,0.20936 9.5868578,9.586852 0 0 1 -0.951711,0.11603 9.5868578,9.586852 0 0 1 -0.677887,0.0236 9.5868578,9.586852 0 0 1 -0.957044,-0.048 9.5868578,9.586852 0 0 1 -0.94771,-0.1427 9.5868578,9.586852 0 0 1 -0.928593,-0.23737 9.5868578,9.586852 0 0 1 -0.899703,-0.3285 9.5868578,9.586852 0 0 1 -0.863251,-0.41652 9.5868578,9.586852 0 0 1 -0.816577,-0.50097 9.5868578,9.586852 0 0 1 -0.763233,-0.58053 9.5868578,9.586852 0 0 1 -0.701449,-0.653 9.5868578,9.586852 0 0 1 -0.632546,-0.72011 9.5868578,9.586852 0 0 1 -0.556979,-0.77924 9.5868578,9.586852 0 0 1 -0.47741,-0.8317 9.5868578,9.586852 0 0 1 -0.391176,-0.87435 9.5868578,9.586852 0 0 1 -0.302272,-0.90904 9.5868578,9.586852 0 0 1 -0.209367,-0.93526 9.5868578,9.586852 0 0 1 -0.116018,-0.9517 9.5868578,9.586852 0 0 1 -0.02356,-0.67791 9.5868578,9.586852 0 0 1 0.04801,-0.95704 9.5868578,9.586852 0 0 1 0.142692,-0.9477 9.5868578,9.586852 0 0 1 0.237372,-0.92816 9.5868578,9.586852 0 0 1 0.328498,-0.90014 9.5868578,9.586852 0 0 1 0.416509,-0.86325 9.5868578,9.586852 0 0 1 0.500974,-0.81659 9.5868578,9.586852 0 0 1 0.580537,-0.76321 9.5868578,9.586852 0 0 1 0.652994,-0.70059 9.5868578,9.586852 0 0 1 0.720118,-0.63254 9.5868578,9.586852 0 0 1 0.779238,-0.55786 9.5868578,9.586852 0 0 1 0.831245,-0.47652 9.5868578,9.586852 0 0 1 0.874807,-0.39117 9.5868578,9.586852 0 0 1 0.909037,-0.30316 9.5868578,9.586852 0 0 1 0.935263,-0.20938 9.5868578,9.586852 0 0 1 0.951711,-0.11512 9.5868578,9.586852 0 0 1 0.677887,-0.0244 9.5868578,9.586852 0 0 1 0.957042,0.048 9.5868578,9.586852 0 0 1 0.94771,0.14359 9.5868578,9.586852 0 0 1 0.92815,0.23693 9.5868578,9.586852 0 0 1 0.900146,0.32805 9.5868578,9.586852 0 0 1 0.863253,0.4174 9.5868578,9.586852 0 0 1 0.816576,0.50097 9.5868578,9.586852 0 0 1 0.763234,0.57965 9.5868578,9.586852 0 0 1 0.700558,0.65299 9.5868578,9.586852 0 0 1 0.632547,0.72012 9.5868578,9.586852 0 0 1 0.215146,0.30093 l 5.706704,0 A 14.575142,14.575133 0 0 0 60.290385,740.557 Z"
       id="path4229-6"
       inkscape:connector-curvature="0" />
  </g>
</svg>
