<?xml version="1.0" encoding="UTF-8" standalone="no"?>
<!-- Created with Inkscape (http://www.inkscape.org/) -->

<svg
   width="745mm"
   height="512mm"
   viewBox="0 0 745 512"
   version="1.1"
   id="svg1"
   xml:space="preserve"
   inkscape:export-filename="payroll-deduction.svg"
   inkscape:export-xdpi="96"
   inkscape:export-ydpi="96"
   xmlns:inkscape="http://www.inkscape.org/namespaces/inkscape"
   xmlns:sodipodi="http://sodipodi.sourceforge.net/DTD/sodipodi-0.dtd"
   xmlns="http://www.w3.org/2000/svg"
   xmlns:svg="http://www.w3.org/2000/svg"><sodipodi:namedview
     id="namedview1"
     pagecolor="#ffffff"
     bordercolor="#000000"
     borderopacity="0.25"
     inkscape:showpageshadow="2"
     inkscape:pageopacity="0.0"
     inkscape:pagecheckerboard="0"
     inkscape:deskcolor="#d1d1d1"
     inkscape:document-units="mm"
     showgrid="true"><inkscape:grid
       id="grid1"
       units="mm"
       originx="0"
       originy="0"
       spacingx="0.99999999"
       spacingy="0.99999997"
       empcolor="#0099e5"
       empopacity="0.30196078"
       color="#0099e5"
       opacity="0.14901961"
       empspacing="5"
       dotted="false"
       gridanglex="30"
       gridanglez="30"
       visible="true" /></sodipodi:namedview><defs
     id="defs1" /><g
     inkscape:label="Layer 1"
     inkscape:groupmode="layer"
     id="layer1"><g
       style="enable-background:new"
       id="g1"
       transform="matrix(0.71124663,0,0,0.71124663,156.44372,16.95691)"><g
         inkscape:label="Layer 1"
         id="layer1-3"
         transform="translate(0,-452.36216)"
         style="opacity:1"><g
           transform="scale(0.99730031,1.002707)"
           style="font-style:normal;font-variant:normal;font-weight:normal;font-stretch:normal;font-size:55.2433px;line-height:124%;font-family:'URW Gothic L';-inkscape-font-specification:'URW Gothic L';letter-spacing:0px;word-spacing:0px;fill:#005daa;fill-opacity:1;stroke:#005daa;stroke-width:2;stroke-linecap:butt;stroke-linejoin:miter;stroke-miterlimit:4;stroke-dasharray:none;stroke-opacity:1"
           id="text4246" /><circle
           style="fill:#000000;fill-opacity:0;fill-rule:evenodd;stroke:#002642;stroke-width:0;stroke-linecap:butt;stroke-linejoin:miter;stroke-miterlimit:4;stroke-dasharray:none;stroke-opacity:1"
           id="path4151"
           cx="300.81918"
           cy="752.73053"
           r="291.06918" /><text
           xml:space="preserve"
           style="font-style:normal;font-weight:normal;line-height:0%;font-family:sans-serif;letter-spacing:0px;word-spacing:0px;fill:#000000;fill-opacity:1;stroke:none;stroke-width:1px;stroke-linecap:butt;stroke-linejoin:miter;stroke-opacity:1"
           x="661.04266"
           y="514.05951"
           id="text4212"><tspan
             sodipodi:role="line"
             id="tspan4214"
             x="661.04266"
             y="514.05951"
             style="font-size:28.3465px;line-height:1.24"> </tspan></text><text
           xml:space="preserve"
           style="font-size:76.8799px;display:none;fill:#12437b;fill-opacity:1;stroke-width:0.371999"
           x="302.36612"
           y="1075.9001"
           id="text2"><tspan
             sodipodi:role="line"
             id="tspan2"
             x="0"
             y="0"
             style="font-style:normal;font-variant:normal;font-weight:600;font-stretch:normal;font-size:76.8799px;font-family:FreeSans;-inkscape-font-specification:'FreeSans Semi-Bold';text-align:center;text-anchor:middle;fill:#12437b;fill-opacity:1;stroke-width:0.371999">PAYROLL DEDUCTION</tspan></text><g
           inkscape:label="Layer 1"
           id="layer1-3-1"
           transform="translate(-5.0216751,-2.1136282)"><g
             transform="scale(0.99730031,1.002707)"
             style="font-style:normal;font-variant:normal;font-weight:normal;font-stretch:normal;font-size:55.2433px;line-height:124%;font-family:'URW Gothic L';-inkscape-font-specification:'URW Gothic L';letter-spacing:0px;word-spacing:0px;fill:#005daa;fill-opacity:1;stroke:#005daa;stroke-width:2;stroke-linecap:butt;stroke-linejoin:miter;stroke-miterlimit:4;stroke-dasharray:none;stroke-opacity:1"
             id="text4246-8" /><circle
             style="fill:#000000;fill-opacity:0;fill-rule:evenodd;stroke:#002642;stroke-width:0;stroke-linecap:butt;stroke-linejoin:miter;stroke-miterlimit:4;stroke-dasharray:none;stroke-opacity:1"
             id="path4151-7"
             cx="300.81918"
             cy="752.73053"
             r="291.06918" /><text
             xml:space="preserve"
             style="font-style:normal;font-weight:normal;line-height:0%;font-family:sans-serif;letter-spacing:0px;word-spacing:0px;fill:#000000;fill-opacity:1;stroke:none;stroke-width:1px;stroke-linecap:butt;stroke-linejoin:miter;stroke-opacity:1"
             x="661.04266"
             y="514.05951"
             id="text4212-9"><tspan
               sodipodi:role="line"
               id="tspan4214-2"
               x="661.04266"
               y="514.05951"
               style="font-size:28.3465px;line-height:1.24"> </tspan></text><text
             xml:space="preserve"
             style="font-size:76.8799px;display:none;fill:#12437b;fill-opacity:1;stroke-width:0.371999"
             x="302.36612"
             y="1075.9001"
             id="text2-0"><tspan
               sodipodi:role="line"
               id="tspan2-2"
               x="0"
               y="0"
               style="font-style:normal;font-variant:normal;font-weight:600;font-stretch:normal;font-size:76.8799px;font-family:FreeSans;-inkscape-font-specification:'FreeSans Semi-Bold';text-align:center;text-anchor:middle;fill:#12437b;fill-opacity:1;stroke-width:0.371999">PAYROLL DEDUCTION</tspan></text><path
             style="fill:#ffb278;fill-opacity:1;stroke-width:0.417323"
             d="m 306.86576,543.54975 -56.82032,14.27232 52.6003,149.85538 7.72907,0.1631 1.53313,2.73033 2.92067,-0.56709 -1.50728,-30.12275 -29.51427,-77.93629 c 0,0 13.63983,-4.17162 16.37685,-19.4792 2.73706,-15.30756 -2.61103,-16.07391 -2.61103,-16.07391 0,0 -2.42581,-4.81695 -0.0445,-5.03828 2.38132,-0.22133 8.41711,-0.55199 8.41711,-0.55199 l 1.9797,-1.91031 z"
             id="path52" /><path
             style="fill:#ffb278;fill-opacity:1;stroke-width:0.417323"
             d="m 330.49167,516.86381 -6.00298,6.05804 7.59391,200.12327 2.8365,1.72781 9.86999,-3.97274 2.27499,-3.60522 -4.3617,-139.31185 1.982,-3.41604 c 0,0 14.87511,-2.5692 20.84133,-12.9874 5.96622,-10.4182 9.97757,-19.8002 9.41606,-23.13797 -0.5615,-3.33776 23.22346,0.50689 23.22346,0.50689 l 0.86365,2.47608 24.65862,2.4091 2.32412,1.0892 0.38298,13.39544 c 0,0 2.82135,11.60685 7.51824,16.10629 4.6969,4.49942 12.20149,11.45953 17.91197,14.69438 5.71045,3.23484 -14.58215,107.84086 -14.58215,107.84086 l 14.39979,0.50958 25.84132,-156.71675 -5.6885,-6.03968 z"
             id="path53" /><path
             style="fill:#ffb278;fill-opacity:1;stroke-width:0.417323"
             d="m 216.36457,784.62579 47.98333,166.16218 -5.57665,6.53883 -91.14602,26.6294 -48.39192,-171.70143 c 0,0 -1.87004,-2.44602 11.26681,-5.57649 13.13683,-3.1305 65.713,-20.09027 65.713,-20.09027 z"
             id="path55" /><path
             style="fill:#12437b;fill-opacity:1;stroke-width:0.417323"
             d="m 302.86283,725.78557 c 0,0 -1.43881,19.40244 20.62232,18.41006 22.06112,-0.99239 113.95149,-27.44944 113.95149,-27.44944 0,0 15.94254,-4.53079 23.70508,6.93278 7.76251,11.46358 4.42935,28.36134 4.42935,28.36134 l 19.99837,20.03013 c 0,0 2.72054,23.59665 -4.54443,28.21804 -7.26494,4.62141 13.43989,24.72353 11.48882,33.33587 -1.95107,8.61234 -9.51781,12.21213 -9.51781,12.21213 0,0 -6.3638,8.05856 -0.89178,18.48967 5.47207,10.43117 -5.62497,25.42809 -5.62497,25.42809 0,0 -84.56638,28.43796 -96.41615,31.46575 -11.84972,3.02781 -38.86339,6.8969 -55.40587,3.33684 -16.54245,-3.56006 -34.55124,-2.24207 -34.55124,-2.24207 l -9.60319,1.28536 -37.08276,-134.49211 c 0,0 15.52739,-36.3602 25.47804,-45.5492 9.95066,-9.189 12.82836,-20.85092 33.96473,-17.77324 z"
             id="path56" /><text
             xml:space="preserve"
             style="font-style:normal;font-variant:normal;font-weight:600;font-stretch:normal;font-size:76.88px;font-family:FreeSans;-inkscape-font-specification:'FreeSans Semi-Bold';text-align:center;text-anchor:middle;fill:#12437b;fill-opacity:1;stroke-width:0.371999"
             x="313.46997"
             y="1059.6519"
             id="text56"><tspan
               sodipodi:role="line"
               id="tspan56"
               x="313.46997"
               y="1059.6519"
               style="fill:#12437b;fill-opacity:1;stroke-width:0.371999">PAYROLL DEDUCTION</tspan></text><text
             xml:space="preserve"
             style="font-style:normal;font-variant:normal;font-weight:600;font-stretch:normal;font-size:76.88px;font-family:FreeSans;-inkscape-font-specification:'FreeSans Semi-Bold';text-align:center;text-anchor:middle;fill:#ffb278;fill-opacity:1;stroke-width:0.371999"
             x="500.97495"
             y="667.52594"
             id="text57"><tspan
               sodipodi:role="line"
               id="tspan57"
               style="stroke-width:0.371999"
               x="500.97495"
               y="667.52594"></tspan></text><text
             xml:space="preserve"
             style="font-style:normal;font-variant:normal;font-weight:600;font-stretch:normal;font-size:76.88px;font-family:FreeSans;-inkscape-font-specification:'FreeSans Semi-Bold';text-align:center;text-anchor:middle;fill:#ffb278;fill-opacity:1;stroke-width:0.371999"
             x="579.87781"
             y="802.85303"
             id="text59"><tspan
               sodipodi:role="line"
               id="tspan59"
               style="stroke-width:0.371999"
               x="579.87781"
               y="802.85303"></tspan></text><g
             inkscape:label="Layer 1"
             id="layer1-2"
             transform="matrix(1.0412278,0,0,1.0412278,808.88674,160.55929)"><g
               transform="scale(0.99730031,1.002707)"
               style="font-style:normal;font-variant:normal;font-weight:normal;font-stretch:normal;font-size:55.2433px;line-height:124%;font-family:'URW Gothic L';-inkscape-font-specification:'URW Gothic L';letter-spacing:0px;word-spacing:0px;fill:#005daa;fill-opacity:1;stroke:#005daa;stroke-width:2;stroke-linecap:butt;stroke-linejoin:miter;stroke-miterlimit:4;stroke-dasharray:none;stroke-opacity:1"
               id="text4246-1" /><g
               id="g67"
               transform="matrix(1.2068301,0,0,1.2068301,-45.685411,-209.58894)"><path
                 inkscape:connector-curvature="0"
                 style="font-style:normal;font-variant:normal;font-weight:bold;font-stretch:normal;font-size:224.187px;line-height:124%;font-family:sans-serif;-inkscape-font-specification:'sans-serif Bold';letter-spacing:0px;word-spacing:0px;opacity:1;fill:#12437b;fill-opacity:1;stroke:#ffffff;stroke-width:0;stroke-linecap:butt;stroke-linejoin:miter;stroke-miterlimit:4;stroke-dasharray:none;stroke-opacity:1;enable-background:new"
                 d="m -281.05204,601.25477 2.39468,-9.34212 c 1.23721,-0.3103 2.40168,-0.7642 3.4848,-1.36895 3.77198,-2.07038 6.34244,-5.77775 7.71338,-11.12457 l 4.611,-17.98362 -7.50245,-1.92643 2.3884,-9.30034 -5.33813,-1.37314 -2.38754,9.30212 -7.72899,-1.98629 2.38755,-9.30212 -5.33987,-1.3723 -2.38675,9.30387 -27.71251,-7.12199 -2.77736,10.83535 18.60236,4.78032 -1.83094,7.14487 c -1.37094,5.34681 -0.91595,9.83702 1.36977,13.4638 0.98051,1.5535 2.26732,2.90399 3.84904,4.05827 l -2.20094,8.58685 5.33728,1.37136 1.87557,-7.3211 c 0.95227,0.3559 1.9647,0.6727 3.03776,0.94834 1.66574,0.42805 3.24628,0.69491 4.7485,0.81048 l -1.93367,7.5468 z m 0.68035,-21.19468 c -0.79327,0.40592 -1.68795,0.63267 -2.68292,0.68222 -0.99497,0.0496 -2.09061,-0.0791 -3.28777,-0.38669 -1.1972,-0.30762 -2.22285,-0.72426 -3.07738,-1.24901 -0.85454,-0.52476 -1.53749,-1.15808 -2.04923,-1.89948 -0.49975,-0.73827 -0.80905,-1.55436 -0.92405,-2.44872 -0.11492,-0.89438 -0.0344,-1.86616 0.23496,-2.91674 l 1.53637,-5.99282 14.9762,3.84691 -1.53638,5.99279 c -0.26935,1.05064 -0.67141,1.94117 -1.20295,2.66962 -0.53154,0.72848 -1.19367,1.29579 -1.98685,1.70192 z"
                 id="path4206" /></g></g></g></g></g></g></svg>
