<?xml version="1.0" encoding="UTF-8" standalone="no"?>
<!-- Created with Inkscape (http://www.inkscape.org/) -->

<svg
   xmlns:dc="http://purl.org/dc/elements/1.1/"
   xmlns:cc="http://creativecommons.org/ns#"
   xmlns:rdf="http://www.w3.org/1999/02/22-rdf-syntax-ns#"
   xmlns:svg="http://www.w3.org/2000/svg"
   xmlns="http://www.w3.org/2000/svg"
   xmlns:xlink="http://www.w3.org/1999/xlink"
   xmlns:sodipodi="http://sodipodi.sourceforge.net/DTD/sodipodi-0.dtd"
   xmlns:inkscape="http://www.inkscape.org/namespaces/inkscape"
   width="292"
   height="120"
   viewBox="0 0 292 120"
   id="svg4150"
   version="1.1"
   inkscape:version="0.91 r13725"
   sodipodi:docname="SystemUtilities.svg">
  <defs
     id="defs4152">
    <linearGradient
       inkscape:collect="always"
       id="linearGradient4538">
      <stop
         style="stop-color:#b3b3b3;stop-opacity:1;"
         offset="0"
         id="stop4540" />
      <stop
         style="stop-color:#b3b3b3;stop-opacity:0;"
         offset="1"
         id="stop4542" />
    </linearGradient>
    <filter
       id="filter4199"
       inkscape:label="Drop Shadow"
       style="color-interpolation-filters:sRGB">
      <feFlood
         id="feFlood4201"
         result="flood"
         flood-color="rgb(0,0,0)"
         flood-opacity="1" />
      <feComposite
         id="feComposite4203"
         result="composite1"
         operator="out"
         in2="SourceGraphic"
         in="flood" />
      <feGaussianBlur
         id="feGaussianBlur4205"
         result="blur"
         stdDeviation="2"
         in="composite1" />
      <feOffset
         id="feOffset4207"
         result="offset"
         dy="0"
         dx="0" />
      <feComposite
         id="feComposite4209"
         result="composite2"
         operator="atop"
         in2="SourceGraphic"
         in="offset" />
    </filter>
    <filter
       style="color-interpolation-filters:sRGB"
       inkscape:label="Drop Shadow"
       id="filter4199-7">
      <feFlood
         flood-opacity="1"
         flood-color="rgb(0,0,0)"
         result="flood"
         id="feFlood4201-0" />
      <feComposite
         in="flood"
         in2="SourceGraphic"
         operator="out"
         result="composite1"
         id="feComposite4203-9" />
      <feGaussianBlur
         in="composite1"
         stdDeviation="2"
         result="blur"
         id="feGaussianBlur4205-3" />
      <feOffset
         dx="0"
         dy="0"
         result="offset"
         id="feOffset4207-6" />
      <feComposite
         in="offset"
         in2="SourceGraphic"
         operator="atop"
         result="composite2"
         id="feComposite4209-0" />
    </filter>
    <filter
       id="filter4973"
       inkscape:label="Diffuse Light"
       style="color-interpolation-filters:sRGB">
      <feGaussianBlur
         id="feGaussianBlur4975"
         result="blur"
         stdDeviation="1.5"
         in="SourceGraphic" />
      <feDiffuseLighting
         id="feDiffuseLighting4977"
         result="diffuse"
         lighting-color="#ffffff"
         surfaceScale="10"
         diffuseConstant="1">
        <feDistantLight
           id="feDistantLight4979"
           azimuth="257"
           elevation="34" />
      </feDiffuseLighting>
      <feComposite
         id="feComposite4981"
         result="composite1"
         k1="1"
         operator="arithmetic"
         in2="diffuse"
         in="diffuse"
         k2="0"
         k3="0"
         k4="0" />
      <feComposite
         id="feComposite4983"
         result="composite2"
         k3="1"
         operator="arithmetic"
         k1="1"
         in2="SourceGraphic"
         in="composite1"
         k2="0"
         k4="0" />
    </filter>
    <filter
       id="filter4990"
       inkscape:label="Diffuse Light"
       style="color-interpolation-filters:sRGB">
      <feGaussianBlur
         id="feGaussianBlur4992"
         result="blur"
         stdDeviation="1.5"
         in="SourceGraphic" />
      <feDiffuseLighting
         id="feDiffuseLighting4994"
         result="diffuse"
         lighting-color="#ffffff"
         surfaceScale="10"
         diffuseConstant="1">
        <feDistantLight
           id="feDistantLight4996"
           azimuth="257"
           elevation="34" />
      </feDiffuseLighting>
      <feComposite
         id="feComposite4998"
         result="composite1"
         k1="1"
         operator="arithmetic"
         in2="diffuse"
         in="diffuse"
         k2="0"
         k3="0"
         k4="0" />
      <feComposite
         id="feComposite5000"
         result="composite2"
         k3="1"
         operator="arithmetic"
         k1="1"
         in2="SourceGraphic"
         in="composite1"
         k2="0"
         k4="0" />
    </filter>
    <linearGradient
       inkscape:collect="always"
       xlink:href="#linearGradient4538"
       id="linearGradient4544-0"
       x1="49.960155"
       y1="995.35181"
       x2="76.702797"
       y2="950.99518"
       gradientUnits="userSpaceOnUse"
       gradientTransform="translate(-3.8397266,4.310168)" />
  </defs>
  <sodipodi:namedview
     id="base"
     pagecolor="#ffffff"
     bordercolor="#666666"
     borderopacity="1.0"
     inkscape:pageopacity="0.0"
     inkscape:pageshadow="2"
     inkscape:zoom="1.4142136"
     inkscape:cx="17.755997"
     inkscape:cy="29.43764"
     inkscape:document-units="px"
     inkscape:current-layer="layer1"
     showgrid="false"
     units="px"
     borderlayer="true"
     inkscape:window-width="1600"
     inkscape:window-height="847"
     inkscape:window-x="0"
     inkscape:window-y="24"
     inkscape:window-maximized="1"
     showguides="true"
     inkscape:guide-bbox="true">
    <sodipodi:guide
       position="205.5,420.25001"
       orientation="0,1"
       id="guide4236" />
  </sodipodi:namedview>
  <metadata
     id="metadata4155">
    <rdf:RDF>
      <cc:Work
         rdf:about="">
        <dc:format>image/svg+xml</dc:format>
        <dc:type
           rdf:resource="http://purl.org/dc/dcmitype/StillImage" />
        <dc:title />
      </cc:Work>
    </rdf:RDF>
  </metadata>
  <g
     inkscape:label="Layer 1"
     inkscape:groupmode="layer"
     id="layer1"
     transform="translate(0,-932.36216)">
    <path
       style="opacity:0.87999998;fill:#002642;fill-opacity:1;stroke:none;stroke-width:8.48600006;stroke-linecap:round;stroke-linejoin:miter;stroke-miterlimit:4;stroke-dasharray:none;stroke-opacity:1"
       d="m 124.64671,1015.6727 162.40363,0 c 0.40709,0 0.73482,-0.3345 0.73482,-0.75 l 0,-0.5 c 0,-0.4155 -0.32773,-0.75 -0.73482,-0.75 l -161.16555,0 c -0.005,0.011 -0.15806,0.2741 -0.16073,0.2813 -0.16845,0.4522 -0.51516,1.0451 -0.76927,1.3183 -0.0406,0.044 -0.23894,0.3167 -0.30808,0.4004 z"
       id="path4859"
       inkscape:connector-curvature="0" />
    <path
       style="opacity:0.87999998;fill:#002642;fill-opacity:1;stroke:none;stroke-width:8.48600006;stroke-linecap:round;stroke-linejoin:miter;stroke-miterlimit:4;stroke-dasharray:none;stroke-opacity:1"
       d="m 115.65625,1013.6727 -50.207724,0 c -0.386348,0 -0.69738,0.3345 -0.69738,0.75 l 0,0.5 c 0,0.4155 0.311032,0.75 0.69738,0.75 l 48.802064,0 c 0.2747,-0.3553 0.45758,-0.4696 0.74279,-0.8789 0.25796,-0.3702 0.41418,-0.7323 0.66287,-1.1211 z"
       id="path4857"
       inkscape:connector-curvature="0" />
    <text
       xml:space="preserve"
       style="font-style:normal;font-weight:normal;font-size:32.15317154px;line-height:124.00000095%;font-family:sans-serif;letter-spacing:0px;word-spacing:0px;fill:#ff4c00;fill-opacity:1;stroke:none;stroke-width:1px;stroke-linecap:butt;stroke-linejoin:miter;stroke-opacity:1;"
       x="132.23125"
       y="1042.7837"
       id="text4170-5"
       sodipodi:linespacing="124%"><tspan
         sodipodi:role="line"
         id="tspan4172-9"
         x="132.23125"
         y="1042.7837">UTILITIES</tspan></text>
    <path
       style="font-style:normal;font-weight:normal;font-size:6.39979935px;line-height:125%;font-family:sans-serif;letter-spacing:0px;word-spacing:0px;fill:#002642;fill-opacity:1;stroke:none;stroke-width:1px;stroke-linecap:butt;stroke-linejoin:miter;stroke-opacity:1"
       d="m 94.773362,965.81919 c -5.347054,0 -9.69277,1.38946 -13.03711,4.16992 -2.827208,2.34774 -4.44009,5.27133 -4.863281,8.75782 -0.342199,1.22893 -0.533203,2.53084 -0.533203,3.92187 0,2.46937 0.729213,4.39293 2.1875,5.77344 1.477731,1.36107 4.229033,2.56722 8.253906,3.61719 l 3.529297,0.90429 c 2.916575,0.73887 4.812528,1.56466 5.6875,2.47852 0.894416,0.89441 1.341802,2.21685 1.341802,3.9668 0,0.21541 -0.0202,0.42211 -0.0352,0.63086 -0.512832,1.4414 -1.469944,2.685 -2.880855,3.7246 -2.216597,1.6333 -5.163006,2.4492 -8.83789,2.4492 -2.158266,0 -4.326197,-0.3409 -6.503907,-1.0215 -2.158265,-0.6805 -4.316343,-1.6915 -6.474609,-3.0332 l -0.402344,2.0371 c -0.002,0 -0.0038,0 -0.0059,0 l -1.195312,6.0664 c 2.352703,0.9333 4.694083,1.6231 7.027343,2.0704 2.33326,0.4666 4.656887,0.7011 6.970703,0.7011 5.638712,0 10.179536,-1.3815 13.621088,-4.1425 2.9661,-2.3663 4.65007,-5.3366 5.07423,-8.90239 0.33655,-1.21148 0.52539,-2.49299 0.52539,-3.86328 0,-2.85825 -0.77653,-5.07349 -2.33203,-6.64844 -1.55551,-1.5944 -4.326517,-2.90698 -8.312506,-3.9375 l -3.529297,-0.875 c -3.188788,-0.85553 -5.171465,-1.65371 -5.949218,-2.39258 -0.75831,-0.75831 -1.138672,-1.83637 -1.138672,-3.23633 0,-0.21294 0.01866,-0.41717 0.0332,-0.62304 0.487943,-1.35322 1.380698,-2.50969 2.679687,-3.46875 2.08049,-1.53607 4.879104,-2.30469 8.398438,-2.30469 1.808276,0 3.676621,0.27198 5.601558,0.8164 1.94438,0.52499 3.8975,1.31332 5.86133,2.36329 l 0.40234,-2.03516 c 0.002,9.7e-4 0.004,9.8e-4 0.006,0.002 l 1.13867,-5.74609 c -2.0416,-0.73887 -4.0834,-1.29268 -6.125,-1.66211 -2.0416,-0.36943 -4.103096,-0.55469 -6.183586,-0.55469 z m 91.638668,2.39258 -0.39648,2.03125 -0.0117,0 -1.41211,7.24219 -4.45117,0 -0.84571,4.17187 0.004,0 -0.41211,2.03125 4.55078,0 -3.4707,17.73437 c -0.11666,0.6417 -0.20534,1.2349 -0.26367,1.7793 -0.0583,0.525 -0.0859,1.0098 -0.0859,1.457 0,2.5277 0.77652,4.4138 2.33203,5.6582 1.57495,1.2444 3.9577,1.8672 7.14648,1.8672 l 5.13282,0 0.4082,-2.0332 0.49609,-2.459 0.40821,-2.0332 -5.42578,0 c -1.65273,0 -2.85693,-0.2818 -3.61524,-0.8457 -0.73886,-0.5638 -1.10937,-1.4665 -1.10937,-2.7109 0,-0.2528 0.0296,-0.6036 0.0879,-1.0508 0.0583,-0.4472 0.14701,-1.001 0.26367,-1.6621 l 3.07226,-15.70117 10.69336,0 0.39844,-2.03125 0.01,0 0.8164,-4.17187 -10.73242,0 1.7793,-9.27344 -5.36719,0 z m -22.37109,8.48633 c -4.49153,0 -8.04891,1.0209 -10.67383,3.0625 -2.27344,1.78143 -3.55403,4.11136 -3.84375,6.98828 -0.3077,1.02613 -0.47266,2.13207 -0.47266,3.32812 0,1.82772 0.63068,3.33346 1.89453,4.51954 1.26385,1.16663 3.25834,2.11065 5.98047,2.83007 l 1.83789,0.4668 0.55274,0.14453 c 4.25555,1.13098 6.40863,2.61316 6.46875,4.44336 -0.39848,0.8832 -1.08219,1.6618 -2.06446,2.332 -1.63328,1.1278 -3.7618,1.6914 -6.38671,1.6914 -1.74995,0 -3.57693,-0.2621 -5.48243,-0.7871 -1.90549,-0.525 -3.84086,-1.2936 -5.80468,-2.3047 l -0.38672,2.043 c -0.007,0 -0.0144,-0.01 -0.0215,-0.01 l -1.05078,5.543 c 2.29437,0.7 4.39529,1.2144 6.30078,1.5449 1.9055,0.3306 3.72263,0.4961 5.45313,0.4961 4.45264,0 8.04943,-1.0898 10.79101,-3.2675 2.43823,-1.9232 3.79698,-4.3477 4.08204,-7.2715 0.3025,-1.005 0.46874,-2.0732 0.46874,-3.21878 0,-1.88605 -0.60307,-3.37404 -1.80859,-4.46289 -1.18607,-1.08886 -3.56686,-2.12946 -7.14453,-3.1211 l -1.72266,-0.52344 c -0.1361,-0.0389 -0.34896,-0.098 -0.64062,-0.17578 -3.66833,-1.00217 -5.53775,-2.43124 -5.63867,-4.27929 0.3922,-0.7943 1.05047,-1.47335 1.99218,-2.0293 1.63329,-0.97219 3.86034,-1.45898 6.67969,-1.45898 1.67217,0 3.29615,0.1951 4.8711,0.58398 1.57495,0.38888 3.07083,0.97225 4.49023,1.75 l 0.4082,-2.0332 0.61328,-3.04102 0.40821,-2.0332 c -1.63328,-0.58332 -3.29472,-1.02084 -4.98633,-1.3125 -1.67217,-0.29166 -3.39467,-0.4375 -5.16406,-0.4375 z m 56.875,0 c -2.35271,0 -4.57976,0.38826 -6.67969,1.16601 -2.08049,0.77776 -3.87987,1.88733 -5.39648,3.32618 -2.35271,2.29437 -4.14028,4.90968 -5.36524,7.8457 -0.6961,1.6841 -1.18632,3.4507 -1.48047,5.29687 -0.49057,1.97282 -0.73633,4.04421 -0.73633,6.21484 0,3.986 1.21406,7.0664 3.64454,9.2441 2.44992,2.1583 5.94029,3.2383 10.4707,3.2383 2.11938,0 4.20058,-0.1951 6.24219,-0.584 2.06104,-0.3888 4.05357,-0.9722 5.97851,-1.75 l 0.39063,-2.0253 c 0.006,0 0.0116,-0.01 0.0176,-0.01 l 1.02149,-5.3066 c -1.78883,1.0111 -3.7242,1.7778 -5.80469,2.3027 -2.08049,0.525 -4.28588,0.7891 -6.61914,0.7891 -3.03324,0 -5.38642,-0.7391 -7.05859,-2.2168 -1.65273,-1.4777 -2.48047,-3.5688 -2.48047,-6.27148 0,-0.23208 0.0213,-0.52917 0.043,-0.82618 l 24.80664,0 c 0.14184,-0.70922 0.25478,-1.37951 0.35351,-2.03125 l 0.0547,0 c 0.23333,-1.16663 0.40873,-2.25649 0.52539,-3.26757 0.11666,-1.03053 0.17578,-1.99231 0.17578,-2.88672 0,-3.73322 -1.09972,-6.70919 -3.29687,-8.92578 -2.17771,-2.2166 -5.11231,-3.32422 -8.80664,-3.32422 z m 38.99414,0 c -2.23604,0 -4.33696,0.50454 -6.30078,1.51562 -1.94363,0.99125 -3.64366,2.43936 -5.10157,4.34375 l 0.61133,-3.03906 0.40821,-2.0332 -5.36719,0 -0.39844,2.0332 -0.01,0 -6.38671,32.66599 5.36523,0 0.40039,-2.0332 0.008,0 3.24024,-16.46482 c 0.62607,-3.00469 1.92462,-5.45648 3.90625,-7.34375 2.0416,-1.96383 4.38493,-2.94531 7.02929,-2.94531 1.71106,0 3.05125,0.49664 4.02344,1.48828 0.97219,0.97219 1.45899,2.34194 1.45899,4.11133 0,0.48609 -0.0394,1.0399 -0.11719,1.66211 -0.0778,0.60275 -0.19406,1.26495 -0.34961,1.98437 l -3.82031,19.54099 5.36718,0 0.4004,-2.0332 0.008,0 3.24023,-16.47068 c 0.62657,-3.00191 1.924,-5.45189 3.9043,-7.33789 2.0416,-1.96383 4.36523,-2.94531 6.9707,-2.94531 1.74995,0 3.11179,0.48679 4.08399,1.45898 0.97219,0.97219 1.45703,2.33209 1.45703,4.08203 0,0.42777 -0.0375,0.94412 -0.11524,1.54688 -0.0778,0.60276 -0.19601,1.32212 -0.35156,2.1582 l -3.76172,19.54099 5.36719,0 0.39453,-2.0332 0.0137,0 3.82031,-19.71677 c 0.15556,-0.7972 0.27184,-1.57373 0.34961,-2.33204 0.0778,-0.77775 0.11719,-1.48725 0.11719,-2.1289 0,-2.95546 -0.76862,-5.24163 -2.30469,-6.85547 -1.51661,-1.61384 -3.67469,-2.41992 -6.47461,-2.41992 -2.39159,0 -4.66595,0.60307 -6.82421,1.80859 -2.13883,1.20552 -4.02492,2.95563 -5.65821,5.25 -0.3111,-2.2166 -1.23542,-3.947 -2.77148,-5.1914 -1.51662,-1.24441 -3.45988,-1.86719 -5.83203,-1.86719 z m -146.64649,0.78711 0.4668,2.0332 -0.875,0 7.03125,30.58589 -1.05078,1.9727 c -1.30274,2.3722 -2.47933,3.9666 -3.5293,4.7832 -1.04997,0.8166 -2.32509,1.2246 -3.82226,1.2246 l -3.08985,0 -0.41015,2.0332 -0.49414,2.4571 -0.41016,2.0332 4.23047,0 c 2.43048,0 4.42301,-0.5243 5.97851,-1.5743 1.57495,-1.0305 3.6069,-3.6359 6.09571,-7.8164 l 21.20312,-35.69919 -0.79883,0 1.20703,-2.0332 -5.6289,0 -14.99024,25.02539 -5.42578,-25.02539 -5.6875,0 z m 106.39649,5.79492 c 2.39159,0 4.27769,0.69175 5.6582,2.07226 1.3838,1.36459 2.08169,3.21536 2.09766,5.54883 l -18.63672,0.0293 c 0.98303,-2.12124 2.25636,-3.82718 3.82422,-5.11133 2.0416,-1.69161 4.39283,-2.53906 7.05664,-2.53906 z"
       id="text4165-2"
       inkscape:connector-curvature="0" />
    <path
       style="opacity:1;fill:#000000;fill-opacity:1;stroke:none;stroke-width:8.48600006;stroke-linecap:round;stroke-linejoin:miter;stroke-miterlimit:4;stroke-dasharray:none;stroke-opacity:1"
       d="m 10.486293,956.90833 c 0.0254,0.0467 1.29488,1.91442 2.82174,4.15013 l 2.77631,4.06458 -1.79905,3.53781 -1.79904,3.53782 -4.4991196,0.29197 c -2.47427,0.16013 -4.70202,0.30835 -4.95109,0.32918 -0.32245,0.027 -0.54331,1.31521 -0.76697,4.4771 -0.17273,2.44197 -0.31321,4.46893 -0.31229,4.50438 9.5e-4,0.0356 2.19631,0.48663 4.87826,1.00195 l 4.8761396,0.93631 1.31199,3.77818 1.31316,3.7788 -3.23165,3.6476 c -1.7773596,2.0065 -3.1786496,3.79 -3.1140096,3.9626 0.14446,0.3858 5.3122496,6.25026 5.6577996,6.42056 0.13666,0.067 2.05172,-1.0983 4.2546,-2.5907 l 4.00503,-2.7139 3.59712,1.7925 3.59771,1.794 0.30027,4.9311 0.30141,4.9317 4.4903,0.2679 c 2.47003,0.1472 4.52272,0.1541 4.56139,0.015 0.0385,-0.1383 0.47524,-2.3169 0.97108,-4.8418 l 0.90224,-4.5913 3.79447,-1.2897 3.79621,-1.2901 3.39564,2.994 c 1.86762,1.6467 3.52633,3.1224 3.6859,3.2793 0.1703,0.1673 1.60288,-0.841 3.47259,-2.4434 1.7508,-1.5005 3.27222,-2.8812 3.3802,-3.069 0.10758,-0.1879 -1.02998,-2.1466 -2.52796,-4.35286 l -2.72299,-4.0125 1.78016,-3.6132 1.78072,-3.6143 4.84249,-0.2894 c 2.66348,-0.1593 4.88683,-0.3795 4.94093,-0.4892 0.14208,-0.2887 0.68771,-8.22357 0.59018,-8.5835 -0.0452,-0.16648 -2.24134,-0.71909 -4.88015,-1.22832 l -4.79775,-0.92639 -1.26836,-3.80267 -1.2695,-3.80323 2.9884,-3.37544 c 1.64339,-1.85597 3.08135,-3.56403 3.19566,-3.79603 0.28856,-0.58573 -5.41491,-7.09149 -5.93232,-6.76682 -0.20751,0.13018 -2.06705,1.36857 -4.13211,2.75309 l -3.75501,2.51813 -3.58866,-1.725 -3.58805,-1.72329 -0.0861,-1.51283 c -0.047,-0.83189 -0.19707,-3.08276 -0.33295,-5.00178 l -0.24687,-3.48894 -4.37226,-0.28022 c -2.40498,-0.15397 -4.42813,-0.27319 -4.49489,-0.26454 -0.067,0.009 -0.54683,2.21898 -1.06743,4.91205 l -0.9477,4.89637 -3.77857,1.25152 -3.77972,1.25094 -3.69402,-3.2861 c -2.03168,-1.80745 -3.74629,-3.2636 -3.8101,-3.23703 -0.24864,0.10342 -6.7569,5.91609 -6.71345,5.99594 z m 12.41504,16.03342 c 2.09258,-4.22778 3.38608,-5.57209 6.96881,-7.24291 5.77503,-2.69327 12.54419,-1.60481 17.15766,2.75833 3.85201,3.64299 5.62469,9.36447 4.44033,14.33013 -1.35219,5.66914 -5.22852,9.86944 -10.56473,11.44624 -10.12861,2.993 -19.92089,-4.411 -19.79165,-14.96355 0.0332,-2.72647 0.0694,-2.85333 1.78958,-6.32824 z m 9.0074,46.33045 c 0.0205,0.021 0.97636,0.8137 2.12452,1.7618 l 2.08741,1.7234 -0.41025,2.1444 -0.40969,2.1428 -2.33273,0.8411 c -1.28281,0.4625 -2.43772,0.8807 -2.56612,0.9298 -0.16625,0.064 -0.0863,0.7789 0.27841,2.4836 0.28169,1.3165 0.51703,2.4087 0.52292,2.4272 0.006,0.019 1.23536,-0.078 2.73103,-0.2153 l 2.71929,-0.2498 1.2709,1.795 1.26925,1.7957 -1.15022,2.4215 c -0.63297,1.3313 -1.10026,2.4864 -1.0397,2.5679 0.13523,0.1818 3.76104,2.4916 3.96951,2.5287 0.0819,0.014 0.91585,-0.8936 1.85171,-2.0185 l 1.70238,-2.0447 2.17362,0.3975 2.17473,0.398 0.91309,2.5592 0.91127,2.5599 2.41358,-0.5441 c 1.32734,-0.2995 2.41313,-0.6093 2.41245,-0.6882 -8.6e-4,-0.079 -0.10248,-1.2964 -0.22613,-2.7062 l -0.22468,-2.5632 1.8077,-1.262 1.80898,-1.2613 2.25058,1.0629 c 1.2383,0.5849 2.34065,1.1122 2.44885,1.1708 0.11556,0.063 0.71853,-0.6895 1.46166,-1.8217 0.69614,-1.0599 1.28808,-2.0228 1.3165,-2.1385 0.0277,-0.116 -0.87137,-0.976 -1.99973,-1.9128 l -2.05219,-1.7047 0.38919,-2.1804 0.38882,-2.1821 2.51448,-0.8921 c 1.38293,-0.4911 2.52327,-0.9463 2.5351,-1.0127 0.0304,-0.1744 -0.89184,-4.4493 -0.99848,-4.6246 -0.0492,-0.08 -1.29373,-0.037 -2.76559,0.096 l -2.67733,0.2433 -1.25035,-1.8165 -1.251,-1.8153 1.06261,-2.2394 c 0.5842,-1.2318 1.08291,-2.354 1.10816,-2.494 0.063,-0.3535 -3.94364,-2.9197 -4.16741,-2.6692 -0.0899,0.1 -0.8831,1.0385 -1.76261,2.0854 l -1.60018,1.904 -2.15886,-0.3629 -2.15891,-0.3628 -0.27593,-0.7865 c -0.15189,-0.4323 -0.5755,-1.5983 -0.94037,-2.5914 l -0.66271,-1.8055 -2.35248,0.5196 c -1.29413,0.286 -2.38242,0.5323 -2.41628,0.547 -0.034,0.014 0.0499,1.2559 0.18613,2.7583 l 0.24818,2.7314 -1.8062,1.2382 -1.80504,1.2388 -2.45343,-1.1729 c -1.34956,-0.6443 -2.4788,-1.1521 -2.50849,-1.1283 -0.11555,0.093 -2.66564,4.1581 -2.63049,4.1938 z m 9.85351,3.7073 c 0.38175,-0.7248 0.91071,-1.3091 1.72958,-2.024 2.63987,-2.305 6.38355,-2.7635 9.4873,-1.163 2.59166,1.3365 4.40181,4.0894 4.53444,6.8938 0.15136,3.2017 -1.25588,6.0119 -3.83401,7.6601 -4.89416,3.1281 -11.19919,0.7128 -12.74242,-4.8823 -0.39884,-1.4455 -0.39838,-1.5183 -0.0201,-3.6169 0.23002,-1.2767 0.46382,-2.1427 0.84555,-2.8675 z m 26.60676,-1.6873 c 0.0104,0.02 0.55817,0.8253 1.21557,1.7878 l 1.19588,1.7495 -0.77599,1.5232 -0.776,1.5231 -1.93719,0.1253 c -1.06528,0.068 -2.02439,0.1328 -2.13172,0.1416 -0.13881,0.011 -0.23278,0.5673 -0.32971,1.9283 -0.0744,1.0514 -0.13584,1.924 -0.13547,1.9394 0.003,0.016 0.94637,0.2087 2.10113,0.4307 l 2.0998,0.4041 0.56418,1.6262 0.56557,1.6272 -1.39116,1.5704 c -0.76526,0.864 -1.36819,1.6317 -1.34029,1.706 0.0622,0.1662 2.28684,2.692 2.4357,2.7653 0.0585,0.029 0.88382,-0.4735 1.83221,-1.1162 l 1.72427,-1.1681 1.54833,0.7715 1.54953,0.7722 0.12997,2.1231 0.12825,2.1238 1.93348,0.1156 c 1.06339,0.063 1.9472,0.066 1.96382,0.011 0.0162,-0.06 0.20617,-0.9979 0.41979,-2.085 l 0.38818,-1.977 1.63334,-0.5552 1.63508,-0.5557 1.46099,1.2899 c 0.80409,0.709 1.51914,1.3438 1.58782,1.4113 0.0734,0.072 0.68956,-0.3615 1.49452,-1.0514 0.7539,-0.6462 1.40965,-1.2409 1.45553,-1.322 0.0461,-0.081 -0.44328,-0.9245 -1.0883,-1.8746 l -1.17261,-1.7264 0.76693,-1.5563 0.76692,-1.5565 2.08465,-0.1245 c 1.14689,-0.068 2.10515,-0.1634 2.1285,-0.2106 0.0586,-0.1258 0.2951,-3.5414 0.25306,-3.6964 -0.0191,-0.072 -0.9643,-0.3088 -2.10061,-0.5281 l -2.06634,-0.3991 -0.54595,-1.6375 -0.54714,-1.638 1.28711,-1.4523 c 0.70758,-0.7993 1.32659,-1.5356 1.37586,-1.6355 0.12402,-0.2523 -2.33074,-3.0536 -2.5536,-2.9138 -0.089,0.057 -0.89011,0.5907 -1.77935,1.1868 l -1.61646,1.0833 -1.54537,-0.7428 -1.5458,-0.7414 -0.0367,-0.6513 c -0.0202,-0.3582 -0.0848,-1.3279 -0.14336,-2.1543 l -0.10564,-1.5023 -1.88332,-0.1209 c -1.03553,-0.066 -1.90581,-0.1168 -1.93456,-0.1132 -0.0288,0 -0.23627,0.9558 -0.46042,2.1153 l -0.40819,2.1079 -1.62652,0.5384 -1.62715,0.5395 -1.59023,-1.4153 c -0.87464,-0.7782 -1.61319,-1.4057 -1.64073,-1.3943 -0.10755,0.044 -2.91045,2.5473 -2.89165,2.5817 z m 5.34607,6.9044 c 0.90626,-1.8178 1.45833,-2.3999 3.0002,-3.1197 2.48663,-1.1597 5.40177,-0.6897 7.38817,1.1889 1.65861,1.5686 2.42133,4.0319 1.91139,6.17 -0.5822,2.441 -2.25099,4.2483 -4.54848,4.9273 -4.36127,1.2887 -8.57788,-1.8981 -8.52223,-6.4417 0.0143,-1.174 0.0302,-1.2286 0.77095,-2.7248 z"
       id="path4318-8"
       inkscape:connector-curvature="0" />
    <path
       style="opacity:1;fill:#ffffff;fill-opacity:1;stroke:none;stroke-width:8.48600006;stroke-linecap:round;stroke-linejoin:miter;stroke-miterlimit:4;stroke-dasharray:none;stroke-opacity:1"
       d="m 14.407843,959.33406 c 0.0239,0.0439 1.21802,1.80079 2.65427,3.90382 l 2.61154,3.82336 -1.69228,3.32784 -1.69227,3.32786 -4.2321,0.27463 c -2.3274296,0.15064 -4.4229696,0.29005 -4.6572596,0.30965 -0.30331,0.0254 -0.51106,1.23715 -0.72145,4.21139 -0.16247,2.29704 -0.29462,4.20371 -0.29375,4.23705 8.9e-4,0.0334 2.06596,0.45776 4.5887396,0.94249 l 4.58675,0.88075 1.23413,3.55394 1.23522,3.5546 -3.03985,3.4311 c -1.67188,1.8874 -2.99,3.565 -2.92921,3.7274 0.13589,0.3629 4.99699,5.87936 5.32203,6.03946 0.12855,0.063 1.92995,-1.0331 4.00209,-2.4369 l 3.76734,-2.55276 3.38363,1.68596 3.3842,1.6876 0.28245,4.6385 0.28352,4.6389 4.22381,0.252 c 2.32344,0.1385 4.2543,0.145 4.29068,0.014 0.0363,-0.1301 0.44703,-2.1794 0.91344,-4.5545 l 0.84869,-4.3188 3.56929,-1.2131 3.5709,-1.2136 3.19412,2.8164 c 1.75678,1.5489 3.31705,2.937 3.46714,3.0847 0.1602,0.1573 1.50775,-0.7912 3.26651,-2.2985 1.64689,-1.4115 3.07801,-2.7102 3.17959,-2.8868 0.10118,-0.1768 -0.96886,-2.0193 -2.37793,-4.09456 l -2.5614,-3.7744 1.67452,-3.3987 1.67504,-3.3999 4.55509,-0.2721 c 2.50541,-0.15 4.59681,-0.357 4.6477,-0.4603 0.13365,-0.2715 0.64689,-7.73545 0.55515,-8.07402 -0.0425,-0.15659 -2.10832,-0.67641 -4.59052,-1.15542 l -4.51301,-0.8714 -1.19309,-3.57699 -1.19415,-3.57751 2.81104,-3.17513 c 1.54586,-1.74581 2.89848,-3.3525 3.006,-3.57073 0.27143,-0.55097 -5.09354,-6.67062 -5.58024,-6.36522 -0.1952,0.12245 -1.94438,1.28735 -3.88688,2.58969 l -3.53216,2.36869 -3.37568,-1.62262 -3.3751,-1.62103 -0.0809,-1.42304 c -0.0442,-0.78251 -0.18538,-2.89981 -0.31319,-4.70493 l -0.23222,-3.28187 -4.11278,-0.2636 c -2.26224,-0.14483 -4.16532,-0.25697 -4.22812,-0.24884 -0.063,0.008 -0.51437,2.0873 -1.00408,4.62053 l -0.89146,4.60578 -3.55431,1.17725 -3.5554,1.17669 -3.47479,-3.09108 c -1.9111,-1.70017 -3.52396,-3.0699 -3.58398,-3.04491 -0.23388,0.0973 -6.35588,5.56497 -6.31501,5.64009 z m 11.67823,15.08186 c 1.96839,-3.97687 3.18512,-5.24141 6.55522,-6.81306 5.43229,-2.53343 11.79971,-1.50957 16.13938,2.59463 3.62339,3.42679 5.29087,8.8087 4.1768,13.47966 -1.27194,5.33269 -4.91822,9.28369 -9.93773,10.76689 -9.52749,2.8154 -18.73862,-4.1491 -18.61705,-14.07545 0.0313,-2.56466 0.0653,-2.68399 1.68338,-5.95267 z m 8.47282,43.58078 c 0.0193,0.02 0.91841,0.7655 1.99843,1.6572 l 1.96353,1.6211 -0.38591,2.0172 -0.38537,2.0155 -2.19428,0.7913 c -1.20668,0.435 -2.29305,0.8284 -2.41383,0.8747 -0.15639,0.06 -0.0812,0.7326 0.26189,2.3361 0.26496,1.2384 0.48634,2.2657 0.49188,2.2831 0.006,0.018 1.16204,-0.073 2.56894,-0.2024 l 2.55792,-0.2351 1.19547,1.6885 1.19392,1.6892 -1.08196,2.2777 c -0.5954,1.2523 -1.03496,2.3388 -0.97799,2.4155 0.1272,0.171 3.53783,2.3438 3.73393,2.3787 0.0771,0.013 0.86149,-0.8406 1.74181,-1.8987 l 1.60134,-1.9234 2.04463,0.374 2.04565,0.3743 0.85891,2.4073 0.85718,2.408 2.27034,-0.5118 c 1.24856,-0.2817 2.26992,-0.5731 2.26928,-0.6474 -8.1e-4,-0.073 -0.0964,-1.2194 -0.21271,-2.5456 l -0.21135,-2.411 1.70041,-1.1872 1.70162,-1.1863 2.11702,0.9997 c 1.1648,0.5503 2.20174,1.0462 2.30351,1.1013 0.10871,0.059 0.67589,-0.6486 1.37492,-1.7136 0.65482,-0.9969 1.21163,-1.9027 1.23836,-2.0115 0.0261,-0.1092 -0.81965,-0.9181 -1.88105,-1.7993 l -1.93039,-1.6036 0.36609,-2.0509 0.36575,-2.0526 2.36525,-0.8392 c 1.30085,-0.4619 2.37351,-0.8901 2.38464,-0.9526 0.0286,-0.164 -0.83891,-4.1853 -0.93922,-4.3501 -0.0463,-0.075 -1.21695,-0.035 -2.60146,0.091 l -2.51843,0.2288 -1.17615,-1.7087 -1.17675,-1.7076 0.99954,-2.1064 c 0.54954,-1.1587 1.01864,-2.2143 1.0424,-2.346 0.0593,-0.3325 -3.7096,-2.7465 -3.92009,-2.5108 -0.0846,0.094 -0.83068,0.9768 -1.658,1.9616 l -1.50521,1.791 -2.03073,-0.3413 -2.03079,-0.3413 -0.25955,-0.7398 c -0.14287,-0.4067 -0.54134,-1.5035 -0.88456,-2.4376 l -0.62337,-1.6984 -2.21287,0.4888 c -1.21733,0.2691 -2.24103,0.5007 -2.27288,0.5145 -0.032,0.012 0.0469,1.1814 0.17508,2.5946 l 0.23345,2.5692 -1.699,1.1648 -1.69791,1.1652 -2.30783,-1.1033 c -1.26947,-0.606 -2.33169,-1.0836 -2.35961,-1.0612 -0.10869,0.088 -2.50744,3.9113 -2.47437,3.9449 z m 9.26872,3.4872 c 0.35909,-0.6817 0.85666,-1.2313 1.62693,-1.9037 2.4832,-2.1682 6.0047,-2.5996 8.92424,-1.0941 2.43786,1.2572 4.14057,3.8468 4.26533,6.4846 0.14238,3.0118 -1.18134,5.6552 -3.60646,7.2056 -4.6037,2.9424 -10.53454,0.6705 -11.98618,-4.5926 -0.37517,-1.3596 -0.37474,-1.4281 -0.0189,-3.4023 0.21636,-1.2009 0.43629,-2.0154 0.79536,-2.6973 z m 25.02769,-1.5872 c 0.01,0.019 0.52504,0.7764 1.14343,1.6818 l 1.12491,1.6457 -0.72995,1.4327 -0.72993,1.4328 -1.82223,0.1179 c -1.00206,0.064 -1.90424,0.1249 -2.00521,0.1332 -0.13056,0.01 -0.21896,0.5336 -0.31014,1.8138 -0.07,0.989 -0.12777,1.8098 -0.12743,1.8243 0.003,0.014 0.89021,0.1963 1.97644,0.4052 l 1.97517,0.3801 0.5307,1.5297 0.532,1.5305 -1.30859,1.4772 c -0.71984,0.8128 -1.28699,1.5349 -1.26075,1.6048 0.0585,0.1563 2.15112,2.5322 2.29115,2.6012 0.055,0.027 0.83136,-0.4454 1.72347,-1.0499 l 1.62193,-1.0988 1.45645,0.7256 1.45757,0.7264 0.12226,1.9971 0.12063,1.9977 1.81873,0.1089 c 1.00028,0.059 1.83163,0.062 1.84727,0.01 0.0152,-0.056 0.19393,-0.9387 0.39488,-1.9613 l 0.36513,-1.8596 1.53642,-0.5223 1.53803,-0.5227 1.37428,1.2134 c 0.75638,0.6668 1.42899,1.264 1.49359,1.3275 0.069,0.067 0.64864,-0.3401 1.40583,-0.989 0.70916,-0.6078 1.32598,-1.1673 1.36914,-1.2436 0.0434,-0.076 -0.41698,-0.8696 -1.02372,-1.7633 l -1.103,-1.624 0.7214,-1.4638 0.72141,-1.4642 1.96093,-0.1171 c 1.07883,-0.064 1.98021,-0.1536 2.00218,-0.1981 0.0551,-0.1184 0.27758,-3.3312 0.23804,-3.477 -0.0179,-0.067 -0.90708,-0.2905 -1.97595,-0.4968 l -1.94371,-0.3753 -0.51354,-1.5404 -0.51466,-1.5407 1.21072,-1.3662 c 0.66559,-0.7519 1.24785,-1.4444 1.29419,-1.5385 0.11666,-0.2372 -2.1924,-2.8723 -2.40203,-2.7408 -0.0837,0.054 -0.8373,0.5556 -1.67375,1.1163 l -1.52054,1.019 -1.45364,-0.6986 -1.45407,-0.6974 -0.0345,-0.6127 c -0.019,-0.337 -0.0798,-1.2491 -0.13485,-2.0265 l -0.0994,-1.413 -1.77156,-0.1138 c -0.97407,-0.062 -1.7927,-0.1099 -1.81974,-0.1066 -0.027,0 -0.22225,0.8992 -0.43309,1.9899 l -0.38397,1.9827 -1.52999,0.5065 -1.53058,0.5075 -1.49585,-1.3313 c -0.82274,-0.7321 -1.51745,-1.3223 -1.54336,-1.3115 -0.10117,0.041 -2.73772,2.396 -2.72003,2.4285 z m 5.02879,6.4947 c 0.85247,-1.7098 1.37178,-2.2575 2.82214,-2.9345 2.33906,-1.0909 5.08118,-0.6487 6.9497,1.1183 1.56017,1.4756 2.27763,3.7927 1.79795,5.8038 -0.54765,2.2963 -2.1174,3.9962 -4.27853,4.6349 -4.10244,1.2123 -8.06881,-1.7854 -8.01646,-6.0594 0.0135,-1.1042 0.0284,-1.1557 0.7252,-2.5631 z"
       id="path4318-1-9"
       inkscape:connector-curvature="0" />
    <path
       style="opacity:1;fill:url(#linearGradient4544-0);fill-opacity:1;stroke:none;stroke-width:8.48600006;stroke-linecap:round;stroke-linejoin:miter;stroke-miterlimit:4;stroke-dasharray:none;stroke-opacity:1"
       d="m 14.407843,959.33406 c 0.0239,0.0439 1.21803,1.80079 2.65427,3.90382 l 2.61154,3.82336 -1.69228,3.32784 -1.69227,3.32786 -4.2321,0.27463 c -2.3274196,0.15064 -4.4229696,0.29005 -4.6572496,0.30965 -0.30332,0.0254 -0.51107,1.23715 -0.72145,4.21139 -0.16248,2.29704 -0.29462,4.20371 -0.29375,4.23705 8.9e-4,0.0334 2.06596,0.45776 4.5887296,0.94249 l 4.58676,0.88075 1.23412,3.55394 1.23522,3.5546 -3.03985,3.4311 c -1.67188,1.8874 -2.99,3.565 -2.9292,3.7274 0.13588,0.3629 4.99698,5.87936 5.32202,6.03946 0.12855,0.063 1.92995,-1.0331 4.0021,-2.4369 l 3.76733,-2.55276 3.38364,1.68596 3.38419,1.6876 0.28245,4.6385 0.28353,4.6389 4.2238,0.252 c 2.32344,0.1385 4.2543,0.145 4.29068,0.014 0.0363,-0.1301 0.44703,-2.1794 0.91345,-4.5545 l 0.84869,-4.3188 3.56928,-1.2131 3.5709,-1.2136 3.19412,2.8164 c 1.75678,1.5489 3.31705,2.937 3.46714,3.0847 0.1602,0.1573 1.50775,-0.7912 3.26651,-2.2985 1.64689,-1.4115 3.07801,-2.7102 3.17959,-2.8868 0.10118,-0.1768 -0.96886,-2.0193 -2.37793,-4.09456 l -2.5614,-3.7744 1.67452,-3.3987 1.67504,-3.3999 4.55509,-0.2721 c 2.50541,-0.15 4.59681,-0.357 4.6477,-0.4603 0.13365,-0.2715 0.64689,-7.73545 0.55515,-8.07402 -0.0425,-0.15659 -2.10832,-0.67641 -4.59052,-1.15542 l -4.51301,-0.8714 -1.19309,-3.57699 -1.19415,-3.57751 2.81104,-3.17513 c 1.54586,-1.74581 2.89848,-3.3525 3.006,-3.57073 0.27143,-0.55097 -5.09354,-6.67062 -5.58024,-6.36522 -0.1952,0.12245 -1.94438,1.28735 -3.88688,2.58969 l -3.53216,2.36869 -3.37568,-1.62262 -3.3751,-1.62103 -0.0809,-1.42304 c -0.0442,-0.78251 -0.18538,-2.89981 -0.31319,-4.70493 l -0.23222,-3.28187 -4.11278,-0.2636 c -2.26224,-0.14483 -4.16532,-0.25697 -4.22811,-0.24884 -0.063,0.008 -0.51438,2.0873 -1.00409,4.62053 l -0.89145,4.60578 -3.55432,1.17725 -3.5554,1.17669 -3.47479,-3.09108 c -1.9111,-1.70017 -3.52395,-3.0699 -3.58398,-3.04491 -0.23388,0.0973 -6.35588,5.56497 -6.31501,5.64009 z m 11.67823,15.08186 c 1.96839,-3.97687 3.18512,-5.24141 6.55522,-6.81306 5.43229,-2.53343 11.79971,-1.50957 16.13938,2.59463 3.62339,3.42679 5.29087,8.8087 4.1768,13.47966 -1.27194,5.33269 -4.91822,9.28369 -9.93773,10.76689 -9.52749,2.8154 -18.73862,-4.1491 -18.61704,-14.07545 0.0313,-2.56466 0.0653,-2.68399 1.68337,-5.95267 z m 8.47282,43.58078 c 0.0193,0.02 0.91842,0.7655 1.99843,1.6572 l 1.96353,1.6211 -0.3859,2.0172 -0.38538,2.0155 -2.19428,0.7913 c -1.20668,0.435 -2.29305,0.8284 -2.41383,0.8747 -0.15639,0.06 -0.0812,0.7326 0.26189,2.3361 0.26496,1.2384 0.48634,2.2657 0.49188,2.2831 0.006,0.018 1.16204,-0.073 2.56895,-0.2024 l 2.55791,-0.2351 1.19547,1.6885 1.19392,1.6892 -1.08195,2.2777 c -0.59541,1.2523 -1.03497,2.3388 -0.978,2.4155 0.12721,0.171 3.53783,2.3438 3.73393,2.3787 0.0771,0.013 0.86149,-0.8406 1.74181,-1.8987 l 1.60134,-1.9234 2.04463,0.374 2.04565,0.3743 0.85891,2.4073 0.85718,2.408 2.27034,-0.5118 c 1.24856,-0.2817 2.26992,-0.5731 2.26928,-0.6474 -8.1e-4,-0.073 -0.0964,-1.2194 -0.21271,-2.5456 l -0.21135,-2.411 1.70041,-1.1872 1.70162,-1.1863 2.11702,0.9997 c 1.1648,0.5503 2.20174,1.0462 2.30351,1.1013 0.10871,0.059 0.67589,-0.6486 1.37492,-1.7136 0.65482,-0.9969 1.21163,-1.9027 1.23836,-2.0115 0.0261,-0.1092 -0.81965,-0.9181 -1.88105,-1.7993 l -1.93039,-1.6036 0.36609,-2.0509 0.36575,-2.0526 2.36525,-0.8392 c 1.30085,-0.4619 2.37351,-0.8901 2.38464,-0.9526 0.0286,-0.164 -0.83891,-4.1853 -0.93922,-4.3501 -0.0463,-0.075 -1.21695,-0.035 -2.60146,0.091 l -2.51843,0.2288 -1.17615,-1.7087 -1.17675,-1.7076 0.99954,-2.1064 c 0.54954,-1.1587 1.01864,-2.2143 1.0424,-2.346 0.0593,-0.3325 -3.7096,-2.7465 -3.92009,-2.5108 -0.0846,0.094 -0.83068,0.9768 -1.658,1.9616 l -1.50521,1.791 -2.03073,-0.3413 -2.03079,-0.3413 -0.25955,-0.7398 c -0.14287,-0.4067 -0.54134,-1.5035 -0.88456,-2.4376 l -0.62337,-1.6984 -2.21287,0.4888 c -1.21733,0.2691 -2.24103,0.5007 -2.27288,0.5145 -0.032,0.012 0.0469,1.1814 0.17509,2.5946 l 0.23344,2.5692 -1.699,1.1648 -1.69791,1.1652 -2.30782,-1.1033 c -1.26948,-0.606 -2.3317,-1.0836 -2.35962,-1.0612 -0.10869,0.088 -2.50744,3.9113 -2.47437,3.9449 z m 9.26872,3.4872 c 0.35909,-0.6817 0.85666,-1.2313 1.62693,-1.9037 2.4832,-2.1682 6.0047,-2.5996 8.92424,-1.0941 2.43786,1.2572 4.14057,3.8468 4.26533,6.4846 0.14238,3.0118 -1.18134,5.6552 -3.60646,7.2056 -4.6037,2.9424 -10.53453,0.6705 -11.98618,-4.5926 -0.37517,-1.3596 -0.37474,-1.4281 -0.0189,-3.4023 0.21636,-1.2009 0.43629,-2.0154 0.79536,-2.6973 z m 25.02769,-1.5872 c 0.01,0.019 0.52504,0.7764 1.14343,1.6818 l 1.12491,1.6457 -0.72995,1.4327 -0.72993,1.4328 -1.82223,0.1179 c -1.00206,0.064 -1.90424,0.1249 -2.00521,0.1332 -0.13056,0.01 -0.21896,0.5336 -0.31014,1.8138 -0.07,0.989 -0.12777,1.8098 -0.12743,1.8243 0.003,0.014 0.89021,0.1963 1.97644,0.4052 l 1.97517,0.3801 0.5307,1.5297 0.532,1.5305 -1.30859,1.4772 c -0.71984,0.8128 -1.28699,1.5349 -1.26075,1.6048 0.0585,0.1563 2.15112,2.5322 2.29115,2.6012 0.055,0.027 0.83136,-0.4454 1.72347,-1.0499 l 1.62193,-1.0988 1.45645,0.7256 1.45757,0.7264 0.12226,1.9971 0.12063,1.9977 1.81873,0.1089 c 1.00028,0.059 1.83163,0.062 1.84727,0.01 0.0152,-0.056 0.19393,-0.9387 0.39488,-1.9613 l 0.36513,-1.8596 1.53642,-0.5223 1.53803,-0.5227 1.37428,1.2134 c 0.75638,0.6668 1.42899,1.264 1.49359,1.3275 0.069,0.067 0.64864,-0.3401 1.40583,-0.989 0.70916,-0.6078 1.32598,-1.1673 1.36914,-1.2436 0.0434,-0.076 -0.41698,-0.8696 -1.02372,-1.7633 l -1.103,-1.624 0.7214,-1.4638 0.72141,-1.4642 1.96093,-0.1171 c 1.07883,-0.064 1.98021,-0.1536 2.00218,-0.1981 0.0551,-0.1184 0.27758,-3.3312 0.23804,-3.477 -0.018,-0.067 -0.90708,-0.2905 -1.97595,-0.4968 l -1.94371,-0.3753 -0.51354,-1.5404 -0.51466,-1.5407 1.21072,-1.3662 c 0.66559,-0.7519 1.24785,-1.4444 1.29419,-1.5385 0.11666,-0.2372 -2.1924,-2.8723 -2.40203,-2.7408 -0.0837,0.054 -0.8373,0.5556 -1.67375,1.1163 l -1.52054,1.019 -1.45364,-0.6986 -1.45407,-0.6974 -0.0345,-0.6127 c -0.019,-0.337 -0.0798,-1.2491 -0.13485,-2.0265 l -0.0994,-1.413 -1.77156,-0.1138 c -0.97407,-0.062 -1.7927,-0.1099 -1.81974,-0.1066 -0.027,0 -0.22225,0.8992 -0.43309,1.9899 l -0.38397,1.9827 -1.52999,0.5065 -1.53058,0.5075 -1.49585,-1.3313 c -0.82274,-0.7321 -1.51745,-1.3223 -1.54336,-1.3115 -0.10117,0.041 -2.73772,2.396 -2.72003,2.4285 z m 5.02879,6.4947 c 0.85247,-1.7098 1.37178,-2.2575 2.82214,-2.9345 2.33906,-1.0909 5.08118,-0.6487 6.9497,1.1183 1.56017,1.4756 2.27763,3.7927 1.79795,5.8038 -0.54765,2.2963 -2.1174,3.9962 -4.27853,4.6349 -4.10244,1.2123 -8.06881,-1.7854 -8.01646,-6.0594 0.0134,-1.1042 0.0284,-1.1557 0.7252,-2.5631 z"
       id="path4318-1-2-7"
       inkscape:connector-curvature="0" />
  </g>
</svg>
