<?xml version="1.0" encoding="UTF-8" standalone="no"?>
<!-- Created with Inkscape (http://www.inkscape.org/) -->

<svg
   xmlns:dc="http://purl.org/dc/elements/1.1/"
   xmlns:cc="http://creativecommons.org/ns#"
   xmlns:rdf="http://www.w3.org/1999/02/22-rdf-syntax-ns#"
   xmlns:svg="http://www.w3.org/2000/svg"
   xmlns="http://www.w3.org/2000/svg"
   xmlns:xlink="http://www.w3.org/1999/xlink"
   xmlns:sodipodi="http://sodipodi.sourceforge.net/DTD/sodipodi-0.dtd"
   xmlns:inkscape="http://www.inkscape.org/namespaces/inkscape"
   width="745"
   height="512"
   viewBox="0 0 744.99999 512.00001"
   id="svg2"
   version="1.1"
   inkscape:version="0.91 r13725"
   sodipodi:docname="SystemSettings-logoV3.svg">
  <defs
     id="defs4">
    <linearGradient
       inkscape:collect="always"
       id="linearGradient4249">
      <stop
         style="stop-color:#ffb380;stop-opacity:1;"
         offset="0"
         id="stop4251" />
      <stop
         style="stop-color:#ffb380;stop-opacity:0;"
         offset="1"
         id="stop4253" />
    </linearGradient>
    <filter
       id="filter4199"
       inkscape:label="Drop Shadow"
       style="color-interpolation-filters:sRGB">
      <feFlood
         id="feFlood4201"
         result="flood"
         flood-color="rgb(0,0,0)"
         flood-opacity="1" />
      <feComposite
         id="feComposite4203"
         result="composite1"
         operator="out"
         in2="SourceGraphic"
         in="flood" />
      <feGaussianBlur
         id="feGaussianBlur4205"
         result="blur"
         stdDeviation="2"
         in="composite1" />
      <feOffset
         id="feOffset4207"
         result="offset"
         dy="0"
         dx="0" />
      <feComposite
         id="feComposite4209"
         result="composite2"
         operator="atop"
         in2="SourceGraphic"
         in="offset" />
    </filter>
    <filter
       id="filter4894"
       inkscape:label="Drop Shadow"
       style="color-interpolation-filters:sRGB">
      <feFlood
         id="feFlood4896"
         result="flood"
         flood-color="rgb(0,57,136)"
         flood-opacity="1" />
      <feComposite
         id="feComposite4898"
         result="composite1"
         operator="out"
         in2="SourceGraphic"
         in="flood" />
      <feGaussianBlur
         id="feGaussianBlur4900"
         result="blur"
         stdDeviation="2"
         in="composite1" />
      <feOffset
         id="feOffset4902"
         result="offset"
         dy="0"
         dx="0" />
      <feComposite
         id="feComposite4904"
         result="fbSourceGraphic"
         operator="atop"
         in2="SourceGraphic"
         in="offset" />
      <feColorMatrix
         id="feColorMatrix4906"
         values="0 0 0 -1 0 0 0 0 -1 0 0 0 0 -1 0 0 0 0 1 0"
         in="fbSourceGraphic"
         result="fbSourceGraphicAlpha" />
      <feFlood
         in="fbSourceGraphic"
         result="flood"
         flood-color="rgb(0,57,136)"
         flood-opacity="1"
         id="feFlood4908" />
      <feComposite
         result="composite1"
         operator="out"
         in="flood"
         in2="fbSourceGraphic"
         id="feComposite4910" />
      <feGaussianBlur
         result="blur"
         stdDeviation="4"
         in="composite1"
         id="feGaussianBlur4912" />
      <feOffset
         result="offset"
         dy="0"
         dx="0"
         id="feOffset4914" />
      <feComposite
         result="fbSourceGraphic"
         operator="atop"
         in="offset"
         in2="fbSourceGraphic"
         id="feComposite4916" />
      <feColorMatrix
         id="feColorMatrix4918"
         values="0 0 0 -1 0 0 0 0 -1 0 0 0 0 -1 0 0 0 0 1 0"
         in="fbSourceGraphic"
         result="fbSourceGraphicAlpha" />
      <feFlood
         in="fbSourceGraphic"
         result="flood"
         flood-color="rgb(0,57,136)"
         flood-opacity="1"
         id="feFlood4920" />
      <feComposite
         result="composite1"
         operator="out"
         in="flood"
         in2="fbSourceGraphic"
         id="feComposite4922" />
      <feGaussianBlur
         result="blur"
         stdDeviation="5.9"
         in="composite1"
         id="feGaussianBlur4924" />
      <feOffset
         result="offset"
         dy="0"
         dx="0"
         id="feOffset4926" />
      <feComposite
         result="fbSourceGraphic"
         operator="atop"
         in="offset"
         in2="fbSourceGraphic"
         id="feComposite4928" />
      <feColorMatrix
         id="feColorMatrix4930"
         values="0 0 0 -1 0 0 0 0 -1 0 0 0 0 -1 0 0 0 0 1 0"
         in="fbSourceGraphic"
         result="fbSourceGraphicAlpha" />
      <feFlood
         in="fbSourceGraphic"
         result="flood"
         flood-color="rgb(0,57,136)"
         flood-opacity="1"
         id="feFlood4932" />
      <feComposite
         result="composite1"
         operator="out"
         in="flood"
         in2="fbSourceGraphic"
         id="feComposite4934" />
      <feGaussianBlur
         result="blur"
         stdDeviation="8"
         in="composite1"
         id="feGaussianBlur4936" />
      <feOffset
         result="offset"
         dy="0"
         dx="0"
         id="feOffset4938" />
      <feComposite
         result="composite2"
         operator="atop"
         in="offset"
         in2="fbSourceGraphic"
         id="feComposite4940" />
    </filter>
    <filter
       id="filter4199-7"
       inkscape:label="Drop Shadow"
       style="color-interpolation-filters:sRGB">
      <feFlood
         id="feFlood4201-5"
         result="flood"
         flood-color="rgb(0,0,0)"
         flood-opacity="1" />
      <feComposite
         id="feComposite4203-3"
         result="composite1"
         operator="out"
         in2="SourceGraphic"
         in="flood" />
      <feGaussianBlur
         id="feGaussianBlur4205-5"
         result="blur"
         stdDeviation="2"
         in="composite1" />
      <feOffset
         id="feOffset4207-6"
         result="offset"
         dy="0"
         dx="0" />
      <feComposite
         id="feComposite4209-2"
         result="composite2"
         operator="atop"
         in2="SourceGraphic"
         in="offset" />
    </filter>
    <linearGradient
       inkscape:collect="always"
       xlink:href="#linearGradient4249"
       id="linearGradient4255"
       x1="-134.88837"
       y1="843.90143"
       x2="-94.267036"
       y2="926.23596"
       gradientUnits="userSpaceOnUse"
       gradientTransform="translate(409.26704,-163.87382)" />
  </defs>
  <sodipodi:namedview
     id="base"
     pagecolor="#ffffff"
     bordercolor="#666666"
     borderopacity="1.0"
     inkscape:pageopacity="0.0"
     inkscape:pageshadow="2"
     inkscape:zoom="0.70710678"
     inkscape:cx="447.92199"
     inkscape:cy="167.75299"
     inkscape:document-units="px"
     inkscape:current-layer="layer1"
     showgrid="false"
     units="px"
     borderlayer="true"
     inkscape:window-width="1600"
     inkscape:window-height="847"
     inkscape:window-x="0"
     inkscape:window-y="24"
     inkscape:window-maximized="1"
     showguides="false"
     inkscape:guide-bbox="true">
    <sodipodi:guide
       position="238.71875,289.36719"
       orientation="1,0"
       id="guide4176" />
    <sodipodi:guide
       position="240.71619,289.5192"
       orientation="0,1"
       id="guide4178" />
    <sodipodi:guide
       position="238.71875,289.5192"
       orientation="-0.70741435,0.70679908"
       id="guide4180" />
    <sodipodi:guide
       position="238.71875,289.5192"
       orientation="-0.70676712,-0.70744627"
       id="guide4186" />
  </sodipodi:namedview>
  <metadata
     id="metadata7">
    <rdf:RDF>
      <cc:Work
         rdf:about="">
        <dc:format>image/svg+xml</dc:format>
        <dc:type
           rdf:resource="http://purl.org/dc/dcmitype/StillImage" />
        <dc:title></dc:title>
      </cc:Work>
    </rdf:RDF>
  </metadata>
  <g
     inkscape:label="Layer 1"
     inkscape:groupmode="layer"
     id="layer1"
     transform="translate(0,-540.36216)">
    <path
       style="opacity:1;fill:#ff7500;fill-opacity:1;stroke:#94d700;stroke-width:0;stroke-linecap:round;stroke-miterlimit:4;stroke-dasharray:none;stroke-opacity:1"
       d="m 227.62384,642.7013 -46.06008,-26.16377 -141.080523,248.3619 187.140603,106.30512 0,-328.50325 z"
       id="path4413"
       inkscape:connector-curvature="0" />
    <path
       style="opacity:1;fill:#2a2f30;fill-opacity:1;stroke:#4b8d32;stroke-width:0;stroke-linecap:round;stroke-miterlimit:4;stroke-dasharray:none;stroke-opacity:1"
       d="m 146.16406,601.67466 c -2.04566,-0.0159 -3.99282,1.17285 -4.85547,3.17578 L 17.986328,891.18638 c -1.150165,2.67052 0.07357,5.74628 2.744141,6.89648 l 206.910151,89.11524 0,-46.81836 0,-0.002 0,-25.94921 0,-17.41016 a 85.359788,85.359788 0 0 1 -3.06445,0.043 85.359788,85.359788 0 0 1 -7.97265,-0.68555 l -7.0918,10.66211 -14.51172,21.8125 -2.21289,3.32617 -0.18164,-0.0762 -28.3418,-12.20898 -0.18359,-0.0762 9.66601,-41.95898 a 85.359788,85.359788 0 0 1 -1.53515,-1.18164 85.359788,85.359788 0 0 1 -6.20508,-5.85742 85.359788,85.359788 0 0 1 -5.58594,-6.44727 85.359788,85.359788 0 0 1 -0.35547,-0.50195 l -42.23047,8.49219 -0.0723,-0.18555 -11.41211,-28.67188 -0.0723,-0.18554 36.54493,-22.85742 a 85.359788,85.359788 0 0 1 -0.36915,-3.23438 85.359788,85.359788 0 0 1 -0.12109,-8.53125 85.359788,85.359788 0 0 1 0.69141,-8.01367 l -35.6211,-23.68945 0.0781,-0.1836 12.20898,-28.34375 0.0762,-0.18164 41.74415,9.61719 a 85.359788,85.359788 0 0 1 1.20703,-1.56836 85.359788,85.359788 0 0 1 5.85937,-6.20117 85.359788,85.359788 0 0 1 6.44922,-5.58985 85.359788,85.359788 0 0 1 0.65039,-0.45898 l -8.42578,-41.90625 0.18359,-0.0723 28.67188,-11.4082 0.1875,-0.0762 22.71484,36.31836 a 85.359788,85.359788 0 0 1 3.15821,-0.36328 85.359788,85.359788 0 0 1 5.4746,-0.0762 l 0,-90.17579 -79.43554,-34.21484 c -0.66764,-0.28755 -1.35914,-0.42634 -2.04102,-0.43164 z"
       id="path4394"
       inkscape:connector-curvature="0" />
    <path
       style="opacity:1;fill:#2a2f30;fill-opacity:1;stroke:#4b8d32;stroke-width:0;stroke-linecap:round;stroke-miterlimit:4;stroke-dasharray:none;stroke-opacity:1"
       d="m 146.16324,601.67467 c -2.04566,-0.0159 -3.9922,1.17342 -4.85485,3.17635 L 17.986989,891.18699 c -1.150165,2.67052 0.07347,5.74643 2.744039,6.89663 l 206.909052,89.11428 0,-46.81915 a 51.586888,51.586888 0 0 1 -1.93017,0.0284 51.586888,51.586888 0 0 1 -5.13492,-0.4384 51.586888,51.586888 0 0 0 -0.002,0 51.586888,51.586888 0 0 1 -5.06795,-0.94783 51.586888,51.586888 0 0 0 -0.002,0 51.586888,51.586888 0 0 1 -4.95023,-1.44712 51.586888,51.586888 0 0 1 -3.40164,-1.32127 51.586888,51.586888 0 0 1 -4.63158,-2.26708 51.586888,51.586888 0 0 1 -4.37991,-2.71969 51.586888,51.586888 0 0 1 -3.13981,-2.41524 l -2.21228,3.32655 -0.18267,-0.0771 -28.34153,-12.20813 -0.18267,-0.0771 9.66503,-41.95821 a 85.359788,85.359788 0 0 1 -1.53439,-1.18124 85.359788,85.359788 0 0 1 -6.20453,-5.85747 85.359788,85.359788 0 0 1 -5.58753,-6.44809 85.359788,85.359788 0 0 1 -0.35518,-0.50131 l -42.23019,8.49191 -0.073,-0.1847 -11.4105,-28.67236 -0.073,-0.18672 36.54524,-22.85753 a 85.359788,85.359788 0 0 1 -0.36939,-3.23317 85.359788,85.359788 0 0 1 -0.12177,-8.53249 85.359788,85.359788 0 0 1 0.69209,-8.01292 l -35.62176,-23.68967 0.0792,-0.18266 12.20812,-28.34357 0.0771,-0.18266 41.74308,9.61834 a 85.359788,85.359788 0 0 1 1.20762,-1.5689 85.359788,85.359788 0 0 1 5.85951,-6.20249 85.359788,85.359788 0 0 1 6.44807,-5.58956 85.359788,85.359788 0 0 1 0.65152,-0.4587 l -8.42697,-41.90544 0.1847,-0.0731 28.67236,-11.40846 0.18673,-0.0751 22.71545,36.31793 a 85.359788,85.359788 0 0 1 3.15807,-0.36331 85.359788,85.359788 0 0 1 5.47387,-0.0771 l 0,-90.17578 -79.43505,-34.2132 c -0.66764,-0.28755 -1.35991,-0.42701 -2.04179,-0.43231 z"
       id="path4262"
       inkscape:connector-curvature="0" />
    <path
       inkscape:connector-curvature="0"
       id="path4443"
       d="m 227.8224,940.37588 0,-26.7482 a 26.394795,26.394795 0 0 1 -1.15269,0.0186 26.394795,26.394795 0 0 1 -2.62755,-0.22594 26.394795,26.394795 0 0 1 -2.59406,-0.48331 26.394795,26.394795 0 0 1 -2.53342,-0.74048 26.394795,26.394795 0 0 1 -1.74054,-0.67787 26.394795,26.394795 0 0 1 -2.37022,-1.15895 26.394795,26.394795 0 0 1 -2.24263,-1.39119 26.394795,26.394795 0 0 1 -2.08989,-1.60874 26.394795,26.394795 0 0 1 -1.92046,-1.80957 26.394795,26.394795 0 0 1 -1.73009,-1.99158 26.394795,26.394795 0 0 1 -1.52296,-2.15475 26.394795,26.394795 0 0 1 -1.30122,-2.29492 26.394795,26.394795 0 0 1 -1.06065,-2.41626 26.394795,26.394795 0 0 1 -0.82215,-2.50621 26.394795,26.394795 0 0 1 -0.56065,-2.57734 26.394795,26.394795 0 0 1 -0.30544,-2.62126 26.394795,26.394795 0 0 1 -0.0272,-1.69661 l -26.74616,0.0313 a 53.17242,53.17242 0 0 0 0.0523,3.41204 53.17242,53.17242 0 0 0 0.61088,5.28019 53.17242,53.17242 0 0 0 1.13594,5.19025 53.17242,53.17242 0 0 0 1.64851,5.05426 53.17242,53.17242 0 0 0 2.14429,4.86179 53.17242,53.17242 0 0 0 2.61917,4.62328 53.17242,53.17242 0 0 0 3.06896,4.343 53.17242,53.17242 0 0 0 3.48317,4.01039 53.17242,53.17242 0 0 0 0.002,0 53.17242,53.17242 0 0 0 3.86809,3.6421 53.17242,53.17242 0 0 0 4.21328,3.24053 53.17242,53.17242 0 0 0 4.51454,2.80329 53.17242,53.17242 0 0 0 4.77393,2.33678 53.17242,53.17242 0 0 0 3.50618,1.36181 53.17242,53.17242 0 0 0 5.10237,1.49168 53.17242,53.17242 0 0 0 0.002,0 53.17242,53.17242 0 0 0 5.2258,0.97693 53.17242,53.17242 0 0 0 5.29275,0.45187 53.17242,53.17242 0 0 0 2.08363,-0.0309 z"
       style="opacity:1;fill:#ffffff;fill-opacity:1;stroke:#ffffff;stroke-width:0;stroke-linecap:round;stroke-miterlimit:4;stroke-dasharray:none;stroke-opacity:1" />
    <path
       style="opacity:1;fill:#2a2f30;fill-opacity:1;stroke:#2a2f30;stroke-width:0;stroke-linecap:round;stroke-miterlimit:4;stroke-dasharray:none;stroke-opacity:1"
       d="m 226.12806,759.29737 a 51.586888,51.586888 0 0 0 -3.31054,0.0469 51.586888,51.586888 0 0 0 -5.12305,0.58789 51.586888,51.586888 0 0 0 -5.03711,1.09571 51.586888,51.586888 0 0 0 -4.90625,1.59375 51.586888,51.586888 0 0 0 -4.71875,2.07421 51.586888,51.586888 0 0 0 -4.49023,2.53711 51.586888,51.586888 0 0 0 -4.21485,2.97071 51.586888,51.586888 0 0 0 -3.89453,3.375 51.586888,51.586888 0 0 0 -0.004,0.002 51.586888,51.586888 0 0 0 -3.53711,3.74805 51.586888,51.586888 0 0 0 -3.15039,4.08398 51.586888,51.586888 0 0 0 -2.72461,4.37891 51.586888,51.586888 0 0 0 -0.91211,1.85742 51.586888,51.586888 0 0 0 -0.14844,0.26172 51.586888,51.586888 0 0 0 -0.16406,0.37305 51.586888,51.586888 0 0 0 -1.04883,2.13476 51.586888,51.586888 0 0 0 -0.85352,2.19531 51.586888,51.586888 0 0 0 -0.008,0.0156 51.586888,51.586888 0 0 1 0,0.002 51.586888,51.586888 0 0 0 -0.46289,1.18945 51.586888,51.586888 0 0 0 -0.73242,2.49024 51.586888,51.586888 0 0 0 -0.39649,1.22461 51.586888,51.586888 0 0 0 -0.10937,0.49805 51.586888,51.586888 0 0 0 -0.21484,0.73437 51.586888,51.586888 0 0 0 0,0.002 51.586888,51.586888 0 0 0 -0.35352,1.87305 51.586888,51.586888 0 0 0 -0.41992,1.92969 51.586888,51.586888 0 0 0 -0.0879,0.76758 51.586888,51.586888 0 0 0 -0.0937,0.49804 51.586888,51.586888 0 0 0 -0.11133,1.29883 51.586888,51.586888 0 0 0 -0.29297,2.55859 51.586888,51.586888 0 0 0 -0.0137,1.01172 51.586888,51.586888 0 0 0 -0.0234,0.26563 51.586888,51.586888 0 0 0 0.01,0.67578 51.586888,51.586888 0 0 0 -0.0195,1.35742 l 0.0391,0 a 51.586888,51.586888 0 0 0 0.043,3.12305 51.586888,51.586888 0 0 0 0.58789,5.12305 51.586888,51.586888 0 0 0 1.0957,5.03906 51.586888,51.586888 0 0 0 1.59375,4.90429 51.586888,51.586888 0 0 0 2.07422,4.72266 51.586888,51.586888 0 0 0 2.53711,4.48828 51.586888,51.586888 0 0 0 2.9707,4.21485 51.586888,51.586888 0 0 0 3.37695,3.89453 51.586888,51.586888 0 0 0 3.75,3.54297 51.586888,51.586888 0 0 0 4.08204,3.14648 51.586888,51.586888 0 0 0 0.002,0 51.586888,51.586888 0 0 0 4.37695,2.72461 51.586888,51.586888 0 0 0 4.62891,2.27539 51.586888,51.586888 0 0 0 3.40234,1.32227 51.586888,51.586888 0 0 0 4.94727,1.45507 51.586888,51.586888 0 0 0 5.06836,0.95313 51.586888,51.586888 0 0 0 5.13672,0.44141 51.586888,51.586888 0 0 0 1.8457,-0.0254 l 0,0.002 a 25.607737,25.607737 0 0 1 0.92187,-0.0117 25.607737,25.607737 0 0 1 2.55079,0.21875 25.607737,25.607737 0 0 1 2.51562,0.47461 25.607737,25.607737 0 0 1 2.45313,0.7207 25.607737,25.607737 0 0 1 1.6914,0.65821 25.607737,25.607737 0 0 1 2.29688,1.13085 25.607737,25.607737 0 0 1 2.17187,1.34961 25.607737,25.607737 0 0 0 0.002,0.002 25.607737,25.607737 0 0 1 2.02539,1.56054 25.607737,25.607737 0 0 0 0.002,0.002 25.607737,25.607737 0 0 1 1.85937,1.75781 25.607737,25.607737 0 0 1 1.67969,1.93164 25.607737,25.607737 0 0 1 1.47266,2.0918 25.607737,25.607737 0 0 1 1.25976,2.22851 25.607737,25.607737 0 0 1 1.0293,2.34571 25.607737,25.607737 0 0 1 0.79102,2.43554 25.607737,25.607737 0 0 1 0.54492,2.5 25.607737,25.607737 0 0 1 0.29101,2.54297 25.607737,25.607737 0 0 1 0.0234,1.5918 l -0.12891,0 a 25.607737,25.607737 0 0 1 0.0117,0.92187 25.607737,25.607737 0 0 1 -0.21679,2.55078 25.607737,25.607737 0 0 1 -0.47071,2.51563 25.607737,25.607737 0 0 1 -0.71875,2.45508 25.607737,25.607737 0 0 1 -0.65625,1.6914 25.607737,25.607737 0 0 1 -1.12695,2.29883 25.607737,25.607737 0 0 1 -1.34766,2.17188 25.607737,25.607737 0 0 0 -0.002,0.002 25.607737,25.607737 0 0 1 -1.55859,2.0293 25.607737,25.607737 0 0 0 -0.002,0.002 25.607737,25.607737 0 0 1 -1.75586,1.85937 25.607737,25.607737 0 0 1 -1.92968,1.68165 25.607737,25.607737 0 0 1 -2.08985,1.47656 25.607737,25.607737 0 0 1 -2.22656,1.26367 25.607737,25.607737 0 0 1 -2.34375,1.03125 25.607737,25.607737 0 0 1 -2.43359,0.79297 25.607737,25.607737 0 0 1 -2.50196,0.54883 25.607737,25.607737 0 0 1 -2.54296,0.29297 25.607737,25.607737 0 0 1 -1.44141,0.0234 l 0,0.008 a 25.607737,25.607737 0 0 1 -0.61719,0.01 25.607737,25.607737 0 0 1 -2.54883,-0.21875 25.607737,25.607737 0 0 1 -2.51757,-0.46875 25.607737,25.607737 0 0 1 -2.45704,-0.71875 25.607737,25.607737 0 0 1 -1.68945,-0.6582 25.607737,25.607737 0 0 1 -2.29883,-1.125 25.607737,25.607737 0 0 1 -2.17578,-1.34961 25.607737,25.607737 0 0 1 -2.02734,-1.56055 25.607737,25.607737 0 0 1 -1.86328,-1.75586 25.607737,25.607737 0 0 1 -1.67969,-1.93164 25.607737,25.607737 0 0 1 -1.47656,-2.08984 25.607737,25.607737 0 0 1 -1.26368,-2.22656 25.607737,25.607737 0 0 1 -1.02734,-2.34375 25.607737,25.607737 0 0 1 -0.79883,-2.43165 25.607737,25.607737 0 0 1 -0.54297,-2.50195 25.607737,25.607737 0 0 1 -0.29687,-2.54297 25.607737,25.607737 0 0 1 -0.0273,-1.64453 l -25.94727,0.0293 a 51.586888,51.586888 0 0 0 0.0508,3.31055 51.586888,51.586888 0 0 0 0.5918,5.12304 51.586888,51.586888 0 0 0 1.10156,5.03516 51.586888,51.586888 0 0 0 1.59961,4.9043 51.586888,51.586888 0 0 0 2.08008,4.71679 51.586888,51.586888 0 0 0 2.54101,4.48438 51.586888,51.586888 0 0 0 2.97852,4.21289 51.586888,51.586888 0 0 0 3.37891,3.89258 51.586888,51.586888 0 0 0 0.002,0 51.586888,51.586888 0 0 0 3.7539,3.5332 51.586888,51.586888 0 0 0 4.08594,3.14258 51.586888,51.586888 0 0 0 4.38086,2.7207 51.586888,51.586888 0 0 0 4.63086,2.26758 51.586888,51.586888 0 0 0 3.40234,1.32031 51.586888,51.586888 0 0 0 4.94922,1.44727 51.586888,51.586888 0 0 0 0.004,0 51.586888,51.586888 0 0 0 5.06836,0.94726 51.586888,51.586888 0 0 0 5.13476,0.43946 51.586888,51.586888 0 0 0 1.41993,-0.0215 l 0,0.0117 a 51.586888,51.586888 0 0 0 3.31054,-0.0469 51.586888,51.586888 0 0 0 5.12305,-0.5879 51.586888,51.586888 0 0 0 5.03711,-1.0957 51.586888,51.586888 0 0 0 4.90625,-1.5918 51.586888,51.586888 0 0 0 4.71875,-2.07421 51.586888,51.586888 0 0 0 4.49023,-2.53711 51.586888,51.586888 0 0 0 4.21485,-2.97266 51.586888,51.586888 0 0 0 3.89453,-3.375 51.586888,51.586888 0 0 0 0.004,-0.002 51.586888,51.586888 0 0 0 3.53907,-3.74805 51.586888,51.586888 0 0 0 3.14843,-4.08398 51.586888,51.586888 0 0 0 2.72461,-4.37891 51.586888,51.586888 0 0 0 2.27344,-4.62695 51.586888,51.586888 0 0 0 1.32422,-3.40039 51.586888,51.586888 0 0 0 1.45313,-4.94922 51.586888,51.586888 0 0 0 0,-0.002 51.586888,51.586888 0 0 0 0.95507,-5.06836 51.586888,51.586888 0 0 0 0.44141,-5.13476 51.586888,51.586888 0 0 0 -0.0723,-5.15625 51.586888,51.586888 0 0 0 -0.58593,-5.12305 51.586888,51.586888 0 0 0 -1.09766,-5.03906 51.586888,51.586888 0 0 0 -1.5918,-4.9043 51.586888,51.586888 0 0 0 -2.07422,-4.72265 51.586888,51.586888 0 0 0 -2.5371,-4.48828 51.586888,51.586888 0 0 0 -2.97266,-4.21485 51.586888,51.586888 0 0 0 -3.37695,-3.89453 51.586888,51.586888 0 0 0 -3.75,-3.54297 51.586888,51.586888 0 0 0 -4.08203,-3.14648 51.586888,51.586888 0 0 0 -0.002,0 51.586888,51.586888 0 0 0 -4.375,-2.72461 51.586888,51.586888 0 0 0 -4.63086,-2.27539 51.586888,51.586888 0 0 0 -3.40039,-1.32227 51.586888,51.586888 0 0 0 -4.94922,-1.45508 51.586888,51.586888 0 0 0 -5.06836,-0.95312 51.586888,51.586888 0 0 0 -5.13671,-0.44141 51.586888,51.586888 0 0 0 -1.84376,0.0254 l 0,-0.002 a 25.607737,25.607737 0 0 1 -0.92382,0.0117 25.607737,25.607737 0 0 1 -2.54883,-0.21875 25.607737,25.607737 0 0 1 -2.51758,-0.47461 25.607737,25.607737 0 0 1 -2.45312,-0.7207 25.607737,25.607737 0 0 1 -1.69141,-0.65821 25.607737,25.607737 0 0 1 -2.29688,-1.1289 25.607737,25.607737 0 0 1 -2.17187,-1.34961 25.607737,25.607737 0 0 0 -0.002,-0.002 25.607737,25.607737 0 0 1 -2.02539,-1.5625 25.607737,25.607737 0 0 0 -0.002,-0.002 25.607737,25.607737 0 0 1 -1.85937,-1.75586 25.607737,25.607737 0 0 1 -1.67774,-1.93359 25.607737,25.607737 0 0 1 -1.47461,-2.0918 25.607737,25.607737 0 0 1 -1.25976,-2.22851 25.607737,25.607737 0 0 1 -1.0293,-2.34376 25.607737,25.607737 0 0 1 -0.78906,-2.43554 25.607737,25.607737 0 0 1 -0.54688,-2.50196 25.607737,25.607737 0 0 1 -0.28906,-2.54296 25.607737,25.607737 0 0 1 -0.0391,-2.5586 25.607737,25.607737 0 0 1 0.18555,-2.13281 25.607737,25.607737 0 0 1 0.0664,-0.58008 25.607737,25.607737 0 0 1 0.25196,-1.33789 25.607737,25.607737 0 0 1 0.30078,-1.39453 25.607737,25.607737 0 0 1 0.14062,-0.47852 25.607737,25.607737 0 0 1 0.68555,-2.09961 25.607737,25.607737 0 0 1 1.02734,-2.34374 25.607737,25.607737 0 0 1 1.25977,-2.22852 25.607737,25.607737 0 0 1 1.47461,-2.09375 25.607737,25.607737 0 0 1 1.67578,-1.93359 25.607737,25.607737 0 0 1 1.86133,-1.75782 25.607737,25.607737 0 0 1 2.02734,-1.5625 25.607737,25.607737 0 0 1 2.17383,-1.35156 25.607737,25.607737 0 0 1 2.29687,-1.12891 25.607737,25.607737 0 0 1 1.68946,-0.66015 25.607737,25.607737 0 0 1 2.45507,-0.7207 25.607737,25.607737 0 0 1 2.51758,-0.47266 25.607737,25.607737 0 0 1 2.54883,-0.2207 25.607737,25.607737 0 0 1 2.55859,0.0391 25.607737,25.607737 0 0 1 2.54297,0.28906 25.607737,25.607737 0 0 1 2.5,0.54688 25.607737,25.607737 0 0 1 2.43555,0.78906 25.607737,25.607737 0 0 1 2.3457,1.0293 25.607737,25.607737 0 0 1 2.22852,1.25976 25.607737,25.607737 0 0 1 2.0918,1.47461 25.607737,25.607737 0 0 1 1.93164,1.67773 25.607737,25.607737 0 0 1 1.75781,1.85938 25.607737,25.607737 0 0 1 0.002,0.002 25.607737,25.607737 0 0 1 1.56055,2.02539 25.607737,25.607737 0 0 1 0.002,0.002 25.607737,25.607737 0 0 1 1.34961,2.17187 25.607737,25.607737 0 0 1 1.13086,2.29688 25.607737,25.607737 0 0 1 0.6582,1.6914 25.607737,25.607737 0 0 1 0.72071,2.45313 25.607737,25.607737 0 0 1 0.47461,2.51758 25.607737,25.607737 0 0 1 0.21875,2.54882 25.607737,25.607737 0 0 1 -0.0117,0.92383 l 25.94726,0 a 51.586888,51.586888 0 0 0 0.0254,-1.85547 51.586888,51.586888 0 0 0 -0.4414,-5.13672 51.586888,51.586888 0 0 0 -0.95313,-5.06836 51.586888,51.586888 0 0 0 -1.45508,-4.94726 51.586888,51.586888 0 0 0 -1.32226,-3.40234 51.586888,51.586888 0 0 0 -2.27539,-4.62891 51.586888,51.586888 0 0 0 -2.72461,-4.37695 51.586888,51.586888 0 0 1 0,-0.002 51.586888,51.586888 0 0 0 -3.14844,-4.08008 51.586888,51.586888 0 0 0 -3.54101,-3.75195 51.586888,51.586888 0 0 0 -3.89454,-3.37695 51.586888,51.586888 0 0 0 -4.21484,-2.9707 51.586888,51.586888 0 0 0 -4.48828,-2.53711 51.586888,51.586888 0 0 0 -4.72266,-2.07422 51.586888,51.586888 0 0 0 -4.90429,-1.59375 51.586888,51.586888 0 0 0 -5.03907,-1.09571 51.586888,51.586888 0 0 0 -5.12304,-0.58593 51.586888,51.586888 0 0 0 -3.26368,-0.0469 l 0,-0.17773 z"
       id="path4264"
       inkscape:connector-curvature="0" />
    <text
       sodipodi:linespacing="124%"
       id="text4398"
       y="938.49017"
       x="277.27789"
       style="font-style:normal;font-variant:normal;font-weight:normal;font-stretch:normal;font-size:132.55459595px;line-height:124.00000095%;font-family:'DejaVu Sans';-inkscape-font-specification:'DejaVu Sans';letter-spacing:0px;word-spacing:0px;fill:#2a2f30;fill-opacity:1;stroke:#2a2f30;stroke-width:0;stroke-linecap:butt;stroke-linejoin:miter;stroke-miterlimit:4;stroke-dasharray:none;stroke-opacity:1"
       xml:space="preserve"><tspan
         y="938.49017"
         x="277.27789"
         id="tspan4400"
         sodipodi:role="line"
         style="stroke-width:0">ettings</tspan></text>
    <text
       xml:space="preserve"
       style="font-style:normal;font-variant:normal;font-weight:normal;font-stretch:normal;font-size:102.75590515px;line-height:124.00000095%;font-family:'DejaVu Sans';-inkscape-font-specification:'DejaVu Sans';letter-spacing:0px;word-spacing:0px;fill:#2a2f30;fill-opacity:1;stroke:#2a2f30;stroke-width:0;stroke-linecap:butt;stroke-linejoin:miter;stroke-miterlimit:4;stroke-dasharray:none;stroke-opacity:1"
       x="364.26315"
       y="818.4342"
       id="text4245"
       sodipodi:linespacing="124%"><tspan
         sodipodi:role="line"
         id="tspan4247"
         x="364.26315"
         y="818.4342"
         style="font-size:102.75590515px;stroke-width:0">ystem</tspan></text>
    <path
       style="opacity:1;fill:#ff7500;fill-opacity:1;stroke:#94d700;stroke-width:0;stroke-linecap:round;stroke-miterlimit:4;stroke-dasharray:none;stroke-opacity:1"
       d="m 303.31331,682.39154 a 51.586888,51.586888 0 0 0 -3.31055,0.0469 51.586888,51.586888 0 0 0 -5.12305,0.58594 51.586888,51.586888 0 0 0 -5.03711,1.0957 51.586888,51.586888 0 0 0 -4.90625,1.59375 51.586888,51.586888 0 0 0 -4.71875,2.07422 51.586888,51.586888 0 0 0 -4.48828,2.53711 51.586888,51.586888 0 0 0 -4.21679,2.9707 51.586888,51.586888 0 0 0 -3.89454,3.375 51.586888,51.586888 0 0 0 -0.004,0.002 51.586888,51.586888 0 0 0 -3.53711,3.75 51.586888,51.586888 0 0 0 -3.15039,4.08398 51.586888,51.586888 0 0 0 -2.72266,4.37695 51.586888,51.586888 0 0 0 -0.91992,1.8711 51.586888,51.586888 0 0 0 -0.14062,0.25 51.586888,51.586888 0 0 0 -0.15626,0.35547 51.586888,51.586888 0 0 0 -1.05664,2.15039 51.586888,51.586888 0 0 0 -0.86328,2.21289 51.586888,51.586888 0 0 0 -0.004,0.0117 51.586888,51.586888 0 0 0 -0.45899,1.17773 51.586888,51.586888 0 0 0 -0.73242,2.49023 51.586888,51.586888 0 0 0 -0.39648,1.22461 51.586888,51.586888 0 0 0 -0.10743,0.4961 51.586888,51.586888 0 0 0 -0.21679,0.73633 51.586888,51.586888 0 0 0 0,0.004 51.586888,51.586888 0 0 0 -0.35547,1.88867 51.586888,51.586888 0 0 0 -0.41602,1.91407 51.586888,51.586888 0 0 0 -0.0879,0.76367 51.586888,51.586888 0 0 0 -0.0937,0.5 51.586888,51.586888 0 0 0 -0.11133,1.28906 51.586888,51.586888 0 0 0 -0.29492,2.57031 51.586888,51.586888 0 0 0 -0.0137,1.01172 51.586888,51.586888 0 0 0 -0.0234,0.26367 51.586888,51.586888 0 0 0 0.01,0.66602 51.586888,51.586888 0 0 0 -0.0195,1.36719 l 0.002,0 0.0371,0 a 51.586888,51.586888 0 0 0 0.0449,3.125 51.586888,51.586888 0 0 0 0.58594,5.12304 51.586888,51.586888 0 0 0 1.0957,5.03907 51.586888,51.586888 0 0 0 1.59375,4.90429 51.586888,51.586888 0 0 0 2.07422,4.72266 51.586888,51.586888 0 0 0 2.53711,4.48633 51.586888,51.586888 0 0 0 2.9707,4.21679 51.586888,51.586888 0 0 0 3.37696,3.89454 51.586888,51.586888 0 0 0 3.75195,3.54101 51.586888,51.586888 0 0 0 4.08008,3.14844 51.586888,51.586888 0 0 0 0.002,0 51.586888,51.586888 0 0 0 4.37695,2.72265 51.586888,51.586888 0 0 0 4.62891,2.2754 51.586888,51.586888 0 0 0 3.40234,1.32421 51.586888,51.586888 0 0 0 4.94727,1.45508 51.586888,51.586888 0 0 0 5.06836,0.95117 51.586888,51.586888 0 0 0 5.13672,0.44336 51.586888,51.586888 0 0 0 1.8457,-0.0273 l 0,0.004 a 25.607737,25.607737 0 0 1 0.92188,-0.0117 25.607737,25.607737 0 0 1 2.55078,0.21875 25.607737,25.607737 0 0 1 2.51562,0.47461 25.607737,25.607737 0 0 1 2.45313,0.7207 25.607737,25.607737 0 0 1 1.6914,0.6582 25.607737,25.607737 0 0 1 2.29688,1.12891 25.607737,25.607737 0 0 1 2.17187,1.34961 25.607737,25.607737 0 0 0 0.002,0.002 25.607737,25.607737 0 0 1 2.02539,1.5625 25.607737,25.607737 0 0 0 0.002,0.002 25.607737,25.607737 0 0 1 1.85938,1.75781 25.607737,25.607737 0 0 1 1.67968,1.93164 25.607737,25.607737 0 0 1 1.47266,2.09179 25.607737,25.607737 0 0 1 1.25977,2.22852 25.607737,25.607737 0 0 1 1.02929,2.34375 25.607737,25.607737 0 0 1 0.79102,2.43555 25.607737,25.607737 0 0 1 0.54492,2.50195 25.607737,25.607737 0 0 1 0.29101,2.54297 25.607737,25.607737 0 0 1 0.0234,1.58984 l -0.1289,0 a 25.607737,25.607737 0 0 1 0.0117,0.92383 25.607737,25.607737 0 0 1 -0.2168,2.54883 25.607737,25.607737 0 0 1 -0.4707,2.51758 25.607737,25.607737 0 0 1 -0.71876,2.45508 25.607737,25.607737 0 0 1 -0.65624,1.6914 25.607737,25.607737 0 0 1 -1.12696,2.29883 25.607737,25.607737 0 0 1 -1.34765,2.17187 25.607737,25.607737 0 0 0 -0.002,0.002 25.607737,25.607737 0 0 1 -1.55859,2.02734 25.607737,25.607737 0 0 0 -0.002,0.002 25.607737,25.607737 0 0 1 -1.75586,1.86132 25.607737,25.607737 0 0 1 -1.92969,1.68164 25.607737,25.607737 0 0 1 -2.08984,1.47657 25.607737,25.607737 0 0 1 -2.22657,1.26367 25.607737,25.607737 0 0 1 -2.34375,1.03125 25.607737,25.607737 0 0 1 -2.43359,0.79297 25.607737,25.607737 0 0 1 -2.50195,0.54687 25.607737,25.607737 0 0 1 -2.54297,0.29492 25.607737,25.607737 0 0 1 -1.43946,0.0234 25.607737,25.607737 0 0 1 -0.0918,0.002 25.607737,25.607737 0 0 1 -1.02735,0.0156 25.607737,25.607737 0 0 1 -2.54883,-0.21875 25.607737,25.607737 0 0 1 -2.51757,-0.46875 25.607737,25.607737 0 0 1 -2.45703,-0.71875 25.607737,25.607737 0 0 1 -1.68946,-0.6582 25.607737,25.607737 0 0 1 -2.29883,-1.125 25.607737,25.607737 0 0 1 -2.17578,-1.34961 25.607737,25.607737 0 0 1 -2.02734,-1.56055 25.607737,25.607737 0 0 1 -1.38672,-1.30664 25.607737,25.607737 0 0 1 -0.47656,-0.44922 25.607737,25.607737 0 0 1 -1.67969,-1.93164 25.607737,25.607737 0 0 1 -1.47656,-2.08984 25.607737,25.607737 0 0 1 -1.26367,-2.22657 25.607737,25.607737 0 0 1 -1.02735,-2.34375 25.607737,25.607737 0 0 1 -0.79883,-2.43164 25.607737,25.607737 0 0 1 -0.54296,-2.50195 25.607737,25.607737 0 0 1 -0.29688,-2.54297 25.607737,25.607737 0 0 1 -0.0254,-1.64453 l -25.94922,0.0293 a 51.586888,51.586888 0 0 0 0.0508,3.31054 51.586888,51.586888 0 0 0 0.5918,5.12305 51.586888,51.586888 0 0 0 1.10156,5.03516 51.586888,51.586888 0 0 0 1.59961,4.90429 51.586888,51.586888 0 0 0 2.08008,4.7168 51.586888,51.586888 0 0 0 2.54297,4.48438 51.586888,51.586888 0 0 0 2.97656,4.21289 51.586888,51.586888 0 0 0 3.37891,3.89257 51.586888,51.586888 0 0 0 0.002,0.004 51.586888,51.586888 0 0 0 3.75391,3.5332 51.586888,51.586888 0 0 0 0.94726,0.72852 51.586888,51.586888 0 0 0 3.13867,2.41406 51.586888,51.586888 0 0 0 4.38086,2.7207 51.586888,51.586888 0 0 0 4.63086,2.26758 51.586888,51.586888 0 0 0 3.40235,1.32032 51.586888,51.586888 0 0 0 4.95117,1.44726 51.586888,51.586888 0 0 0 0.002,0 51.586888,51.586888 0 0 0 5.06641,0.94727 51.586888,51.586888 0 0 0 0.002,0 51.586888,51.586888 0 0 0 5.13477,0.43945 51.586888,51.586888 0 0 0 1.91992,-0.0293 l 0,0.0156 a 51.586888,51.586888 0 0 0 3.31054,-0.0469 51.586888,51.586888 0 0 0 5.12305,-0.58789 51.586888,51.586888 0 0 0 5.03711,-1.0957 51.586888,51.586888 0 0 0 4.90625,-1.59375 51.586888,51.586888 0 0 0 4.71875,-2.07422 51.586888,51.586888 0 0 0 4.49024,-2.53711 51.586888,51.586888 0 0 0 4.21484,-2.9707 51.586888,51.586888 0 0 0 3.89453,-3.375 51.586888,51.586888 0 0 0 0.004,-0.002 51.586888,51.586888 0 0 0 3.53906,-3.74804 51.586888,51.586888 0 0 0 3.14844,-4.08399 51.586888,51.586888 0 0 0 2.72461,-4.3789 51.586888,51.586888 0 0 0 2.27343,-4.62696 51.586888,51.586888 0 0 0 1.32422,-3.40234 51.586888,51.586888 0 0 0 1.45313,-4.94727 51.586888,51.586888 0 0 0 0,-0.002 51.586888,51.586888 0 0 0 0.95508,-5.06836 51.586888,51.586888 0 0 0 0.4414,-5.13476 51.586888,51.586888 0 0 0 -0.0723,-5.15625 51.586888,51.586888 0 0 0 -0.58594,-5.12305 51.586888,51.586888 0 0 0 -1.09766,-5.04102 51.586888,51.586888 0 0 0 -1.59179,-4.90234 51.586888,51.586888 0 0 0 -2.07422,-4.72266 51.586888,51.586888 0 0 0 -2.53711,-4.48828 51.586888,51.586888 0 0 0 -2.97266,-4.21484 51.586888,51.586888 0 0 0 -3.37695,-3.89453 51.586888,51.586888 0 0 0 -3.75,-3.54297 51.586888,51.586888 0 0 0 -4.08203,-3.14649 51.586888,51.586888 0 0 0 -0.002,0 51.586888,51.586888 0 0 0 -4.375,-2.7246 51.586888,51.586888 0 0 0 -4.63086,-2.2754 51.586888,51.586888 0 0 0 -3.40039,-1.32226 51.586888,51.586888 0 0 0 -4.94922,-1.45703 51.586888,51.586888 0 0 0 -5.06835,-0.95117 51.586888,51.586888 0 0 0 -5.13672,-0.44141 51.586888,51.586888 0 0 0 -1.84375,0.0254 l 0,-0.002 a 25.607737,25.607737 0 0 1 -0.92383,0.0117 25.607737,25.607737 0 0 1 -2.54883,-0.21875 25.607737,25.607737 0 0 1 -2.51758,-0.47461 25.607737,25.607737 0 0 1 -2.45312,-0.72071 25.607737,25.607737 0 0 1 -1.68946,-0.6582 25.607737,25.607737 0 0 1 -2.29882,-1.13086 25.607737,25.607737 0 0 1 -2.17188,-1.34961 25.607737,25.607737 0 0 0 -0.002,-0.002 25.607737,25.607737 0 0 1 -2.02539,-1.56055 25.607737,25.607737 0 0 0 -0.002,-0.002 25.607737,25.607737 0 0 1 -1.85937,-1.75781 25.607737,25.607737 0 0 1 -1.67773,-1.93164 25.607737,25.607737 0 0 1 -1.47461,-2.09375 25.607737,25.607737 0 0 1 -1.25977,-2.22852 25.607737,25.607737 0 0 1 -1.0293,-2.34375 25.607737,25.607737 0 0 1 -0.78906,-2.43555 25.607737,25.607737 0 0 1 -0.54687,-2.5 25.607737,25.607737 0 0 1 -0.28907,-2.54297 25.607737,25.607737 0 0 1 -0.0391,-2.56054 25.607737,25.607737 0 0 1 0.18164,-2.09961 25.607737,25.607737 0 0 1 0.0703,-0.61914 25.607737,25.607737 0 0 1 0.24414,-1.29883 25.607737,25.607737 0 0 1 0.31055,-1.42578 25.607737,25.607737 0 0 1 0.14063,-0.48047 25.607737,25.607737 0 0 1 0.68359,-2.09961 25.607737,25.607737 0 0 1 1.02734,-2.34375 25.607737,25.607737 0 0 1 1.25977,-2.22852 25.607737,25.607737 0 0 1 1.47656,-2.09179 25.607737,25.607737 0 0 1 1.67383,-1.93555 25.607737,25.607737 0 0 1 1.86133,-1.75586 25.607737,25.607737 0 0 1 2.02734,-1.56445 25.607737,25.607737 0 0 1 2.17383,-1.35156 25.607737,25.607737 0 0 1 2.29688,-1.12891 25.607737,25.607737 0 0 1 1.68945,-0.6582 25.607737,25.607737 0 0 1 2.45508,-0.72071 25.607737,25.607737 0 0 1 2.51757,-0.47265 25.607737,25.607737 0 0 1 2.54883,-0.22266 25.607737,25.607737 0 0 1 2.5586,0.0391 25.607737,25.607737 0 0 1 2.54297,0.29102 25.607737,25.607737 0 0 1 2.50195,0.54492 25.607737,25.607737 0 0 1 2.43555,0.79102 25.607737,25.607737 0 0 1 2.34374,1.02734 25.607737,25.607737 0 0 1 2.22852,1.26172 25.607737,25.607737 0 0 1 2.0918,1.47266 25.607737,25.607737 0 0 1 1.93359,1.67968 25.607737,25.607737 0 0 1 1.75781,1.85742 25.607737,25.607737 0 0 1 0.002,0.002 25.607737,25.607737 0 0 1 1.56054,2.02734 25.607737,25.607737 0 0 1 0.002,0.002 25.607737,25.607737 0 0 1 1.34961,2.16993 25.607737,25.607737 0 0 1 1.13086,2.29882 25.607737,25.607737 0 0 1 0.65625,1.68946 25.607737,25.607737 0 0 1 0.7207,2.45508 25.607737,25.607737 0 0 1 0.47461,2.51562 25.607737,25.607737 0 0 1 0.2207,2.55078 25.607737,25.607737 0 0 1 -0.0137,0.92188 l 25.94726,0 a 51.586888,51.586888 0 0 0 0.0254,-1.85352 51.586888,51.586888 0 0 0 -0.44141,-5.13867 51.586888,51.586888 0 0 0 -0.95117,-5.06641 51.586888,51.586888 0 0 0 -1.45703,-4.94922 51.586888,51.586888 0 0 0 -1.32227,-3.40039 51.586888,51.586888 0 0 0 -2.27539,-4.63086 51.586888,51.586888 0 0 0 -2.72461,-4.375 51.586888,51.586888 0 0 1 0,-0.002 51.586888,51.586888 0 0 0 -3.14648,-4.08203 51.586888,51.586888 0 0 0 -3.54297,-3.75 51.586888,51.586888 0 0 0 -3.89453,-3.37891 51.586888,51.586888 0 0 0 -4.21485,-2.9707 51.586888,51.586888 0 0 0 -4.48828,-2.53711 51.586888,51.586888 0 0 0 -4.72265,-2.07422 51.586888,51.586888 0 0 0 -4.90235,-1.59375 51.586888,51.586888 0 0 0 -5.04101,-1.0957 51.586888,51.586888 0 0 0 -5.12305,-0.58594 51.586888,51.586888 0 0 0 -3.26367,-0.0449 l 0,-0.17773 z"
       id="path4423"
       inkscape:connector-curvature="0" />
    <path
       style="opacity:1;fill:url(#linearGradient4255);fill-opacity:1;stroke:#94d700;stroke-width:0;stroke-linecap:round;stroke-miterlimit:4;stroke-dasharray:none;stroke-opacity:1"
       d="m 303.31331,682.40321 a 51.586888,51.586888 0 0 0 -3.31055,0.0469 51.586888,51.586888 0 0 0 -5.12305,0.58594 51.586888,51.586888 0 0 0 -5.03711,1.0957 51.586888,51.586888 0 0 0 -4.90625,1.59375 51.586888,51.586888 0 0 0 -4.71875,2.07422 51.586888,51.586888 0 0 0 -4.48828,2.53711 51.586888,51.586888 0 0 0 -4.21679,2.9707 51.586888,51.586888 0 0 0 -3.89454,3.375 51.586888,51.586888 0 0 0 -0.004,0.002 51.586888,51.586888 0 0 0 -3.53711,3.75 51.586888,51.586888 0 0 0 -3.15039,4.08398 51.586888,51.586888 0 0 0 -2.72266,4.37695 51.586888,51.586888 0 0 0 -0.91992,1.8711 51.586888,51.586888 0 0 0 -0.14062,0.25 51.586888,51.586888 0 0 0 -0.15626,0.35547 51.586888,51.586888 0 0 0 -1.05664,2.15039 51.586888,51.586888 0 0 0 -0.86328,2.21289 51.586888,51.586888 0 0 0 -0.004,0.0117 51.586888,51.586888 0 0 0 -0.45899,1.17773 51.586888,51.586888 0 0 0 -0.73242,2.49023 51.586888,51.586888 0 0 0 -0.39648,1.22461 51.586888,51.586888 0 0 0 -0.10743,0.4961 51.586888,51.586888 0 0 0 -0.21679,0.73633 51.586888,51.586888 0 0 0 0,0.004 51.586888,51.586888 0 0 0 -0.35547,1.88867 51.586888,51.586888 0 0 0 -0.41602,1.91407 51.586888,51.586888 0 0 0 -0.0879,0.76367 51.586888,51.586888 0 0 0 -0.0937,0.5 51.586888,51.586888 0 0 0 -0.11133,1.28906 51.586888,51.586888 0 0 0 -0.29492,2.57031 51.586888,51.586888 0 0 0 -0.0137,1.01172 51.586888,51.586888 0 0 0 -0.0234,0.26367 51.586888,51.586888 0 0 0 0.01,0.66602 51.586888,51.586888 0 0 0 -0.0195,1.36719 l 0.002,0 0.0371,0 a 51.586888,51.586888 0 0 0 0.0449,3.125 51.586888,51.586888 0 0 0 0.58594,5.12304 51.586888,51.586888 0 0 0 1.0957,5.03907 51.586888,51.586888 0 0 0 1.59375,4.90429 51.586888,51.586888 0 0 0 2.07422,4.72266 51.586888,51.586888 0 0 0 2.53711,4.48633 51.586888,51.586888 0 0 0 2.9707,4.21679 51.586888,51.586888 0 0 0 3.37696,3.89454 51.586888,51.586888 0 0 0 3.75195,3.54101 51.586888,51.586888 0 0 0 4.08008,3.14844 51.586888,51.586888 0 0 0 0.002,0 51.586888,51.586888 0 0 0 4.37695,2.72265 51.586888,51.586888 0 0 0 4.62891,2.2754 51.586888,51.586888 0 0 0 3.40234,1.32421 51.586888,51.586888 0 0 0 4.94727,1.45506 51.586888,51.586888 0 0 0 5.06836,0.9512 51.586888,51.586888 0 0 0 5.13672,0.4434 51.586888,51.586888 0 0 0 1.8457,-0.027 l 0,0 a 25.607737,25.607737 0 0 1 0.92188,-0.012 25.607737,25.607737 0 0 1 2.55078,0.2187 25.607737,25.607737 0 0 1 2.51562,0.4746 25.607737,25.607737 0 0 1 2.45313,0.7207 25.607737,25.607737 0 0 1 1.6914,0.6582 25.607737,25.607737 0 0 1 2.29688,1.1289 25.607737,25.607737 0 0 1 2.17187,1.3496 25.607737,25.607737 0 0 0 0.002,0 25.607737,25.607737 0 0 1 2.02539,1.5625 25.607737,25.607737 0 0 0 0.002,0 25.607737,25.607737 0 0 1 1.85938,1.7578 25.607737,25.607737 0 0 1 1.67968,1.9317 25.607737,25.607737 0 0 1 1.47266,2.0918 25.607737,25.607737 0 0 1 1.25977,2.2285 25.607737,25.607737 0 0 1 1.02929,2.3437 25.607737,25.607737 0 0 1 0.79102,2.4356 25.607737,25.607737 0 0 1 0.54492,2.5019 25.607737,25.607737 0 0 1 0.29101,2.543 25.607737,25.607737 0 0 1 0.0234,1.5899 l -0.1289,0 a 25.607737,25.607737 0 0 1 0.0117,0.9238 25.607737,25.607737 0 0 1 -0.2168,2.5488 25.607737,25.607737 0 0 1 -0.4707,2.5176 25.607737,25.607737 0 0 1 -0.71876,2.4551 25.607737,25.607737 0 0 1 -0.65624,1.6914 25.607737,25.607737 0 0 1 -1.12696,2.2988 25.607737,25.607737 0 0 1 -1.34765,2.1719 25.607737,25.607737 0 0 0 -0.002,0 25.607737,25.607737 0 0 1 -1.55859,2.0273 25.607737,25.607737 0 0 0 -0.002,0 25.607737,25.607737 0 0 1 -1.75586,1.8613 25.607737,25.607737 0 0 1 -1.92969,1.6817 25.607737,25.607737 0 0 1 -2.08984,1.4765 25.607737,25.607737 0 0 1 -2.22657,1.2637 25.607737,25.607737 0 0 1 -2.34375,1.0313 25.607737,25.607737 0 0 1 -2.43359,0.7929 25.607737,25.607737 0 0 1 -2.50195,0.5469 25.607737,25.607737 0 0 1 -2.54297,0.2949 25.607737,25.607737 0 0 1 -1.43946,0.023 25.607737,25.607737 0 0 1 -0.0918,0 25.607737,25.607737 0 0 1 -1.02735,0.016 25.607737,25.607737 0 0 1 -2.54883,-0.2187 25.607737,25.607737 0 0 1 -2.51757,-0.4688 25.607737,25.607737 0 0 1 -2.45703,-0.7187 25.607737,25.607737 0 0 1 -1.68946,-0.6582 25.607737,25.607737 0 0 1 -2.29883,-1.125 25.607737,25.607737 0 0 1 -2.17578,-1.3496 25.607737,25.607737 0 0 1 -2.02734,-1.5606 25.607737,25.607737 0 0 1 -1.38672,-1.3066 25.607737,25.607737 0 0 1 -0.47656,-0.4492 25.607737,25.607737 0 0 1 -1.67969,-1.9317 25.607737,25.607737 0 0 1 -1.47656,-2.0898 25.607737,25.607737 0 0 1 -1.26367,-2.2266 25.607737,25.607737 0 0 1 -1.02735,-2.3437 25.607737,25.607737 0 0 1 -0.79883,-2.4317 25.607737,25.607737 0 0 1 -0.54296,-2.5019 25.607737,25.607737 0 0 1 -0.29688,-2.543 25.607737,25.607737 0 0 1 -0.0254,-1.6445 l -25.94922,0.029 a 51.586888,51.586888 0 0 0 0.0508,3.3105 51.586888,51.586888 0 0 0 0.5918,5.1231 51.586888,51.586888 0 0 0 1.10156,5.0351 51.586888,51.586888 0 0 0 1.59961,4.9043 51.586888,51.586888 0 0 0 2.08008,4.7168 51.586888,51.586888 0 0 0 2.54297,4.4844 51.586888,51.586888 0 0 0 2.97656,4.2129 51.586888,51.586888 0 0 0 3.37891,3.8925 51.586888,51.586888 0 0 0 0.002,0 51.586888,51.586888 0 0 0 3.75391,3.5332 51.586888,51.586888 0 0 0 0.94726,0.7286 51.586888,51.586888 0 0 0 3.13867,2.414 51.586888,51.586888 0 0 0 4.38086,2.7207 51.586888,51.586888 0 0 0 4.63086,2.2676 51.586888,51.586888 0 0 0 3.40235,1.3203 51.586888,51.586888 0 0 0 4.95117,1.4473 51.586888,51.586888 0 0 0 0.002,0 51.586888,51.586888 0 0 0 5.06641,0.9472 51.586888,51.586888 0 0 0 0.002,0 51.586888,51.586888 0 0 0 5.13477,0.4395 51.586888,51.586888 0 0 0 1.91992,-0.029 l 0,0.016 a 51.586888,51.586888 0 0 0 3.31054,-0.047 51.586888,51.586888 0 0 0 5.12305,-0.5879 51.586888,51.586888 0 0 0 5.03711,-1.0957 51.586888,51.586888 0 0 0 4.90625,-1.5937 51.586888,51.586888 0 0 0 4.71875,-2.0743 51.586888,51.586888 0 0 0 4.49024,-2.5371 51.586888,51.586888 0 0 0 4.21484,-2.9707 51.586888,51.586888 0 0 0 3.89453,-3.375 51.586888,51.586888 0 0 0 0.004,0 51.586888,51.586888 0 0 0 3.53906,-3.748 51.586888,51.586888 0 0 0 3.14844,-4.084 51.586888,51.586888 0 0 0 2.72461,-4.3789 51.586888,51.586888 0 0 0 2.27343,-4.627 51.586888,51.586888 0 0 0 1.32422,-3.4023 51.586888,51.586888 0 0 0 1.45313,-4.9473 51.586888,51.586888 0 0 0 0.95508,-5.0683 51.586888,51.586888 0 0 0 0.4414,-5.1348 51.586888,51.586888 0 0 0 -0.0723,-5.1562 51.586888,51.586888 0 0 0 -0.58594,-5.1231 51.586888,51.586888 0 0 0 -1.09766,-5.041 51.586888,51.586888 0 0 0 -1.59179,-4.9023 51.586888,51.586888 0 0 0 -2.07422,-4.7227 51.586888,51.586888 0 0 0 -2.53711,-4.4883 51.586888,51.586888 0 0 0 -2.97266,-4.21483 51.586888,51.586888 0 0 0 -3.37695,-3.89453 51.586888,51.586888 0 0 0 -3.75,-3.54297 51.586888,51.586888 0 0 0 -4.08203,-3.14649 51.586888,51.586888 0 0 0 -0.002,0 51.586888,51.586888 0 0 0 -4.375,-2.7246 51.586888,51.586888 0 0 0 -4.63086,-2.2754 51.586888,51.586888 0 0 0 -3.40039,-1.32226 51.586888,51.586888 0 0 0 -4.94922,-1.45703 51.586888,51.586888 0 0 0 -5.06835,-0.95117 51.586888,51.586888 0 0 0 -5.13672,-0.44141 51.586888,51.586888 0 0 0 -1.84375,0.0254 l 0,-0.002 a 25.607737,25.607737 0 0 1 -0.92383,0.0117 25.607737,25.607737 0 0 1 -2.54883,-0.21875 25.607737,25.607737 0 0 1 -2.51758,-0.47461 25.607737,25.607737 0 0 1 -2.45312,-0.72071 25.607737,25.607737 0 0 1 -1.68946,-0.6582 25.607737,25.607737 0 0 1 -2.29882,-1.13086 25.607737,25.607737 0 0 1 -2.17188,-1.34961 25.607737,25.607737 0 0 0 -0.002,-0.002 25.607737,25.607737 0 0 1 -2.02539,-1.56055 25.607737,25.607737 0 0 0 -0.002,-0.002 25.607737,25.607737 0 0 1 -1.85937,-1.75781 25.607737,25.607737 0 0 1 -1.67773,-1.93164 25.607737,25.607737 0 0 1 -1.47461,-2.09375 25.607737,25.607737 0 0 1 -1.25977,-2.22852 25.607737,25.607737 0 0 1 -1.0293,-2.34375 25.607737,25.607737 0 0 1 -0.78906,-2.43555 25.607737,25.607737 0 0 1 -0.54687,-2.5 25.607737,25.607737 0 0 1 -0.28907,-2.54297 25.607737,25.607737 0 0 1 -0.0391,-2.56054 25.607737,25.607737 0 0 1 0.18164,-2.09961 25.607737,25.607737 0 0 1 0.0703,-0.61914 25.607737,25.607737 0 0 1 0.24414,-1.29883 25.607737,25.607737 0 0 1 0.31055,-1.42578 25.607737,25.607737 0 0 1 0.14063,-0.48047 25.607737,25.607737 0 0 1 0.68359,-2.09961 25.607737,25.607737 0 0 1 1.02734,-2.34375 25.607737,25.607737 0 0 1 1.25977,-2.22852 25.607737,25.607737 0 0 1 1.47656,-2.09179 25.607737,25.607737 0 0 1 1.67383,-1.93555 25.607737,25.607737 0 0 1 1.86133,-1.75586 25.607737,25.607737 0 0 1 2.02734,-1.56445 25.607737,25.607737 0 0 1 2.17383,-1.35156 25.607737,25.607737 0 0 1 2.29688,-1.12891 25.607737,25.607737 0 0 1 1.68945,-0.6582 25.607737,25.607737 0 0 1 2.45508,-0.72071 25.607737,25.607737 0 0 1 2.51757,-0.47265 25.607737,25.607737 0 0 1 2.54883,-0.22266 25.607737,25.607737 0 0 1 2.5586,0.0391 25.607737,25.607737 0 0 1 2.54297,0.29102 25.607737,25.607737 0 0 1 2.50195,0.54492 25.607737,25.607737 0 0 1 2.43555,0.79102 25.607737,25.607737 0 0 1 2.34374,1.02734 25.607737,25.607737 0 0 1 2.22852,1.26172 25.607737,25.607737 0 0 1 2.0918,1.47266 25.607737,25.607737 0 0 1 1.93359,1.67968 25.607737,25.607737 0 0 1 1.75781,1.85742 25.607737,25.607737 0 0 1 0.002,0.002 25.607737,25.607737 0 0 1 1.56054,2.02734 25.607737,25.607737 0 0 1 0.002,0.002 25.607737,25.607737 0 0 1 1.34961,2.16993 25.607737,25.607737 0 0 1 1.13086,2.29882 25.607737,25.607737 0 0 1 0.65625,1.68946 25.607737,25.607737 0 0 1 0.7207,2.45508 25.607737,25.607737 0 0 1 0.47461,2.51562 25.607737,25.607737 0 0 1 0.2207,2.55078 25.607737,25.607737 0 0 1 -0.0137,0.92188 l 25.94726,0 a 51.586888,51.586888 0 0 0 0.0254,-1.85352 51.586888,51.586888 0 0 0 -0.44141,-5.13867 51.586888,51.586888 0 0 0 -0.95117,-5.06641 51.586888,51.586888 0 0 0 -1.45703,-4.94922 51.586888,51.586888 0 0 0 -1.32227,-3.40039 51.586888,51.586888 0 0 0 -2.27539,-4.63086 51.586888,51.586888 0 0 0 -2.72461,-4.375 51.586888,51.586888 0 0 1 0,-0.002 51.586888,51.586888 0 0 0 -3.14648,-4.08203 51.586888,51.586888 0 0 0 -3.54297,-3.75 51.586888,51.586888 0 0 0 -3.89453,-3.37891 51.586888,51.586888 0 0 0 -4.21485,-2.9707 51.586888,51.586888 0 0 0 -4.48828,-2.53711 51.586888,51.586888 0 0 0 -4.72265,-2.07422 51.586888,51.586888 0 0 0 -4.90235,-1.59375 51.586888,51.586888 0 0 0 -5.04101,-1.0957 51.586888,51.586888 0 0 0 -5.12305,-0.58594 51.586888,51.586888 0 0 0 -3.26367,-0.0449 l 0,-0.17773 z"
       id="path4423-7"
       inkscape:connector-curvature="0" />
  </g>
</svg>
