<?xml version="1.0" encoding="UTF-8" standalone="no"?>
<!-- Created with Inkscape (http://www.inkscape.org/) -->

<svg
   width="745mm"
   height="512mm"
   viewBox="0 0 745 512"
   version="1.1"
   id="svg1"
   xml:space="preserve"
   inkscape:export-filename="../../../../for logo/accounting1.svg"
   inkscape:export-xdpi="96"
   inkscape:export-ydpi="96"
   sodipodi:docname="accounts-payable.svg"
   inkscape:version="1.3 (0e150ed, 2023-07-21)"
   xmlns:inkscape="http://www.inkscape.org/namespaces/inkscape"
   xmlns:sodipodi="http://sodipodi.sourceforge.net/DTD/sodipodi-0.dtd"
   xmlns="http://www.w3.org/2000/svg"
   xmlns:svg="http://www.w3.org/2000/svg"><sodipodi:namedview
     id="namedview1"
     pagecolor="#ffffff"
     bordercolor="#000000"
     borderopacity="0.25"
     inkscape:showpageshadow="2"
     inkscape:pageopacity="0.0"
     inkscape:pagecheckerboard="0"
     inkscape:deskcolor="#d1d1d1"
     inkscape:document-units="mm"
     showgrid="true"
     inkscape:zoom="0.23037935"
     inkscape:cx="1408.5464"
     inkscape:cy="1078.6557"
     inkscape:window-width="1600"
     inkscape:window-height="851"
     inkscape:window-x="0"
     inkscape:window-y="28"
     inkscape:window-maximized="1"
     inkscape:current-layer="layer1"><inkscape:grid
       id="grid67"
       units="mm"
       originx="0"
       originy="0"
       spacingx="0.99999999"
       spacingy="0.99999997"
       empcolor="#0099e5"
       empopacity="0.30196078"
       color="#0099e5"
       opacity="0.14901961"
       empspacing="5"
       dotted="false"
       gridanglex="30"
       gridanglez="30"
       visible="true" /></sodipodi:namedview><defs
     id="defs1" /><g
     inkscape:label="Layer 1"
     inkscape:groupmode="layer"
     id="layer1"
     style="display:inline"><text
       xml:space="preserve"
       style="font-size:49.3889px;fill:#12437b;fill-opacity:1;stroke-width:0.264583"
       x="240.9516"
       y="445.92023"
       id="text8012"><tspan
         sodipodi:role="line"
         id="tspan8012"
         style="font-style:normal;font-variant:normal;font-weight:bold;font-stretch:normal;font-size:49.3889px;font-family:sans-serif;-inkscape-font-specification:'sans-serif Bold';fill:#12437b;fill-opacity:1;stroke-width:0.264583"
         x="240.9516"
         y="445.92023">VOUCHER</tspan></text><g
       style="opacity:1;enable-background:new"
       id="g64"
       transform="matrix(2.157891,0,0,2.157891,612.43271,-468.21015)"><g
         id="layer1-79"
         transform="translate(0,-452.36)"><g
           style="enable-background:new"
           id="g65"
           transform="matrix(0.32893493,0,0,0.32893493,-210.98745,686.98783)"><g
             id="layer1-3"
             transform="translate(0,-452.36)"><path
               id="circle4221"
               style="enable-background:new"
               d="M 313.39188,503.45732 A 228.08491,228.08491 0 0 0 85.306964,731.54223 228.08491,228.08491 0 0 0 313.39188,959.62714 228.08491,228.08491 0 0 0 541.47679,731.54223 228.08491,228.08491 0 0 0 313.39188,503.45732 Z m 0,18.65084 a 209.43975,209.43975 0 0 1 20.90873,1.04728 209.43975,209.43975 0 0 1 20.69954,3.12818 209.43975,209.43975 0 0 1 20.28571,5.17949 209.43975,209.43975 0 0 1 19.6661,7.17839 209.43975,209.43975 0 0 1 18.85094,9.10669 209.43975,209.43975 0 0 1 17.84706,10.94175 209.43975,209.43975 0 0 1 16.66582,12.66962 209.43975,209.43975 0 0 1 15.31973,14.27037 209.43975,209.43975 0 0 1 13.81448,15.72674 209.43975,209.43975 0 0 1 12.17847,17.02962 209.43975,209.43975 0 0 1 10.4181,18.15857 209.43975,209.43975 0 0 1 8.55119,19.11016 209.43975,209.43975 0 0 1 6.60005,19.86619 209.43975,209.43975 0 0 1 4.58523,20.42669 209.43975,209.43975 0 0 1 2.52256,20.7814 209.43975,209.43975 0 0 1 0.5259,14.81608 209.43975,209.43975 0 0 1 -1.04726,20.90646 209.43975,209.43975 0 0 1 -3.12818,20.70181 209.43975,209.43975 0 0 1 -5.17949,20.28344 209.43975,209.43975 0 0 1 -7.17839,19.6661 209.43975,209.43975 0 0 1 -9.10669,18.85094 209.43975,209.43975 0 0 1 -10.94175,17.84706 209.43975,209.43975 0 0 1 -12.66962,16.66809 209.43975,209.43975 0 0 1 -14.27037,15.31746 209.43975,209.43975 0 0 1 -15.72674,13.81675 209.43975,209.43975 0 0 1 -17.02962,12.1762 209.43975,209.43975 0 0 1 -18.15857,10.41809 209.43975,209.43975 0 0 1 -19.11016,8.5512 209.43975,209.43975 0 0 1 -19.86619,6.60005 209.43975,209.43975 0 0 1 -20.42669,4.58523 209.43975,209.43975 0 0 1 -20.7814,2.52255 209.43975,209.43975 0 0 1 -14.81608,0.52593 209.43975,209.43975 0 0 1 -20.90646,-1.04728 209.43975,209.43975 0 0 1 -20.70181,-3.12818 209.43975,209.43975 0 0 1 -20.28344,-5.17949 209.43975,209.43975 0 0 1 -19.6661,-7.17838 209.43975,209.43975 0 0 1 -18.85094,-9.10669 209.43975,209.43975 0 0 1 -17.84706,-10.94175 209.43975,209.43975 0 0 1 -16.66809,-12.66962 209.43975,209.43975 0 0 1 -15.31746,-14.27037 209.43975,209.43975 0 0 1 -13.81675,-15.72674 209.43975,209.43975 0 0 1 -12.1762,-17.02963 209.43975,209.43975 0 0 1 -10.4181,-18.15857 209.43975,209.43975 0 0 1 -8.55119,-19.10788 209.43975,209.43975 0 0 1 -6.60005,-19.86847 209.43975,209.43975 0 0 1 -4.58523,-20.42668 209.43975,209.43975 0 0 1 -2.52256,-20.7814 209.43975,209.43975 0 0 1 -0.52593,-14.81381 209.43975,209.43975 0 0 1 1.04728,-20.90873 209.43975,209.43975 0 0 1 3.12818,-20.69954 209.43975,209.43975 0 0 1 5.1795,-20.28571 209.43975,209.43975 0 0 1 7.17838,-19.6661 209.43975,209.43975 0 0 1 9.10669,-18.85094 209.43975,209.43975 0 0 1 10.94175,-17.84706 209.43975,209.43975 0 0 1 12.66962,-16.66582 209.43975,209.43975 0 0 1 14.27037,-15.31973 209.43975,209.43975 0 0 1 15.72674,-13.81448 209.43975,209.43975 0 0 1 17.02963,-12.17847 209.43975,209.43975 0 0 1 18.15857,-10.41582 209.43975,209.43975 0 0 1 19.10788,-8.55347 209.43975,209.43975 0 0 1 19.86847,-6.60005 209.43975,209.43975 0 0 1 20.42668,-4.58523 209.43975,209.43975 0 0 1 20.7814,-2.52256 209.43975,209.43975 0 0 1 14.81381,-0.5259 z"
               fill-rule="evenodd"
               stroke-width="0"
               fill="#ff956f" /><rect
               id="rect4351"
               opacity="0.99"
               style="enable-background:new"
               height="120.84112"
               width="232.14365"
               y="583.90442"
               x="196.78003"
               stroke-width="0"
               fill="#b25d58" /><rect
               id="rect4353"
               opacity="0.99"
               style="enable-background:new"
               height="120.84112"
               width="204.18727"
               y="596.55811"
               x="210.76392"
               stroke-width="0"
               fill="#ffffff" /><rect
               id="rect4347"
               opacity="0.99"
               style="enable-background:new"
               height="146.80792"
               width="330.55371"
               y="670.35425"
               x="147.575"
               stroke-width="0"
               fill="#b25d58" /><rect
               id="rect4349"
               opacity="0.99"
               style="enable-background:new"
               height="120.84112"
               width="302.05164"
               y="683.33771"
               x="161.83171"
               stroke-width="0"
               fill="#ffffff" /><rect
               id="rect4355"
               opacity="0.99"
               style="enable-background:new"
               height="13.981599"
               width="174.21858"
               y="612.82715"
               x="225.74825"
               stroke-width="0"
               fill="#b25d58" /><rect
               id="rect4357"
               opacity="0.99"
               style="enable-background:new"
               height="13.981599"
               width="174.21858"
               y="638.13452"
               x="225.74825"
               stroke-width="0"
               fill="#b25d58" /><rect
               id="rect4359"
               opacity="0.99"
               style="enable-background:new"
               height="17.975529"
               width="224.00343"
               y="736.76062"
               x="200.85014"
               stroke-width="0"
               fill="#b25d58" /><rect
               id="rect4361"
               opacity="0.99"
               style="enable-background:new"
               height="146.80792"
               width="202.18633"
               y="748.41388"
               x="211.76437"
               stroke-width="0"
               fill="#ffaf94" /><rect
               id="rect4363"
               opacity="0.99"
               style="enable-background:new"
               height="135.88231"
               width="182.211"
               y="748.41388"
               x="221.74637"
               stroke-width="0"
               fill="#ffffff" /><path
               id="text4154"
               style="stroke-width:1.1369;enable-background:new"
               d="m 281.91111,767.43417 v 13.06071 h -7.00887 -7.25809 v 12.29216 h 7.25809 7.00887 v 7.41111 h -7.00887 -7.25809 v 12.29217 h 7.25809 7.00887 v 52.79082 h 13.23921 v -39.32197 h 16.64649 c 10.96654,0 19.24545,-2.469 24.83786,-7.4061 1.97411,-1.72912 3.59431,-3.75428 4.87696,-6.06241 h 16.5635 v -12.29217 h -13.12097 c 0.0892,-1.14076 0.13521,-2.31859 0.13521,-3.53416 0,-1.33916 -0.0614,-2.6284 -0.17177,-3.87695 h 13.15734 v -12.29216 h -16.82157 c -1.24013,-2.10895 -2.77597,-3.97472 -4.61843,-5.58878 -5.59253,-4.98087 -13.87132,-7.47148 -24.83786,-7.47148 h -29.88569 z m 13.23921,10.879 h 16.64649 c 4.15662,0 7.67396,0.72925 10.5576,2.18125 h -0.18539 c 0.36698,0.18086 0.7827,0.30615 1.12933,0.51024 1.01581,0.59801 1.94399,1.2955 2.78495,2.09281 0.84106,0.79741 1.57677,1.67829 2.20763,2.64216 0.4731,0.72302 0.88746,1.49218 1.24241,2.30881 0.11838,0.27252 0.22982,0.54965 0.33505,0.83257 0.10517,0.28264 0.20392,0.57008 0.29594,0.86312 0.0921,0.29332 0.17704,0.59178 0.25596,0.89548 0.0789,0.30344 0.15112,0.61139 0.21684,0.92522 0.0658,0.3141 0.12514,0.63299 0.17775,0.95758 0.0134,0.0832 0.008,0.18087 0.0205,0.26438 h 0.0161 c 0.18309,1.22081 0.27808,2.51119 0.27808,3.87695 0,1.23899 -0.0778,2.41477 -0.2262,3.53416 h -0.0408 c -0.0272,0.20284 -0.0157,0.4364 -0.0476,0.63526 -0.3154,1.95797 -0.86808,3.72607 -1.65658,5.30296 -0.26295,0.52552 -0.55199,1.02953 -0.8674,1.51287 -0.63078,0.9667 -1.36655,1.84905 -2.20763,2.64636 -0.84104,0.79741 -1.76924,1.4948 -2.78506,2.09281 -0.0695,0.0407 -0.15597,0.0624 -0.22621,0.10209 h 0.0417 c -3.01767,1.72377 -6.78797,2.5894 -11.31693,2.5894 h -16.64649 v -2.5894 -12.29216 -7.41112 -12.29216 -2.18126 z"
               fill="#ff5853" /></g></g></g></g></g></svg>
